%TF.GenerationSoftware,KiCad,Pcbnew,(6.0.4)*%
%TF.CreationDate,2022-09-19T09:41:04-03:00*%
%TF.ProjectId,Placa de sensores 12,506c6163-6120-4646-9520-73656e736f72,rev?*%
%TF.SameCoordinates,Original*%
%TF.FileFunction,Copper,L1,Top*%
%TF.FilePolarity,Positive*%
%FSLAX46Y46*%
G04 Gerber Fmt 4.6, Leading zero omitted, Abs format (unit mm)*
G04 Created by KiCad (PCBNEW (6.0.4)) date 2022-09-19 09:41:04*
%MOMM*%
%LPD*%
G01*
G04 APERTURE LIST*
G04 Aperture macros list*
%AMRoundRect*
0 Rectangle with rounded corners*
0 $1 Rounding radius*
0 $2 $3 $4 $5 $6 $7 $8 $9 X,Y pos of 4 corners*
0 Add a 4 corners polygon primitive as box body*
4,1,4,$2,$3,$4,$5,$6,$7,$8,$9,$2,$3,0*
0 Add four circle primitives for the rounded corners*
1,1,$1+$1,$2,$3*
1,1,$1+$1,$4,$5*
1,1,$1+$1,$6,$7*
1,1,$1+$1,$8,$9*
0 Add four rect primitives between the rounded corners*
20,1,$1+$1,$2,$3,$4,$5,0*
20,1,$1+$1,$4,$5,$6,$7,0*
20,1,$1+$1,$6,$7,$8,$9,0*
20,1,$1+$1,$8,$9,$2,$3,0*%
G04 Aperture macros list end*
%TA.AperFunction,SMDPad,CuDef*%
%ADD10RoundRect,0.285750X-0.476250X-0.285750X0.476250X-0.285750X0.476250X0.285750X-0.476250X0.285750X0*%
%TD*%
%TA.AperFunction,SMDPad,CuDef*%
%ADD11RoundRect,0.285750X-0.285750X-0.476250X0.285750X-0.476250X0.285750X0.476250X-0.285750X0.476250X0*%
%TD*%
%TA.AperFunction,ComponentPad*%
%ADD12RoundRect,0.476250X0.476250X-0.666750X0.476250X0.666750X-0.476250X0.666750X-0.476250X-0.666750X0*%
%TD*%
%TA.AperFunction,ComponentPad*%
%ADD13O,1.905000X2.286000*%
%TD*%
%TA.AperFunction,ComponentPad*%
%ADD14RoundRect,0.476250X-0.476250X0.666750X-0.476250X-0.666750X0.476250X-0.666750X0.476250X0.666750X0*%
%TD*%
%TA.AperFunction,ViaPad*%
%ADD15C,1.778000*%
%TD*%
%TA.AperFunction,Conductor*%
%ADD16C,1.778000*%
%TD*%
%TA.AperFunction,Conductor*%
%ADD17C,1.016000*%
%TD*%
%TA.AperFunction,Conductor*%
%ADD18C,0.762000*%
%TD*%
G04 APERTURE END LIST*
D10*
%TO.P,U12,1,VCC*%
%TO.N,+5V*%
X79405000Y-33850800D03*
%TO.P,U12,2,OUT*%
%TO.N,/s12*%
X79405000Y-35750800D03*
D11*
%TO.P,U12,3,GND*%
%TO.N,GND*%
X81280000Y-34800800D03*
%TD*%
D10*
%TO.P,U7,1,VCC*%
%TO.N,+5V*%
X57180000Y-33850800D03*
%TO.P,U7,2,OUT*%
%TO.N,/s7*%
X57180000Y-35750800D03*
D11*
%TO.P,U7,3,GND*%
%TO.N,GND*%
X59055000Y-34800800D03*
%TD*%
D10*
%TO.P,U11,1,VCC*%
%TO.N,+5V*%
X74960000Y-33850800D03*
%TO.P,U11,2,OUT*%
%TO.N,/s11*%
X74960000Y-35750800D03*
D11*
%TO.P,U11,3,GND*%
%TO.N,GND*%
X76835000Y-34800800D03*
%TD*%
D12*
%TO.P,J1,1,Pin_1*%
%TO.N,/s1*%
X41269996Y-41275000D03*
D13*
%TO.P,J1,2,Pin_2*%
%TO.N,/s2*%
X43809996Y-41275000D03*
%TO.P,J1,3,Pin_3*%
%TO.N,/s3*%
X46349996Y-41275000D03*
%TO.P,J1,4,Pin_4*%
%TO.N,/s4*%
X48889996Y-41275000D03*
%TO.P,J1,5,Pin_5*%
%TO.N,/s5*%
X51429996Y-41275000D03*
%TO.P,J1,6,Pin_6*%
%TO.N,/s6*%
X53969996Y-41275000D03*
%TO.P,J1,7,Pin_7*%
%TO.N,/s7*%
X56509996Y-41275000D03*
%TO.P,J1,8,Pin_8*%
%TO.N,/s8*%
X59049996Y-41275000D03*
%TO.P,J1,9,Pin_9*%
%TO.N,/s9*%
X61589996Y-41275000D03*
%TO.P,J1,10,Pin_10*%
%TO.N,/s10*%
X64129996Y-41275000D03*
%TO.P,J1,11,Pin_11*%
%TO.N,/s11*%
X66669996Y-41275000D03*
%TO.P,J1,12,Pin_12*%
%TO.N,/s12*%
X69209996Y-41275000D03*
%TD*%
D10*
%TO.P,U10,1,VCC*%
%TO.N,+5V*%
X70515000Y-33850800D03*
%TO.P,U10,2,OUT*%
%TO.N,/s10*%
X70515000Y-35750800D03*
D11*
%TO.P,U10,3,GND*%
%TO.N,GND*%
X72390000Y-34800800D03*
%TD*%
D10*
%TO.P,U5,1,VCC*%
%TO.N,+5V*%
X48290000Y-33850800D03*
%TO.P,U5,2,OUT*%
%TO.N,/s5*%
X48290000Y-35750800D03*
D11*
%TO.P,U5,3,GND*%
%TO.N,GND*%
X50165000Y-34800800D03*
%TD*%
D10*
%TO.P,U2,1,VCC*%
%TO.N,+5V*%
X34955000Y-33850800D03*
%TO.P,U2,2,OUT*%
%TO.N,/s2*%
X34955000Y-35750800D03*
D11*
%TO.P,U2,3,GND*%
%TO.N,GND*%
X36830000Y-34800800D03*
%TD*%
D14*
%TO.P,J2,1,Pin_1*%
%TO.N,GND*%
X59679992Y-27305000D03*
D13*
%TO.P,J2,2,Pin_2*%
%TO.N,+5V*%
X57139992Y-27305000D03*
%TO.P,J2,3,Pin_3*%
X54599992Y-27305000D03*
%TO.P,J2,4,Pin_4*%
%TO.N,GND*%
X52059992Y-27305000D03*
%TD*%
D10*
%TO.P,U4,1,VCC*%
%TO.N,+5V*%
X43845000Y-33850800D03*
%TO.P,U4,2,OUT*%
%TO.N,/s4*%
X43845000Y-35750800D03*
D11*
%TO.P,U4,3,GND*%
%TO.N,GND*%
X45720000Y-34800800D03*
%TD*%
D10*
%TO.P,U9,1,VCC*%
%TO.N,+5V*%
X66070000Y-33850800D03*
%TO.P,U9,2,OUT*%
%TO.N,/s9*%
X66070000Y-35750800D03*
D11*
%TO.P,U9,3,GND*%
%TO.N,GND*%
X67945000Y-34800800D03*
%TD*%
D10*
%TO.P,U8,1,VCC*%
%TO.N,+5V*%
X61625000Y-33850800D03*
%TO.P,U8,2,OUT*%
%TO.N,/s8*%
X61625000Y-35750800D03*
D11*
%TO.P,U8,3,GND*%
%TO.N,GND*%
X63500000Y-34800800D03*
%TD*%
D10*
%TO.P,U1,1,VCC*%
%TO.N,+5V*%
X30480000Y-33850800D03*
%TO.P,U1,2,OUT*%
%TO.N,/s1*%
X30480000Y-35750800D03*
D11*
%TO.P,U1,3,GND*%
%TO.N,GND*%
X32355000Y-34800800D03*
%TD*%
D10*
%TO.P,U6,1,VCC*%
%TO.N,+5V*%
X52735000Y-33850800D03*
%TO.P,U6,2,OUT*%
%TO.N,/s6*%
X52735000Y-35750800D03*
D11*
%TO.P,U6,3,GND*%
%TO.N,GND*%
X54610000Y-34800800D03*
%TD*%
D10*
%TO.P,U3,1,VCC*%
%TO.N,+5V*%
X39400000Y-33850800D03*
%TO.P,U3,2,OUT*%
%TO.N,/s3*%
X39400000Y-35750800D03*
D11*
%TO.P,U3,3,GND*%
%TO.N,GND*%
X41275000Y-34800800D03*
%TD*%
D15*
%TO.N,+5V*%
X57150000Y-30889200D03*
X61595000Y-30889200D03*
X34925000Y-30889200D03*
X39370000Y-30889200D03*
X70485000Y-30889200D03*
X66040000Y-30889200D03*
X52705000Y-30889200D03*
X74930000Y-30889200D03*
X43815000Y-30889200D03*
X48260000Y-30889200D03*
X79375000Y-30889200D03*
X31750000Y-30889200D03*
%TD*%
D16*
%TO.N,+5V*%
X54600000Y-27305000D02*
X54600000Y-27315000D01*
D17*
X66070000Y-33850800D02*
X66070000Y-30919200D01*
X70515000Y-30919200D02*
X70485000Y-30889200D01*
X66070000Y-30919200D02*
X66040000Y-30889200D01*
X31750000Y-30889200D02*
X30480000Y-32159200D01*
X48290000Y-30919200D02*
X48260000Y-30889200D01*
X61625000Y-30919200D02*
X61595000Y-30889200D01*
X74960000Y-33850800D02*
X74960000Y-30919200D01*
X57180000Y-30919200D02*
X57150000Y-30889200D01*
X39400000Y-33850800D02*
X39400000Y-30919200D01*
X52735000Y-33850800D02*
X52735000Y-30919200D01*
X79405000Y-33850800D02*
X79405000Y-30919200D01*
X30480000Y-32159200D02*
X30480000Y-33850800D01*
D16*
X57140000Y-27305000D02*
X57140000Y-29855000D01*
D17*
X43845000Y-30919200D02*
X43815000Y-30889200D01*
D16*
X57140000Y-29855000D02*
X57140000Y-30879200D01*
D17*
X39400000Y-30919200D02*
X39370000Y-30889200D01*
D16*
X54600000Y-27315000D02*
X57140000Y-29855000D01*
D17*
X74960000Y-30919200D02*
X74930000Y-30889200D01*
X79405000Y-30919200D02*
X79375000Y-30889200D01*
X34955000Y-30919200D02*
X34925000Y-30889200D01*
X34955000Y-33850800D02*
X34955000Y-30919200D01*
X48290000Y-33850800D02*
X48290000Y-30919200D01*
D16*
X54600000Y-27305000D02*
X57140000Y-27305000D01*
D17*
X43845000Y-33850800D02*
X43845000Y-30919200D01*
D16*
X57140000Y-30879200D02*
X57150000Y-30889200D01*
D17*
X52735000Y-30919200D02*
X52705000Y-30889200D01*
X61625000Y-33850800D02*
X61625000Y-30919200D01*
X70515000Y-33850800D02*
X70515000Y-30919200D01*
X57180000Y-33850800D02*
X57180000Y-30919200D01*
D18*
%TO.N,/s1*%
X36004200Y-41275000D02*
X41270000Y-41275000D01*
X30480000Y-35750800D02*
X36004200Y-41275000D01*
%TO.N,/s2*%
X34955000Y-35750800D02*
X38574200Y-39370000D01*
X42545000Y-39370000D02*
X43810000Y-40635000D01*
X38574200Y-39370000D02*
X42545000Y-39370000D01*
X43810000Y-40635000D02*
X43810000Y-41275000D01*
%TO.N,/s3*%
X46350000Y-41270000D02*
X46350000Y-41275000D01*
X39400000Y-36225000D02*
X41275000Y-38100000D01*
X43180000Y-38100000D02*
X46350000Y-41270000D01*
X41275000Y-38100000D02*
X43180000Y-38100000D01*
X39400000Y-35750800D02*
X39400000Y-36225000D01*
%TO.N,/s4*%
X43845000Y-35750800D02*
X43845000Y-36230000D01*
X43845000Y-36230000D02*
X48890000Y-41275000D01*
%TO.N,/s5*%
X48290000Y-35750800D02*
X48290000Y-37495000D01*
X48290000Y-37495000D02*
X51430000Y-40635000D01*
X51430000Y-40635000D02*
X51430000Y-41275000D01*
%TO.N,/s6*%
X52735000Y-35750800D02*
X52735000Y-36860000D01*
X52735000Y-36860000D02*
X53970000Y-38095000D01*
X53970000Y-38095000D02*
X53970000Y-41275000D01*
%TO.N,/s7*%
X57180000Y-37435000D02*
X56510000Y-38105000D01*
X57180000Y-35750800D02*
X57180000Y-37435000D01*
X56510000Y-38105000D02*
X56510000Y-41275000D01*
%TO.N,/s8*%
X61625000Y-36165000D02*
X59050000Y-38740000D01*
X61625000Y-35750800D02*
X61625000Y-36165000D01*
X59050000Y-38740000D02*
X59050000Y-41275000D01*
%TO.N,/s9*%
X61590000Y-40010000D02*
X61590000Y-41275000D01*
X66070000Y-35750800D02*
X65849200Y-35750800D01*
X65849200Y-35750800D02*
X61590000Y-40010000D01*
%TO.N,/s10*%
X70515000Y-35750800D02*
X70515000Y-36800000D01*
X69215000Y-38100000D02*
X67305000Y-38100000D01*
X67305000Y-38100000D02*
X64130000Y-41275000D01*
X70515000Y-36800000D02*
X69215000Y-38100000D01*
%TO.N,/s11*%
X72390000Y-39370000D02*
X67945000Y-39370000D01*
X67945000Y-39370000D02*
X66670000Y-40645000D01*
X74960000Y-35750800D02*
X74960000Y-36800000D01*
X74960000Y-36800000D02*
X72390000Y-39370000D01*
X66670000Y-40645000D02*
X66670000Y-41275000D01*
%TO.N,/s12*%
X79405000Y-35750800D02*
X73880800Y-41275000D01*
X73880800Y-41275000D02*
X69210000Y-41275000D01*
%TD*%
%TA.AperFunction,Conductor*%
%TO.N,GND*%
G36*
X82401996Y-25928502D02*
G01*
X82448489Y-25982158D01*
X82458593Y-26052432D01*
X82429099Y-26117012D01*
X82416953Y-26129232D01*
X82199731Y-26319731D01*
X82197022Y-26322820D01*
X82004823Y-26541980D01*
X82004819Y-26541986D01*
X82002105Y-26545080D01*
X81835584Y-26794297D01*
X81833760Y-26797996D01*
X81833757Y-26798001D01*
X81788500Y-26889774D01*
X81703017Y-27063117D01*
X81606672Y-27346940D01*
X81605868Y-27350984D01*
X81605866Y-27350990D01*
X81560829Y-27577407D01*
X81548197Y-27640911D01*
X81547928Y-27645016D01*
X81547927Y-27645023D01*
X81539723Y-27770202D01*
X81528594Y-27940000D01*
X81528864Y-27944119D01*
X81544866Y-28188263D01*
X81548197Y-28239089D01*
X81548999Y-28243122D01*
X81549000Y-28243128D01*
X81605866Y-28529010D01*
X81606672Y-28533060D01*
X81607999Y-28536969D01*
X81608000Y-28536973D01*
X81682356Y-28756019D01*
X81703017Y-28816883D01*
X81835584Y-29085703D01*
X82002105Y-29334920D01*
X82004819Y-29338014D01*
X82004823Y-29338020D01*
X82168876Y-29525086D01*
X82199731Y-29560269D01*
X82202820Y-29562978D01*
X82421980Y-29755177D01*
X82421986Y-29755181D01*
X82425080Y-29757895D01*
X82674297Y-29924416D01*
X82677996Y-29926240D01*
X82678001Y-29926243D01*
X82815905Y-29994249D01*
X82943117Y-30056983D01*
X82947022Y-30058308D01*
X82947023Y-30058309D01*
X83223027Y-30152000D01*
X83223031Y-30152001D01*
X83226940Y-30153328D01*
X83230984Y-30154132D01*
X83230990Y-30154134D01*
X83516872Y-30211000D01*
X83516878Y-30211001D01*
X83520911Y-30211803D01*
X83525016Y-30212072D01*
X83525023Y-30212073D01*
X83815881Y-30231136D01*
X83820000Y-30231406D01*
X83824119Y-30231136D01*
X84114977Y-30212073D01*
X84114984Y-30212072D01*
X84119089Y-30211803D01*
X84123122Y-30211001D01*
X84123128Y-30211000D01*
X84409010Y-30154134D01*
X84409016Y-30154132D01*
X84413060Y-30153328D01*
X84416969Y-30152001D01*
X84416973Y-30152000D01*
X84692977Y-30058309D01*
X84692978Y-30058308D01*
X84696883Y-30056983D01*
X84824095Y-29994249D01*
X84961999Y-29926243D01*
X84962004Y-29926240D01*
X84965703Y-29924416D01*
X85214920Y-29757895D01*
X85218014Y-29755181D01*
X85218020Y-29755177D01*
X85437180Y-29562978D01*
X85440269Y-29560269D01*
X85471124Y-29525086D01*
X85630768Y-29343047D01*
X85690722Y-29305020D01*
X85761717Y-29305442D01*
X85821214Y-29344181D01*
X85850322Y-29408936D01*
X85851500Y-29426125D01*
X85851500Y-39280875D01*
X85831498Y-39348996D01*
X85777842Y-39395489D01*
X85707568Y-39405593D01*
X85642988Y-39376099D01*
X85630768Y-39363953D01*
X85442978Y-39149820D01*
X85440269Y-39146731D01*
X85298976Y-39022820D01*
X85218020Y-38951823D01*
X85218014Y-38951819D01*
X85214920Y-38949105D01*
X84965703Y-38782584D01*
X84962004Y-38780760D01*
X84961999Y-38780757D01*
X84791486Y-38696670D01*
X84696883Y-38650017D01*
X84692977Y-38648691D01*
X84416973Y-38555000D01*
X84416969Y-38554999D01*
X84413060Y-38553672D01*
X84409016Y-38552868D01*
X84409010Y-38552866D01*
X84123128Y-38496000D01*
X84123122Y-38495999D01*
X84119089Y-38495197D01*
X84114984Y-38494928D01*
X84114977Y-38494927D01*
X83824119Y-38475864D01*
X83820000Y-38475594D01*
X83815881Y-38475864D01*
X83525023Y-38494927D01*
X83525016Y-38494928D01*
X83520911Y-38495197D01*
X83516878Y-38495999D01*
X83516872Y-38496000D01*
X83230990Y-38552866D01*
X83230984Y-38552868D01*
X83226940Y-38553672D01*
X83223031Y-38554999D01*
X83223027Y-38555000D01*
X82947023Y-38648691D01*
X82943117Y-38650017D01*
X82848514Y-38696670D01*
X82678001Y-38780757D01*
X82677996Y-38780760D01*
X82674297Y-38782584D01*
X82425080Y-38949105D01*
X82421986Y-38951819D01*
X82421980Y-38951823D01*
X82341024Y-39022820D01*
X82199731Y-39146731D01*
X82197022Y-39149820D01*
X82004823Y-39368980D01*
X82004819Y-39368986D01*
X82002105Y-39372080D01*
X81835584Y-39621297D01*
X81833760Y-39624996D01*
X81833757Y-39625001D01*
X81772202Y-39749823D01*
X81703017Y-39890117D01*
X81701692Y-39894022D01*
X81701691Y-39894023D01*
X81612024Y-40158175D01*
X81606672Y-40173940D01*
X81605868Y-40177984D01*
X81605866Y-40177990D01*
X81557816Y-40419554D01*
X81548197Y-40467911D01*
X81547928Y-40472016D01*
X81547927Y-40472023D01*
X81537188Y-40635881D01*
X81528594Y-40767000D01*
X81528864Y-40771119D01*
X81543043Y-40987446D01*
X81548197Y-41066089D01*
X81548999Y-41070122D01*
X81549000Y-41070128D01*
X81605866Y-41356010D01*
X81606672Y-41360060D01*
X81607999Y-41363969D01*
X81608000Y-41363973D01*
X81701691Y-41639977D01*
X81703017Y-41643883D01*
X81704841Y-41647581D01*
X81818414Y-41877885D01*
X81835584Y-41912703D01*
X82002105Y-42161920D01*
X82004819Y-42165014D01*
X82004823Y-42165020D01*
X82179153Y-42363804D01*
X82199731Y-42387269D01*
X82202820Y-42389978D01*
X82202827Y-42389985D01*
X82272137Y-42450768D01*
X82310165Y-42510721D01*
X82309743Y-42581717D01*
X82271005Y-42641214D01*
X82206250Y-42670322D01*
X82189060Y-42671500D01*
X70373152Y-42671500D01*
X70305031Y-42651498D01*
X70258538Y-42597842D01*
X70248434Y-42527568D01*
X70282059Y-42458448D01*
X70282588Y-42457895D01*
X70349297Y-42388088D01*
X70464304Y-42219495D01*
X70519215Y-42174493D01*
X70568392Y-42164500D01*
X73800875Y-42164500D01*
X73820586Y-42166051D01*
X73827473Y-42167142D01*
X73827475Y-42167142D01*
X73833990Y-42168174D01*
X73840578Y-42167829D01*
X73840582Y-42167829D01*
X73900799Y-42164673D01*
X73907393Y-42164500D01*
X73927420Y-42164500D01*
X73930691Y-42164156D01*
X73930695Y-42164156D01*
X73947339Y-42162407D01*
X73953913Y-42161890D01*
X74014116Y-42158735D01*
X74014118Y-42158735D01*
X74020715Y-42158389D01*
X74033828Y-42154875D01*
X74053270Y-42151272D01*
X74054512Y-42151142D01*
X74060185Y-42150546D01*
X74060189Y-42150545D01*
X74066756Y-42149855D01*
X74130381Y-42129182D01*
X74136706Y-42127309D01*
X74144159Y-42125312D01*
X74201324Y-42109994D01*
X74213416Y-42103833D01*
X74231675Y-42096270D01*
X74244585Y-42092075D01*
X74302524Y-42058624D01*
X74308320Y-42055477D01*
X74332715Y-42043047D01*
X74367925Y-42025107D01*
X74378470Y-42016568D01*
X74394755Y-42005375D01*
X74400802Y-42001884D01*
X74400805Y-42001881D01*
X74406515Y-41998585D01*
X74411415Y-41994173D01*
X74411419Y-41994170D01*
X74456225Y-41953825D01*
X74461246Y-41949537D01*
X74474241Y-41939014D01*
X74476806Y-41936937D01*
X74490953Y-41922790D01*
X74495737Y-41918249D01*
X74540566Y-41877885D01*
X74540567Y-41877883D01*
X74545469Y-41873470D01*
X74553452Y-41862482D01*
X74566289Y-41847454D01*
X79546039Y-36867704D01*
X79608351Y-36833678D01*
X79635134Y-36830799D01*
X79968416Y-36830799D01*
X79973117Y-36830529D01*
X80146738Y-36790445D01*
X80307165Y-36712892D01*
X80341892Y-36685170D01*
X80440920Y-36606116D01*
X80446423Y-36601723D01*
X80557592Y-36462465D01*
X80635145Y-36302038D01*
X80675229Y-36128417D01*
X80675500Y-36123717D01*
X80675499Y-35377884D01*
X80675229Y-35373183D01*
X80635145Y-35199562D01*
X80557592Y-35039135D01*
X80446423Y-34899877D01*
X80440920Y-34895484D01*
X80435937Y-34890501D01*
X80438039Y-34888399D01*
X80404902Y-34841131D01*
X80402047Y-34770192D01*
X80436448Y-34711610D01*
X80435937Y-34711099D01*
X80437903Y-34709133D01*
X80437998Y-34708971D01*
X80438500Y-34708536D01*
X80440920Y-34706116D01*
X80446423Y-34701723D01*
X80557592Y-34562465D01*
X80635145Y-34402038D01*
X80675229Y-34228417D01*
X80675500Y-34223717D01*
X80675499Y-33477884D01*
X80675229Y-33473183D01*
X80635145Y-33299562D01*
X80557592Y-33139135D01*
X80449029Y-33003141D01*
X80422161Y-32937424D01*
X80421500Y-32924532D01*
X80421500Y-31868406D01*
X80445177Y-31794880D01*
X80576997Y-31611433D01*
X80584416Y-31596423D01*
X80650404Y-31462904D01*
X80678816Y-31405417D01*
X80701312Y-31331375D01*
X80744117Y-31190491D01*
X80744118Y-31190485D01*
X80745621Y-31185539D01*
X80775616Y-30957702D01*
X80777290Y-30889200D01*
X80767141Y-30765756D01*
X80758884Y-30665321D01*
X80758883Y-30665315D01*
X80758460Y-30660170D01*
X80702477Y-30437290D01*
X80610843Y-30226547D01*
X80608037Y-30222209D01*
X80488830Y-30037943D01*
X80488828Y-30037940D01*
X80486020Y-30033600D01*
X80368866Y-29904849D01*
X80334837Y-29867452D01*
X80334835Y-29867451D01*
X80331359Y-29863630D01*
X80327308Y-29860431D01*
X80327304Y-29860427D01*
X80155073Y-29724408D01*
X80151015Y-29721203D01*
X79949831Y-29610143D01*
X79832611Y-29568633D01*
X79738084Y-29535159D01*
X79738080Y-29535158D01*
X79733209Y-29533433D01*
X79728116Y-29532526D01*
X79728113Y-29532525D01*
X79512056Y-29494039D01*
X79512050Y-29494038D01*
X79506967Y-29493133D01*
X79433784Y-29492239D01*
X79282351Y-29490389D01*
X79282349Y-29490389D01*
X79277181Y-29490326D01*
X79125610Y-29513519D01*
X79055131Y-29524304D01*
X79055128Y-29524305D01*
X79050022Y-29525086D01*
X79045110Y-29526691D01*
X79045112Y-29526691D01*
X78836504Y-29594875D01*
X78836502Y-29594876D01*
X78831591Y-29596481D01*
X78627753Y-29702592D01*
X78623620Y-29705695D01*
X78623617Y-29705697D01*
X78457922Y-29830104D01*
X78443983Y-29840570D01*
X78285216Y-30006710D01*
X78282302Y-30010982D01*
X78282301Y-30010983D01*
X78194840Y-30139197D01*
X78155716Y-30196550D01*
X78107338Y-30300771D01*
X78062690Y-30396959D01*
X78058961Y-30404992D01*
X77997548Y-30626437D01*
X77973129Y-30854939D01*
X77973426Y-30860092D01*
X77973426Y-30860095D01*
X77974629Y-30880962D01*
X77986357Y-31084361D01*
X77987492Y-31089398D01*
X77987493Y-31089404D01*
X78021565Y-31240594D01*
X78036878Y-31308542D01*
X78123336Y-31521461D01*
X78126033Y-31525862D01*
X78126034Y-31525864D01*
X78222096Y-31682622D01*
X78243408Y-31717400D01*
X78331741Y-31819375D01*
X78357738Y-31849387D01*
X78387220Y-31913973D01*
X78388500Y-31931884D01*
X78388500Y-32924532D01*
X78368498Y-32992653D01*
X78360971Y-33003141D01*
X78252408Y-33139135D01*
X78174855Y-33299562D01*
X78134771Y-33473183D01*
X78134500Y-33477883D01*
X78134501Y-34223716D01*
X78134771Y-34228417D01*
X78174855Y-34402038D01*
X78252408Y-34562465D01*
X78363577Y-34701723D01*
X78369080Y-34706116D01*
X78374063Y-34711099D01*
X78371961Y-34713201D01*
X78405098Y-34760469D01*
X78407953Y-34831408D01*
X78373552Y-34889990D01*
X78374063Y-34890501D01*
X78372097Y-34892467D01*
X78372002Y-34892629D01*
X78371500Y-34893064D01*
X78369080Y-34895484D01*
X78363577Y-34899877D01*
X78252408Y-35039135D01*
X78174855Y-35199562D01*
X78134771Y-35373183D01*
X78134500Y-35377883D01*
X78134501Y-35558488D01*
X78134501Y-35711166D01*
X78114499Y-35779286D01*
X78097596Y-35800261D01*
X73549262Y-40348595D01*
X73486950Y-40382621D01*
X73460167Y-40385500D01*
X72881089Y-40385500D01*
X72812968Y-40365498D01*
X72766475Y-40311842D01*
X72756371Y-40241568D01*
X72785865Y-40176988D01*
X72823885Y-40147234D01*
X72877125Y-40120107D01*
X72887670Y-40111568D01*
X72903955Y-40100375D01*
X72910002Y-40096884D01*
X72910005Y-40096881D01*
X72915715Y-40093585D01*
X72920615Y-40089173D01*
X72920619Y-40089170D01*
X72965425Y-40048825D01*
X72970446Y-40044537D01*
X72983441Y-40034014D01*
X72986006Y-40031937D01*
X73000153Y-40017790D01*
X73004937Y-40013249D01*
X73049766Y-39972885D01*
X73049767Y-39972883D01*
X73054669Y-39968470D01*
X73062652Y-39957482D01*
X73075489Y-39942454D01*
X75532454Y-37485489D01*
X75547482Y-37472652D01*
X75558470Y-37464669D01*
X75565600Y-37456751D01*
X75603249Y-37414937D01*
X75607790Y-37410153D01*
X75621937Y-37396006D01*
X75634537Y-37380446D01*
X75638825Y-37375425D01*
X75639401Y-37374786D01*
X75664307Y-37347125D01*
X75679170Y-37330619D01*
X75679173Y-37330615D01*
X75683585Y-37325715D01*
X75686881Y-37320005D01*
X75686884Y-37320002D01*
X75690375Y-37313955D01*
X75701568Y-37297670D01*
X75705950Y-37292258D01*
X75710107Y-37287125D01*
X75740477Y-37227520D01*
X75743624Y-37221724D01*
X75748391Y-37213467D01*
X75777075Y-37163785D01*
X75781270Y-37150875D01*
X75788833Y-37132616D01*
X75794994Y-37120524D01*
X75812309Y-37055906D01*
X75814182Y-37049582D01*
X75819742Y-37032471D01*
X75834855Y-36985956D01*
X75836272Y-36972470D01*
X75839876Y-36953023D01*
X75841680Y-36946293D01*
X75841680Y-36946292D01*
X75843389Y-36939915D01*
X75843735Y-36933316D01*
X75846890Y-36873113D01*
X75847407Y-36866539D01*
X75849156Y-36849895D01*
X75849156Y-36849891D01*
X75849500Y-36846620D01*
X75849500Y-36826593D01*
X75849673Y-36819999D01*
X75852022Y-36775172D01*
X75875561Y-36708192D01*
X75899240Y-36683295D01*
X75995920Y-36606116D01*
X76001423Y-36601723D01*
X76112592Y-36462465D01*
X76190145Y-36302038D01*
X76230229Y-36128417D01*
X76230500Y-36123717D01*
X76230499Y-35377884D01*
X76230229Y-35373183D01*
X76190145Y-35199562D01*
X76112592Y-35039135D01*
X76001423Y-34899877D01*
X75995920Y-34895484D01*
X75990937Y-34890501D01*
X75993039Y-34888399D01*
X75959902Y-34841131D01*
X75957047Y-34770192D01*
X75991448Y-34711610D01*
X75990937Y-34711099D01*
X75992903Y-34709133D01*
X75992998Y-34708971D01*
X75993500Y-34708536D01*
X75995920Y-34706116D01*
X76001423Y-34701723D01*
X76112592Y-34562465D01*
X76190145Y-34402038D01*
X76230229Y-34228417D01*
X76230500Y-34223717D01*
X76230499Y-33477884D01*
X76230229Y-33473183D01*
X76190145Y-33299562D01*
X76112592Y-33139135D01*
X76004029Y-33003141D01*
X75977161Y-32937424D01*
X75976500Y-32924532D01*
X75976500Y-31868406D01*
X76000177Y-31794880D01*
X76131997Y-31611433D01*
X76139416Y-31596423D01*
X76205404Y-31462904D01*
X76233816Y-31405417D01*
X76256312Y-31331375D01*
X76299117Y-31190491D01*
X76299118Y-31190485D01*
X76300621Y-31185539D01*
X76330616Y-30957702D01*
X76332290Y-30889200D01*
X76322141Y-30765756D01*
X76313884Y-30665321D01*
X76313883Y-30665315D01*
X76313460Y-30660170D01*
X76257477Y-30437290D01*
X76165843Y-30226547D01*
X76163037Y-30222209D01*
X76043830Y-30037943D01*
X76043828Y-30037940D01*
X76041020Y-30033600D01*
X75923866Y-29904849D01*
X75889837Y-29867452D01*
X75889835Y-29867451D01*
X75886359Y-29863630D01*
X75882308Y-29860431D01*
X75882304Y-29860427D01*
X75710073Y-29724408D01*
X75706015Y-29721203D01*
X75504831Y-29610143D01*
X75387611Y-29568633D01*
X75293084Y-29535159D01*
X75293080Y-29535158D01*
X75288209Y-29533433D01*
X75283116Y-29532526D01*
X75283113Y-29532525D01*
X75067056Y-29494039D01*
X75067050Y-29494038D01*
X75061967Y-29493133D01*
X74988784Y-29492239D01*
X74837351Y-29490389D01*
X74837349Y-29490389D01*
X74832181Y-29490326D01*
X74680610Y-29513519D01*
X74610131Y-29524304D01*
X74610128Y-29524305D01*
X74605022Y-29525086D01*
X74600110Y-29526691D01*
X74600112Y-29526691D01*
X74391504Y-29594875D01*
X74391502Y-29594876D01*
X74386591Y-29596481D01*
X74182753Y-29702592D01*
X74178620Y-29705695D01*
X74178617Y-29705697D01*
X74012922Y-29830104D01*
X73998983Y-29840570D01*
X73840216Y-30006710D01*
X73837302Y-30010982D01*
X73837301Y-30010983D01*
X73749840Y-30139197D01*
X73710716Y-30196550D01*
X73662338Y-30300771D01*
X73617690Y-30396959D01*
X73613961Y-30404992D01*
X73552548Y-30626437D01*
X73528129Y-30854939D01*
X73528426Y-30860092D01*
X73528426Y-30860095D01*
X73529629Y-30880962D01*
X73541357Y-31084361D01*
X73542492Y-31089398D01*
X73542493Y-31089404D01*
X73576565Y-31240594D01*
X73591878Y-31308542D01*
X73678336Y-31521461D01*
X73681033Y-31525862D01*
X73681034Y-31525864D01*
X73777096Y-31682622D01*
X73798408Y-31717400D01*
X73886741Y-31819375D01*
X73912738Y-31849387D01*
X73942220Y-31913973D01*
X73943500Y-31931884D01*
X73943500Y-32924532D01*
X73923498Y-32992653D01*
X73915971Y-33003141D01*
X73807408Y-33139135D01*
X73729855Y-33299562D01*
X73689771Y-33473183D01*
X73689500Y-33477883D01*
X73689501Y-34223716D01*
X73689771Y-34228417D01*
X73729855Y-34402038D01*
X73807408Y-34562465D01*
X73918577Y-34701723D01*
X73924080Y-34706116D01*
X73929063Y-34711099D01*
X73926961Y-34713201D01*
X73960098Y-34760469D01*
X73962953Y-34831408D01*
X73928552Y-34889990D01*
X73929063Y-34890501D01*
X73927097Y-34892467D01*
X73927002Y-34892629D01*
X73926500Y-34893064D01*
X73924080Y-34895484D01*
X73918577Y-34899877D01*
X73807408Y-35039135D01*
X73729855Y-35199562D01*
X73689771Y-35373183D01*
X73689500Y-35377883D01*
X73689501Y-36123716D01*
X73689771Y-36128417D01*
X73729855Y-36302038D01*
X73807408Y-36462465D01*
X73811802Y-36467969D01*
X73811805Y-36467974D01*
X73840193Y-36503534D01*
X73867062Y-36569250D01*
X73854136Y-36639060D01*
X73830818Y-36671239D01*
X72058462Y-38443595D01*
X71996150Y-38477621D01*
X71969367Y-38480500D01*
X70396633Y-38480500D01*
X70328512Y-38460498D01*
X70282019Y-38406842D01*
X70271915Y-38336568D01*
X70301409Y-38271988D01*
X70307538Y-38265405D01*
X71087454Y-37485489D01*
X71102482Y-37472652D01*
X71113470Y-37464669D01*
X71120600Y-37456751D01*
X71158249Y-37414937D01*
X71162790Y-37410153D01*
X71176937Y-37396006D01*
X71189537Y-37380446D01*
X71193825Y-37375425D01*
X71194401Y-37374786D01*
X71219307Y-37347125D01*
X71234170Y-37330619D01*
X71234173Y-37330615D01*
X71238585Y-37325715D01*
X71241881Y-37320005D01*
X71241884Y-37320002D01*
X71245375Y-37313955D01*
X71256568Y-37297670D01*
X71260950Y-37292258D01*
X71265107Y-37287125D01*
X71295477Y-37227520D01*
X71298624Y-37221724D01*
X71303391Y-37213467D01*
X71332075Y-37163785D01*
X71336270Y-37150875D01*
X71343833Y-37132616D01*
X71349994Y-37120524D01*
X71367309Y-37055906D01*
X71369182Y-37049582D01*
X71374742Y-37032471D01*
X71389855Y-36985956D01*
X71391272Y-36972470D01*
X71394876Y-36953023D01*
X71396680Y-36946293D01*
X71396680Y-36946292D01*
X71398389Y-36939915D01*
X71398735Y-36933316D01*
X71401890Y-36873113D01*
X71402407Y-36866539D01*
X71404156Y-36849895D01*
X71404156Y-36849891D01*
X71404500Y-36846620D01*
X71404500Y-36826593D01*
X71404673Y-36819999D01*
X71407022Y-36775172D01*
X71430561Y-36708192D01*
X71454240Y-36683295D01*
X71550920Y-36606116D01*
X71556423Y-36601723D01*
X71667592Y-36462465D01*
X71745145Y-36302038D01*
X71785229Y-36128417D01*
X71785500Y-36123717D01*
X71785499Y-35377884D01*
X71785229Y-35373183D01*
X71745145Y-35199562D01*
X71667592Y-35039135D01*
X71556423Y-34899877D01*
X71550920Y-34895484D01*
X71545937Y-34890501D01*
X71548039Y-34888399D01*
X71514902Y-34841131D01*
X71512047Y-34770192D01*
X71546448Y-34711610D01*
X71545937Y-34711099D01*
X71547903Y-34709133D01*
X71547998Y-34708971D01*
X71548500Y-34708536D01*
X71550920Y-34706116D01*
X71556423Y-34701723D01*
X71667592Y-34562465D01*
X71745145Y-34402038D01*
X71785229Y-34228417D01*
X71785500Y-34223717D01*
X71785499Y-33477884D01*
X71785229Y-33473183D01*
X71745145Y-33299562D01*
X71667592Y-33139135D01*
X71559029Y-33003141D01*
X71532161Y-32937424D01*
X71531500Y-32924532D01*
X71531500Y-31868406D01*
X71555177Y-31794880D01*
X71686997Y-31611433D01*
X71694416Y-31596423D01*
X71760404Y-31462904D01*
X71788816Y-31405417D01*
X71811312Y-31331375D01*
X71854117Y-31190491D01*
X71854118Y-31190485D01*
X71855621Y-31185539D01*
X71885616Y-30957702D01*
X71887290Y-30889200D01*
X71877141Y-30765756D01*
X71868884Y-30665321D01*
X71868883Y-30665315D01*
X71868460Y-30660170D01*
X71812477Y-30437290D01*
X71720843Y-30226547D01*
X71718037Y-30222209D01*
X71598830Y-30037943D01*
X71598828Y-30037940D01*
X71596020Y-30033600D01*
X71478866Y-29904849D01*
X71444837Y-29867452D01*
X71444835Y-29867451D01*
X71441359Y-29863630D01*
X71437308Y-29860431D01*
X71437304Y-29860427D01*
X71265073Y-29724408D01*
X71261015Y-29721203D01*
X71059831Y-29610143D01*
X70942611Y-29568633D01*
X70848084Y-29535159D01*
X70848080Y-29535158D01*
X70843209Y-29533433D01*
X70838116Y-29532526D01*
X70838113Y-29532525D01*
X70622056Y-29494039D01*
X70622050Y-29494038D01*
X70616967Y-29493133D01*
X70543784Y-29492239D01*
X70392351Y-29490389D01*
X70392349Y-29490389D01*
X70387181Y-29490326D01*
X70235610Y-29513519D01*
X70165131Y-29524304D01*
X70165128Y-29524305D01*
X70160022Y-29525086D01*
X70155110Y-29526691D01*
X70155112Y-29526691D01*
X69946504Y-29594875D01*
X69946502Y-29594876D01*
X69941591Y-29596481D01*
X69737753Y-29702592D01*
X69733620Y-29705695D01*
X69733617Y-29705697D01*
X69567922Y-29830104D01*
X69553983Y-29840570D01*
X69395216Y-30006710D01*
X69392302Y-30010982D01*
X69392301Y-30010983D01*
X69304840Y-30139197D01*
X69265716Y-30196550D01*
X69217338Y-30300771D01*
X69172690Y-30396959D01*
X69168961Y-30404992D01*
X69107548Y-30626437D01*
X69083129Y-30854939D01*
X69083426Y-30860092D01*
X69083426Y-30860095D01*
X69084629Y-30880962D01*
X69096357Y-31084361D01*
X69097492Y-31089398D01*
X69097493Y-31089404D01*
X69131565Y-31240594D01*
X69146878Y-31308542D01*
X69233336Y-31521461D01*
X69236033Y-31525862D01*
X69236034Y-31525864D01*
X69332096Y-31682622D01*
X69353408Y-31717400D01*
X69441741Y-31819375D01*
X69467738Y-31849387D01*
X69497220Y-31913973D01*
X69498500Y-31931884D01*
X69498500Y-32924532D01*
X69478498Y-32992653D01*
X69470971Y-33003141D01*
X69362408Y-33139135D01*
X69284855Y-33299562D01*
X69244771Y-33473183D01*
X69244500Y-33477883D01*
X69244501Y-34223716D01*
X69244771Y-34228417D01*
X69284855Y-34402038D01*
X69362408Y-34562465D01*
X69473577Y-34701723D01*
X69479080Y-34706116D01*
X69484063Y-34711099D01*
X69481961Y-34713201D01*
X69515098Y-34760469D01*
X69517953Y-34831408D01*
X69483552Y-34889990D01*
X69484063Y-34890501D01*
X69482097Y-34892467D01*
X69482002Y-34892629D01*
X69481500Y-34893064D01*
X69479080Y-34895484D01*
X69473577Y-34899877D01*
X69362408Y-35039135D01*
X69284855Y-35199562D01*
X69244771Y-35373183D01*
X69244500Y-35377883D01*
X69244501Y-36123716D01*
X69244771Y-36128417D01*
X69284855Y-36302038D01*
X69362408Y-36462465D01*
X69366802Y-36467969D01*
X69366805Y-36467974D01*
X69395193Y-36503534D01*
X69422062Y-36569250D01*
X69409136Y-36639060D01*
X69385818Y-36671239D01*
X68883462Y-37173595D01*
X68821150Y-37207621D01*
X68794367Y-37210500D01*
X67384925Y-37210500D01*
X67365214Y-37208949D01*
X67358327Y-37207858D01*
X67358325Y-37207858D01*
X67351810Y-37206826D01*
X67345223Y-37207171D01*
X67345218Y-37207171D01*
X67285008Y-37210327D01*
X67278414Y-37210500D01*
X67258380Y-37210500D01*
X67255106Y-37210844D01*
X67255107Y-37210844D01*
X67238454Y-37212594D01*
X67231880Y-37213111D01*
X67171679Y-37216266D01*
X67171675Y-37216267D01*
X67165085Y-37216612D01*
X67158710Y-37218320D01*
X67158705Y-37218321D01*
X67151980Y-37220123D01*
X67132537Y-37223727D01*
X67119044Y-37225145D01*
X67055386Y-37245828D01*
X67049138Y-37247680D01*
X66984476Y-37265006D01*
X66972384Y-37271167D01*
X66954125Y-37278730D01*
X66941215Y-37282925D01*
X66902329Y-37305376D01*
X66883276Y-37316376D01*
X66877480Y-37319523D01*
X66817875Y-37349893D01*
X66811476Y-37355075D01*
X66807330Y-37358432D01*
X66791045Y-37369625D01*
X66784998Y-37373116D01*
X66784995Y-37373119D01*
X66779285Y-37376415D01*
X66774385Y-37380827D01*
X66774381Y-37380830D01*
X66757527Y-37396006D01*
X66739213Y-37412497D01*
X66729575Y-37421175D01*
X66724554Y-37425463D01*
X66716047Y-37432352D01*
X66708994Y-37438063D01*
X66694847Y-37452210D01*
X66690063Y-37456751D01*
X66645741Y-37496659D01*
X66640331Y-37501530D01*
X66632348Y-37512518D01*
X66619511Y-37527546D01*
X64530118Y-39616939D01*
X64467806Y-39650965D01*
X64418928Y-39651891D01*
X64320345Y-39634331D01*
X64273046Y-39625905D01*
X64273044Y-39625905D01*
X64267959Y-39624999D01*
X64187958Y-39624022D01*
X64032903Y-39622127D01*
X64032901Y-39622127D01*
X64027733Y-39622064D01*
X63790252Y-39658404D01*
X63677999Y-39695094D01*
X63566813Y-39731434D01*
X63566807Y-39731437D01*
X63561895Y-39733042D01*
X63557309Y-39735429D01*
X63557305Y-39735431D01*
X63376550Y-39829527D01*
X63306890Y-39843240D01*
X63240875Y-39817115D01*
X63199463Y-39759447D01*
X63195804Y-39688545D01*
X63229274Y-39628669D01*
X65990238Y-36867705D01*
X66052550Y-36833679D01*
X66079333Y-36830800D01*
X66613279Y-36830799D01*
X66633416Y-36830799D01*
X66638117Y-36830529D01*
X66811738Y-36790445D01*
X66972165Y-36712892D01*
X67006892Y-36685170D01*
X67105920Y-36606116D01*
X67111423Y-36601723D01*
X67222592Y-36462465D01*
X67300145Y-36302038D01*
X67340229Y-36128417D01*
X67340500Y-36123717D01*
X67340499Y-35377884D01*
X67340229Y-35373183D01*
X67300145Y-35199562D01*
X67222592Y-35039135D01*
X67111423Y-34899877D01*
X67105920Y-34895484D01*
X67100937Y-34890501D01*
X67103039Y-34888399D01*
X67069902Y-34841131D01*
X67067047Y-34770192D01*
X67101448Y-34711610D01*
X67100937Y-34711099D01*
X67102903Y-34709133D01*
X67102998Y-34708971D01*
X67103500Y-34708536D01*
X67105920Y-34706116D01*
X67111423Y-34701723D01*
X67222592Y-34562465D01*
X67300145Y-34402038D01*
X67340229Y-34228417D01*
X67340500Y-34223717D01*
X67340499Y-33477884D01*
X67340229Y-33473183D01*
X67300145Y-33299562D01*
X67222592Y-33139135D01*
X67114029Y-33003141D01*
X67087161Y-32937424D01*
X67086500Y-32924532D01*
X67086500Y-31868406D01*
X67110177Y-31794880D01*
X67241997Y-31611433D01*
X67249416Y-31596423D01*
X67315404Y-31462904D01*
X67343816Y-31405417D01*
X67366312Y-31331375D01*
X67409117Y-31190491D01*
X67409118Y-31190485D01*
X67410621Y-31185539D01*
X67440616Y-30957702D01*
X67442290Y-30889200D01*
X67432141Y-30765756D01*
X67423884Y-30665321D01*
X67423883Y-30665315D01*
X67423460Y-30660170D01*
X67367477Y-30437290D01*
X67275843Y-30226547D01*
X67273037Y-30222209D01*
X67153830Y-30037943D01*
X67153828Y-30037940D01*
X67151020Y-30033600D01*
X67033866Y-29904849D01*
X66999837Y-29867452D01*
X66999835Y-29867451D01*
X66996359Y-29863630D01*
X66992308Y-29860431D01*
X66992304Y-29860427D01*
X66820073Y-29724408D01*
X66816015Y-29721203D01*
X66614831Y-29610143D01*
X66497611Y-29568633D01*
X66403084Y-29535159D01*
X66403080Y-29535158D01*
X66398209Y-29533433D01*
X66393116Y-29532526D01*
X66393113Y-29532525D01*
X66177056Y-29494039D01*
X66177050Y-29494038D01*
X66171967Y-29493133D01*
X66098784Y-29492239D01*
X65947351Y-29490389D01*
X65947349Y-29490389D01*
X65942181Y-29490326D01*
X65790610Y-29513519D01*
X65720131Y-29524304D01*
X65720128Y-29524305D01*
X65715022Y-29525086D01*
X65710110Y-29526691D01*
X65710112Y-29526691D01*
X65501504Y-29594875D01*
X65501502Y-29594876D01*
X65496591Y-29596481D01*
X65292753Y-29702592D01*
X65288620Y-29705695D01*
X65288617Y-29705697D01*
X65122922Y-29830104D01*
X65108983Y-29840570D01*
X64950216Y-30006710D01*
X64947302Y-30010982D01*
X64947301Y-30010983D01*
X64859840Y-30139197D01*
X64820716Y-30196550D01*
X64772338Y-30300771D01*
X64727690Y-30396959D01*
X64723961Y-30404992D01*
X64662548Y-30626437D01*
X64638129Y-30854939D01*
X64638426Y-30860092D01*
X64638426Y-30860095D01*
X64639629Y-30880962D01*
X64651357Y-31084361D01*
X64652492Y-31089398D01*
X64652493Y-31089404D01*
X64686565Y-31240594D01*
X64701878Y-31308542D01*
X64788336Y-31521461D01*
X64791033Y-31525862D01*
X64791034Y-31525864D01*
X64887096Y-31682622D01*
X64908408Y-31717400D01*
X64996741Y-31819375D01*
X65022738Y-31849387D01*
X65052220Y-31913973D01*
X65053500Y-31931884D01*
X65053500Y-32924532D01*
X65033498Y-32992653D01*
X65025971Y-33003141D01*
X64917408Y-33139135D01*
X64839855Y-33299562D01*
X64799771Y-33473183D01*
X64799500Y-33477883D01*
X64799501Y-34223716D01*
X64799771Y-34228417D01*
X64839855Y-34402038D01*
X64917408Y-34562465D01*
X65028577Y-34701723D01*
X65034080Y-34706116D01*
X65039063Y-34711099D01*
X65036961Y-34713201D01*
X65070098Y-34760469D01*
X65072953Y-34831408D01*
X65038552Y-34889990D01*
X65039063Y-34890501D01*
X65037097Y-34892467D01*
X65037002Y-34892629D01*
X65036500Y-34893064D01*
X65034080Y-34895484D01*
X65028577Y-34899877D01*
X64917408Y-35039135D01*
X64839855Y-35199562D01*
X64799771Y-35373183D01*
X64799500Y-35377883D01*
X64799500Y-35490367D01*
X64779498Y-35558488D01*
X64762595Y-35579462D01*
X61017546Y-39324511D01*
X61002518Y-39337348D01*
X60991530Y-39345331D01*
X60987117Y-39350233D01*
X60987115Y-39350234D01*
X60946751Y-39395063D01*
X60942210Y-39399847D01*
X60928063Y-39413994D01*
X60925986Y-39416559D01*
X60915463Y-39429554D01*
X60911175Y-39434575D01*
X60870830Y-39479381D01*
X60870827Y-39479385D01*
X60866415Y-39484285D01*
X60863119Y-39489995D01*
X60863116Y-39489998D01*
X60859625Y-39496045D01*
X60848432Y-39512330D01*
X60839893Y-39522875D01*
X60813813Y-39574060D01*
X60809523Y-39582480D01*
X60806376Y-39588276D01*
X60772925Y-39646215D01*
X60768731Y-39659123D01*
X60761167Y-39677384D01*
X60755006Y-39689476D01*
X60753296Y-39695859D01*
X60737691Y-39754094D01*
X60735818Y-39760418D01*
X60715145Y-39824044D01*
X60714455Y-39830611D01*
X60714454Y-39830615D01*
X60713728Y-39837529D01*
X60710125Y-39856972D01*
X60706611Y-39870085D01*
X60706271Y-39876566D01*
X60675877Y-39940680D01*
X60657494Y-39957576D01*
X60642985Y-39968470D01*
X60616676Y-39988223D01*
X60546587Y-40061567D01*
X60464723Y-40147233D01*
X60450695Y-40161912D01*
X60425461Y-40198903D01*
X60370552Y-40243904D01*
X60300028Y-40252075D01*
X60236280Y-40220821D01*
X60215585Y-40196340D01*
X60214307Y-40194365D01*
X60211498Y-40190023D01*
X60049810Y-40012330D01*
X59987408Y-39963048D01*
X59946345Y-39905131D01*
X59939500Y-39864166D01*
X59939500Y-39160633D01*
X59959502Y-39092512D01*
X59976405Y-39071538D01*
X62197454Y-36850489D01*
X62212481Y-36837653D01*
X62215126Y-36835731D01*
X62260848Y-36814892D01*
X62366738Y-36790445D01*
X62527165Y-36712892D01*
X62561892Y-36685170D01*
X62660920Y-36606116D01*
X62666423Y-36601723D01*
X62777592Y-36462465D01*
X62855145Y-36302038D01*
X62895229Y-36128417D01*
X62895500Y-36123717D01*
X62895499Y-35377884D01*
X62895229Y-35373183D01*
X62855145Y-35199562D01*
X62777592Y-35039135D01*
X62666423Y-34899877D01*
X62660920Y-34895484D01*
X62655937Y-34890501D01*
X62658039Y-34888399D01*
X62624902Y-34841131D01*
X62622047Y-34770192D01*
X62656448Y-34711610D01*
X62655937Y-34711099D01*
X62657903Y-34709133D01*
X62657998Y-34708971D01*
X62658500Y-34708536D01*
X62660920Y-34706116D01*
X62666423Y-34701723D01*
X62777592Y-34562465D01*
X62855145Y-34402038D01*
X62895229Y-34228417D01*
X62895500Y-34223717D01*
X62895499Y-33477884D01*
X62895229Y-33473183D01*
X62855145Y-33299562D01*
X62777592Y-33139135D01*
X62669029Y-33003141D01*
X62642161Y-32937424D01*
X62641500Y-32924532D01*
X62641500Y-31868406D01*
X62665177Y-31794880D01*
X62796997Y-31611433D01*
X62804416Y-31596423D01*
X62870404Y-31462904D01*
X62898816Y-31405417D01*
X62921312Y-31331375D01*
X62964117Y-31190491D01*
X62964118Y-31190485D01*
X62965621Y-31185539D01*
X62995616Y-30957702D01*
X62997290Y-30889200D01*
X62987141Y-30765756D01*
X62978884Y-30665321D01*
X62978883Y-30665315D01*
X62978460Y-30660170D01*
X62922477Y-30437290D01*
X62830843Y-30226547D01*
X62828037Y-30222209D01*
X62708830Y-30037943D01*
X62708828Y-30037940D01*
X62706020Y-30033600D01*
X62588866Y-29904849D01*
X62554837Y-29867452D01*
X62554835Y-29867451D01*
X62551359Y-29863630D01*
X62547308Y-29860431D01*
X62547304Y-29860427D01*
X62375073Y-29724408D01*
X62371015Y-29721203D01*
X62169831Y-29610143D01*
X62052611Y-29568633D01*
X61958084Y-29535159D01*
X61958080Y-29535158D01*
X61953209Y-29533433D01*
X61948116Y-29532526D01*
X61948113Y-29532525D01*
X61732056Y-29494039D01*
X61732050Y-29494038D01*
X61726967Y-29493133D01*
X61653784Y-29492239D01*
X61502351Y-29490389D01*
X61502349Y-29490389D01*
X61497181Y-29490326D01*
X61345610Y-29513519D01*
X61275131Y-29524304D01*
X61275128Y-29524305D01*
X61270022Y-29525086D01*
X61265110Y-29526691D01*
X61265112Y-29526691D01*
X61056504Y-29594875D01*
X61056502Y-29594876D01*
X61051591Y-29596481D01*
X60847753Y-29702592D01*
X60843620Y-29705695D01*
X60843617Y-29705697D01*
X60677922Y-29830104D01*
X60663983Y-29840570D01*
X60505216Y-30006710D01*
X60502302Y-30010982D01*
X60502301Y-30010983D01*
X60414840Y-30139197D01*
X60375716Y-30196550D01*
X60327338Y-30300771D01*
X60282690Y-30396959D01*
X60278961Y-30404992D01*
X60217548Y-30626437D01*
X60193129Y-30854939D01*
X60193426Y-30860092D01*
X60193426Y-30860095D01*
X60194629Y-30880962D01*
X60206357Y-31084361D01*
X60207492Y-31089398D01*
X60207493Y-31089404D01*
X60241565Y-31240594D01*
X60256878Y-31308542D01*
X60343336Y-31521461D01*
X60346033Y-31525862D01*
X60346034Y-31525864D01*
X60442096Y-31682622D01*
X60463408Y-31717400D01*
X60551741Y-31819375D01*
X60577738Y-31849387D01*
X60607220Y-31913973D01*
X60608500Y-31931884D01*
X60608500Y-32924532D01*
X60588498Y-32992653D01*
X60580971Y-33003141D01*
X60472408Y-33139135D01*
X60394855Y-33299562D01*
X60354771Y-33473183D01*
X60354500Y-33477883D01*
X60354501Y-34223716D01*
X60354771Y-34228417D01*
X60394855Y-34402038D01*
X60472408Y-34562465D01*
X60583577Y-34701723D01*
X60589080Y-34706116D01*
X60594063Y-34711099D01*
X60591961Y-34713201D01*
X60625098Y-34760469D01*
X60627953Y-34831408D01*
X60593552Y-34889990D01*
X60594063Y-34890501D01*
X60592097Y-34892467D01*
X60592002Y-34892629D01*
X60591500Y-34893064D01*
X60589080Y-34895484D01*
X60583577Y-34899877D01*
X60472408Y-35039135D01*
X60394855Y-35199562D01*
X60354771Y-35373183D01*
X60354500Y-35377883D01*
X60354501Y-36123716D01*
X60353967Y-36123716D01*
X60336454Y-36190374D01*
X60317642Y-36214415D01*
X58477546Y-38054511D01*
X58462518Y-38067348D01*
X58451530Y-38075331D01*
X58447117Y-38080233D01*
X58447115Y-38080234D01*
X58406751Y-38125063D01*
X58402210Y-38129847D01*
X58388063Y-38143994D01*
X58385986Y-38146559D01*
X58375463Y-38159554D01*
X58371181Y-38164568D01*
X58368408Y-38167648D01*
X58330830Y-38209381D01*
X58330827Y-38209385D01*
X58326415Y-38214285D01*
X58323119Y-38219995D01*
X58323116Y-38219998D01*
X58319625Y-38226045D01*
X58308432Y-38242330D01*
X58299893Y-38252875D01*
X58290155Y-38271988D01*
X58269523Y-38312480D01*
X58266376Y-38318276D01*
X58232925Y-38376215D01*
X58230884Y-38382497D01*
X58228731Y-38389123D01*
X58221167Y-38407384D01*
X58215006Y-38419476D01*
X58204814Y-38457512D01*
X58197691Y-38484094D01*
X58195818Y-38490418D01*
X58175145Y-38554044D01*
X58174455Y-38560611D01*
X58174454Y-38560615D01*
X58173728Y-38567529D01*
X58170125Y-38586972D01*
X58166611Y-38600085D01*
X58166265Y-38606682D01*
X58166265Y-38606684D01*
X58163110Y-38666887D01*
X58162593Y-38673461D01*
X58160500Y-38693380D01*
X58160500Y-38713407D01*
X58160327Y-38720001D01*
X58156826Y-38786810D01*
X58157858Y-38793325D01*
X58157858Y-38793327D01*
X58158949Y-38800214D01*
X58160500Y-38819925D01*
X58160500Y-39862328D01*
X58140498Y-39930449D01*
X58110154Y-39963087D01*
X58076676Y-39988223D01*
X58006587Y-40061567D01*
X57924723Y-40147233D01*
X57910695Y-40161912D01*
X57885461Y-40198903D01*
X57830552Y-40243904D01*
X57760028Y-40252075D01*
X57696280Y-40220821D01*
X57675585Y-40196340D01*
X57674307Y-40194365D01*
X57671498Y-40190023D01*
X57509810Y-40012330D01*
X57447408Y-39963048D01*
X57406345Y-39905131D01*
X57399500Y-39864166D01*
X57399500Y-38525633D01*
X57419502Y-38457512D01*
X57436405Y-38436538D01*
X57752454Y-38120489D01*
X57767482Y-38107652D01*
X57778470Y-38099669D01*
X57786271Y-38091006D01*
X57823249Y-38049937D01*
X57827790Y-38045153D01*
X57841937Y-38031006D01*
X57854537Y-38015446D01*
X57858825Y-38010425D01*
X57867874Y-38000376D01*
X57884307Y-37982125D01*
X57899170Y-37965619D01*
X57899173Y-37965615D01*
X57903585Y-37960715D01*
X57906881Y-37955005D01*
X57906884Y-37955002D01*
X57910375Y-37948955D01*
X57921568Y-37932670D01*
X57925950Y-37927258D01*
X57930107Y-37922125D01*
X57960477Y-37862520D01*
X57963624Y-37856724D01*
X57971960Y-37842285D01*
X57997075Y-37798785D01*
X58001270Y-37785875D01*
X58008833Y-37767616D01*
X58014994Y-37755524D01*
X58032320Y-37690862D01*
X58034172Y-37684614D01*
X58054855Y-37620956D01*
X58056273Y-37607463D01*
X58059877Y-37588020D01*
X58061679Y-37581295D01*
X58061680Y-37581290D01*
X58063388Y-37574915D01*
X58064931Y-37545489D01*
X58066889Y-37508120D01*
X58067406Y-37501546D01*
X58069156Y-37484893D01*
X58069500Y-37481620D01*
X58069500Y-37461586D01*
X58069673Y-37454992D01*
X58072829Y-37394782D01*
X58072829Y-37394777D01*
X58073174Y-37388190D01*
X58071948Y-37380446D01*
X58071051Y-37374786D01*
X58069500Y-37355075D01*
X58069500Y-36783641D01*
X58089502Y-36715520D01*
X58116891Y-36685170D01*
X58117394Y-36684769D01*
X58221423Y-36601723D01*
X58332592Y-36462465D01*
X58410145Y-36302038D01*
X58450229Y-36128417D01*
X58450500Y-36123717D01*
X58450499Y-35377884D01*
X58450229Y-35373183D01*
X58410145Y-35199562D01*
X58332592Y-35039135D01*
X58221423Y-34899877D01*
X58215920Y-34895484D01*
X58210937Y-34890501D01*
X58213039Y-34888399D01*
X58179902Y-34841131D01*
X58177047Y-34770192D01*
X58211448Y-34711610D01*
X58210937Y-34711099D01*
X58212903Y-34709133D01*
X58212998Y-34708971D01*
X58213500Y-34708536D01*
X58215920Y-34706116D01*
X58221423Y-34701723D01*
X58332592Y-34562465D01*
X58410145Y-34402038D01*
X58450229Y-34228417D01*
X58450500Y-34223717D01*
X58450499Y-33477884D01*
X58450229Y-33473183D01*
X58410145Y-33299562D01*
X58332592Y-33139135D01*
X58224029Y-33003141D01*
X58197161Y-32937424D01*
X58196500Y-32924532D01*
X58196500Y-31868407D01*
X58220180Y-31794878D01*
X58229614Y-31781750D01*
X58239551Y-31769598D01*
X58255227Y-31752698D01*
X58300997Y-31682620D01*
X58304166Y-31677997D01*
X58348979Y-31615633D01*
X58348980Y-31615632D01*
X58351997Y-31611433D01*
X58354292Y-31606790D01*
X58362668Y-31589843D01*
X58370132Y-31576769D01*
X58374908Y-31569456D01*
X58384916Y-31554134D01*
X58387040Y-31549238D01*
X58387043Y-31549232D01*
X58416673Y-31480924D01*
X58419309Y-31475238D01*
X58451527Y-31410050D01*
X58451530Y-31410042D01*
X58453816Y-31405417D01*
X58461985Y-31378531D01*
X58466949Y-31365019D01*
X58479295Y-31336557D01*
X58497334Y-31262838D01*
X58499164Y-31256159D01*
X58520621Y-31185539D01*
X58524814Y-31153690D01*
X58527347Y-31140188D01*
X58534397Y-31111375D01*
X58535666Y-31106190D01*
X58540749Y-31034404D01*
X58541512Y-31026857D01*
X58550179Y-30961023D01*
X58550179Y-30961019D01*
X58550616Y-30957702D01*
X58552290Y-30889200D01*
X58552015Y-30885854D01*
X58551979Y-30884603D01*
X58552096Y-30879023D01*
X58552039Y-30874941D01*
X58552416Y-30869617D01*
X58551891Y-30864311D01*
X58551891Y-30864305D01*
X58542242Y-30766771D01*
X58542054Y-30764693D01*
X58537924Y-30714467D01*
X58537500Y-30704141D01*
X58537500Y-29909299D01*
X58537815Y-29900400D01*
X58542039Y-29840745D01*
X58542039Y-29840742D01*
X58542416Y-29835417D01*
X58538112Y-29791912D01*
X58537500Y-29779507D01*
X58537500Y-27940713D01*
X58542083Y-27907041D01*
X58578650Y-27775185D01*
X58580032Y-27770202D01*
X58600992Y-27574072D01*
X58600992Y-27053598D01*
X58599816Y-27039285D01*
X58586738Y-26880224D01*
X58586314Y-26875063D01*
X58527786Y-26642056D01*
X58431989Y-26421737D01*
X58301494Y-26220023D01*
X58298012Y-26216196D01*
X58209844Y-26119300D01*
X58178792Y-26055454D01*
X58187187Y-25984955D01*
X58232363Y-25930187D01*
X58303037Y-25908500D01*
X82333875Y-25908500D01*
X82401996Y-25928502D01*
G37*
%TD.AperFunction*%
%TA.AperFunction,Conductor*%
G36*
X53504957Y-25928502D02*
G01*
X53551450Y-25982158D01*
X53561554Y-26052432D01*
X53527929Y-26121551D01*
X53460691Y-26191912D01*
X53325306Y-26390378D01*
X53323132Y-26395061D01*
X53323130Y-26395065D01*
X53226334Y-26603595D01*
X53224155Y-26608290D01*
X53159952Y-26839798D01*
X53138992Y-27035928D01*
X53138992Y-27556402D01*
X53139204Y-27558975D01*
X53139204Y-27558986D01*
X53140719Y-27577407D01*
X53153670Y-27734937D01*
X53154931Y-27739956D01*
X53206214Y-27944119D01*
X53212198Y-27967944D01*
X53307995Y-28188263D01*
X53438490Y-28389977D01*
X53600178Y-28567670D01*
X53609143Y-28574750D01*
X53784662Y-28713367D01*
X53784667Y-28713370D01*
X53788716Y-28716568D01*
X53793232Y-28719061D01*
X53793235Y-28719063D01*
X53994518Y-28830177D01*
X53994522Y-28830179D01*
X53999042Y-28832674D01*
X54003911Y-28834398D01*
X54003915Y-28834400D01*
X54192439Y-28901160D01*
X54239474Y-28930838D01*
X55705595Y-30396959D01*
X55739621Y-30459271D01*
X55742500Y-30486054D01*
X55742500Y-30824901D01*
X55742185Y-30833800D01*
X55738025Y-30892560D01*
X55737584Y-30898783D01*
X55748214Y-31006230D01*
X55748370Y-31007932D01*
X55757499Y-31115515D01*
X55758841Y-31120686D01*
X55759612Y-31125198D01*
X55760406Y-31129483D01*
X55760932Y-31134795D01*
X55764246Y-31146868D01*
X55789508Y-31238894D01*
X55789962Y-31240594D01*
X55795736Y-31262841D01*
X55817080Y-31345074D01*
X55819272Y-31349940D01*
X55820744Y-31354120D01*
X55822302Y-31358354D01*
X55823714Y-31363499D01*
X55825972Y-31368331D01*
X55825976Y-31368341D01*
X55869425Y-31461307D01*
X55870158Y-31462904D01*
X55909047Y-31549232D01*
X55914488Y-31561311D01*
X55917468Y-31565738D01*
X55919659Y-31569674D01*
X55921870Y-31573518D01*
X55924131Y-31578356D01*
X55947078Y-31611433D01*
X55985650Y-31667034D01*
X55986644Y-31668488D01*
X56005089Y-31695886D01*
X56008000Y-31700416D01*
X56018408Y-31717400D01*
X56021789Y-31721303D01*
X56024847Y-31725481D01*
X56024699Y-31725590D01*
X56027910Y-31729784D01*
X56043955Y-31753617D01*
X56043960Y-31753624D01*
X56046937Y-31758045D01*
X56050617Y-31761903D01*
X56053964Y-31766065D01*
X56053843Y-31766162D01*
X56054252Y-31766651D01*
X56054363Y-31766562D01*
X56056951Y-31769813D01*
X56059315Y-31773221D01*
X56062102Y-31776284D01*
X56062106Y-31776289D01*
X56075052Y-31790517D01*
X56075064Y-31790530D01*
X56076058Y-31791622D01*
X56122516Y-31838080D01*
X56128659Y-31844678D01*
X56132738Y-31849387D01*
X56162220Y-31913973D01*
X56163500Y-31931884D01*
X56163500Y-32924532D01*
X56143498Y-32992653D01*
X56135971Y-33003141D01*
X56027408Y-33139135D01*
X55949855Y-33299562D01*
X55909771Y-33473183D01*
X55909500Y-33477883D01*
X55909501Y-34223716D01*
X55909771Y-34228417D01*
X55949855Y-34402038D01*
X56027408Y-34562465D01*
X56138577Y-34701723D01*
X56144080Y-34706116D01*
X56149063Y-34711099D01*
X56146961Y-34713201D01*
X56180098Y-34760469D01*
X56182953Y-34831408D01*
X56148552Y-34889990D01*
X56149063Y-34890501D01*
X56147097Y-34892467D01*
X56147002Y-34892629D01*
X56146500Y-34893064D01*
X56144080Y-34895484D01*
X56138577Y-34899877D01*
X56027408Y-35039135D01*
X55949855Y-35199562D01*
X55909771Y-35373183D01*
X55909500Y-35377883D01*
X55909501Y-36123716D01*
X55909771Y-36128417D01*
X55949855Y-36302038D01*
X56027408Y-36462465D01*
X56138577Y-36601723D01*
X56242607Y-36684769D01*
X56243109Y-36685170D01*
X56283868Y-36743301D01*
X56290500Y-36783641D01*
X56290500Y-37014367D01*
X56270498Y-37082488D01*
X56253595Y-37103462D01*
X55937546Y-37419511D01*
X55922518Y-37432348D01*
X55911530Y-37440331D01*
X55907117Y-37445233D01*
X55907115Y-37445234D01*
X55866751Y-37490063D01*
X55862210Y-37494847D01*
X55848063Y-37508994D01*
X55845986Y-37511559D01*
X55835463Y-37524554D01*
X55831175Y-37529575D01*
X55790830Y-37574381D01*
X55790827Y-37574385D01*
X55786415Y-37579285D01*
X55783119Y-37584995D01*
X55783116Y-37584998D01*
X55779625Y-37591045D01*
X55768432Y-37607330D01*
X55759893Y-37617875D01*
X55734623Y-37667471D01*
X55729523Y-37677480D01*
X55726376Y-37683276D01*
X55692925Y-37741215D01*
X55688731Y-37754123D01*
X55681167Y-37772384D01*
X55675006Y-37784476D01*
X55661080Y-37836448D01*
X55657691Y-37849094D01*
X55655818Y-37855418D01*
X55635145Y-37919044D01*
X55634455Y-37925611D01*
X55634454Y-37925615D01*
X55633728Y-37932529D01*
X55630125Y-37951972D01*
X55626611Y-37965085D01*
X55626265Y-37971682D01*
X55626265Y-37971684D01*
X55623110Y-38031887D01*
X55622593Y-38038461D01*
X55620844Y-38055105D01*
X55620500Y-38058380D01*
X55620500Y-38078407D01*
X55620327Y-38085001D01*
X55617236Y-38143994D01*
X55616826Y-38151810D01*
X55617858Y-38158325D01*
X55617858Y-38158327D01*
X55618949Y-38165214D01*
X55620500Y-38184925D01*
X55620500Y-39862328D01*
X55600498Y-39930449D01*
X55570154Y-39963087D01*
X55536676Y-39988223D01*
X55466587Y-40061567D01*
X55384723Y-40147233D01*
X55370695Y-40161912D01*
X55345461Y-40198903D01*
X55290552Y-40243904D01*
X55220028Y-40252075D01*
X55156280Y-40220821D01*
X55135585Y-40196340D01*
X55134307Y-40194365D01*
X55131498Y-40190023D01*
X54969810Y-40012330D01*
X54907408Y-39963048D01*
X54866345Y-39905131D01*
X54859500Y-39864166D01*
X54859500Y-38174925D01*
X54861051Y-38155214D01*
X54862142Y-38148327D01*
X54862142Y-38148325D01*
X54863174Y-38141810D01*
X54862548Y-38129847D01*
X54859673Y-38075001D01*
X54859500Y-38068407D01*
X54859500Y-38048380D01*
X54858114Y-38035192D01*
X54857407Y-38028461D01*
X54856890Y-38021887D01*
X54853735Y-37961684D01*
X54853735Y-37961682D01*
X54853389Y-37955085D01*
X54849875Y-37941972D01*
X54846272Y-37922529D01*
X54845546Y-37915615D01*
X54845545Y-37915611D01*
X54844855Y-37909044D01*
X54824182Y-37845418D01*
X54822309Y-37839094D01*
X54808049Y-37785877D01*
X54804994Y-37774476D01*
X54798833Y-37762384D01*
X54791269Y-37744123D01*
X54789116Y-37737497D01*
X54787075Y-37731215D01*
X54753624Y-37673276D01*
X54750477Y-37667480D01*
X54733884Y-37634915D01*
X54720107Y-37607875D01*
X54711568Y-37597330D01*
X54700375Y-37581045D01*
X54696884Y-37574998D01*
X54696881Y-37574995D01*
X54693585Y-37569285D01*
X54689173Y-37564385D01*
X54689170Y-37564381D01*
X54656901Y-37528544D01*
X54648819Y-37519568D01*
X54644537Y-37514554D01*
X54634014Y-37501559D01*
X54631937Y-37498994D01*
X54617790Y-37484847D01*
X54613249Y-37480063D01*
X54572885Y-37435234D01*
X54572883Y-37435233D01*
X54568470Y-37430331D01*
X54557482Y-37422348D01*
X54542454Y-37409511D01*
X53837547Y-36704604D01*
X53803521Y-36642292D01*
X53808586Y-36571477D01*
X53828171Y-36536900D01*
X53883195Y-36467973D01*
X53887592Y-36462465D01*
X53965145Y-36302038D01*
X54005229Y-36128417D01*
X54005500Y-36123717D01*
X54005499Y-35377884D01*
X54005229Y-35373183D01*
X53965145Y-35199562D01*
X53887592Y-35039135D01*
X53776423Y-34899877D01*
X53770920Y-34895484D01*
X53765937Y-34890501D01*
X53768039Y-34888399D01*
X53734902Y-34841131D01*
X53732047Y-34770192D01*
X53766448Y-34711610D01*
X53765937Y-34711099D01*
X53767903Y-34709133D01*
X53767998Y-34708971D01*
X53768500Y-34708536D01*
X53770920Y-34706116D01*
X53776423Y-34701723D01*
X53887592Y-34562465D01*
X53965145Y-34402038D01*
X54005229Y-34228417D01*
X54005500Y-34223717D01*
X54005499Y-33477884D01*
X54005229Y-33473183D01*
X53965145Y-33299562D01*
X53887592Y-33139135D01*
X53779029Y-33003141D01*
X53752161Y-32937424D01*
X53751500Y-32924532D01*
X53751500Y-31868406D01*
X53775177Y-31794880D01*
X53906997Y-31611433D01*
X53914416Y-31596423D01*
X53980404Y-31462904D01*
X54008816Y-31405417D01*
X54031312Y-31331375D01*
X54074117Y-31190491D01*
X54074118Y-31190485D01*
X54075621Y-31185539D01*
X54105616Y-30957702D01*
X54107290Y-30889200D01*
X54097141Y-30765756D01*
X54088884Y-30665321D01*
X54088883Y-30665315D01*
X54088460Y-30660170D01*
X54032477Y-30437290D01*
X53940843Y-30226547D01*
X53938037Y-30222209D01*
X53818830Y-30037943D01*
X53818828Y-30037940D01*
X53816020Y-30033600D01*
X53698866Y-29904849D01*
X53664837Y-29867452D01*
X53664835Y-29867451D01*
X53661359Y-29863630D01*
X53657308Y-29860431D01*
X53657304Y-29860427D01*
X53485073Y-29724408D01*
X53481015Y-29721203D01*
X53279831Y-29610143D01*
X53162611Y-29568633D01*
X53068084Y-29535159D01*
X53068080Y-29535158D01*
X53063209Y-29533433D01*
X53058116Y-29532526D01*
X53058113Y-29532525D01*
X52842056Y-29494039D01*
X52842050Y-29494038D01*
X52836967Y-29493133D01*
X52763784Y-29492239D01*
X52612351Y-29490389D01*
X52612349Y-29490389D01*
X52607181Y-29490326D01*
X52455610Y-29513519D01*
X52385131Y-29524304D01*
X52385128Y-29524305D01*
X52380022Y-29525086D01*
X52375110Y-29526691D01*
X52375112Y-29526691D01*
X52166504Y-29594875D01*
X52166502Y-29594876D01*
X52161591Y-29596481D01*
X51957753Y-29702592D01*
X51953620Y-29705695D01*
X51953617Y-29705697D01*
X51787922Y-29830104D01*
X51773983Y-29840570D01*
X51615216Y-30006710D01*
X51612302Y-30010982D01*
X51612301Y-30010983D01*
X51524840Y-30139197D01*
X51485716Y-30196550D01*
X51437338Y-30300771D01*
X51392690Y-30396959D01*
X51388961Y-30404992D01*
X51327548Y-30626437D01*
X51303129Y-30854939D01*
X51303426Y-30860092D01*
X51303426Y-30860095D01*
X51304629Y-30880962D01*
X51316357Y-31084361D01*
X51317492Y-31089398D01*
X51317493Y-31089404D01*
X51351565Y-31240594D01*
X51366878Y-31308542D01*
X51453336Y-31521461D01*
X51456033Y-31525862D01*
X51456034Y-31525864D01*
X51552096Y-31682622D01*
X51573408Y-31717400D01*
X51661741Y-31819375D01*
X51687738Y-31849387D01*
X51717220Y-31913973D01*
X51718500Y-31931884D01*
X51718500Y-32924532D01*
X51698498Y-32992653D01*
X51690971Y-33003141D01*
X51582408Y-33139135D01*
X51504855Y-33299562D01*
X51464771Y-33473183D01*
X51464500Y-33477883D01*
X51464501Y-34223716D01*
X51464771Y-34228417D01*
X51504855Y-34402038D01*
X51582408Y-34562465D01*
X51693577Y-34701723D01*
X51699080Y-34706116D01*
X51704063Y-34711099D01*
X51701961Y-34713201D01*
X51735098Y-34760469D01*
X51737953Y-34831408D01*
X51703552Y-34889990D01*
X51704063Y-34890501D01*
X51702097Y-34892467D01*
X51702002Y-34892629D01*
X51701500Y-34893064D01*
X51699080Y-34895484D01*
X51693577Y-34899877D01*
X51582408Y-35039135D01*
X51504855Y-35199562D01*
X51464771Y-35373183D01*
X51464500Y-35377883D01*
X51464501Y-36123716D01*
X51464771Y-36128417D01*
X51504855Y-36302038D01*
X51582408Y-36462465D01*
X51693577Y-36601723D01*
X51797610Y-36684772D01*
X51838367Y-36742901D01*
X51843203Y-36800071D01*
X51843204Y-36800071D01*
X51843204Y-36800079D01*
X51843447Y-36802956D01*
X51841826Y-36813190D01*
X51842171Y-36819778D01*
X51842171Y-36819782D01*
X51845327Y-36879999D01*
X51845500Y-36886593D01*
X51845500Y-36906620D01*
X51845844Y-36909891D01*
X51845844Y-36909895D01*
X51847593Y-36926539D01*
X51848110Y-36933113D01*
X51849656Y-36962604D01*
X51851611Y-36999915D01*
X51853320Y-37006292D01*
X51853320Y-37006293D01*
X51855124Y-37013023D01*
X51858728Y-37032470D01*
X51860145Y-37045956D01*
X51862187Y-37052240D01*
X51880818Y-37109582D01*
X51882691Y-37115906D01*
X51900006Y-37180524D01*
X51906167Y-37192616D01*
X51913730Y-37210875D01*
X51917925Y-37223785D01*
X51940738Y-37263298D01*
X51951376Y-37281724D01*
X51954523Y-37287520D01*
X51984893Y-37347125D01*
X51989050Y-37352258D01*
X51993432Y-37357670D01*
X52004625Y-37373955D01*
X52008116Y-37380002D01*
X52008119Y-37380005D01*
X52011415Y-37385715D01*
X52015827Y-37390615D01*
X52015830Y-37390619D01*
X52032841Y-37409511D01*
X52055600Y-37434786D01*
X52056175Y-37435425D01*
X52060463Y-37440446D01*
X52073063Y-37456006D01*
X52087210Y-37470153D01*
X52091751Y-37474937D01*
X52125585Y-37512513D01*
X52136530Y-37524669D01*
X52147518Y-37532652D01*
X52162546Y-37545489D01*
X53043595Y-38426538D01*
X53077621Y-38488850D01*
X53080500Y-38515633D01*
X53080500Y-39862328D01*
X53060498Y-39930449D01*
X53030154Y-39963087D01*
X52996676Y-39988223D01*
X52926587Y-40061567D01*
X52844723Y-40147233D01*
X52830695Y-40161912D01*
X52805461Y-40198903D01*
X52750552Y-40243904D01*
X52680028Y-40252075D01*
X52616280Y-40220821D01*
X52595585Y-40196340D01*
X52594307Y-40194365D01*
X52591498Y-40190023D01*
X52429810Y-40012330D01*
X52350214Y-39949469D01*
X52245326Y-39866633D01*
X52245321Y-39866630D01*
X52241272Y-39863432D01*
X52236756Y-39860939D01*
X52236753Y-39860937D01*
X52035470Y-39749823D01*
X52035466Y-39749821D01*
X52030946Y-39747326D01*
X52026077Y-39745602D01*
X52026073Y-39745600D01*
X51809356Y-39668856D01*
X51809352Y-39668855D01*
X51804481Y-39667130D01*
X51740768Y-39655781D01*
X51673773Y-39620830D01*
X49216405Y-37163462D01*
X49182379Y-37101150D01*
X49179500Y-37074367D01*
X49179500Y-36783641D01*
X49199502Y-36715520D01*
X49226891Y-36685170D01*
X49227394Y-36684769D01*
X49331423Y-36601723D01*
X49442592Y-36462465D01*
X49520145Y-36302038D01*
X49560229Y-36128417D01*
X49560500Y-36123717D01*
X49560499Y-35377884D01*
X49560229Y-35373183D01*
X49520145Y-35199562D01*
X49442592Y-35039135D01*
X49331423Y-34899877D01*
X49325920Y-34895484D01*
X49320937Y-34890501D01*
X49323039Y-34888399D01*
X49289902Y-34841131D01*
X49287047Y-34770192D01*
X49321448Y-34711610D01*
X49320937Y-34711099D01*
X49322903Y-34709133D01*
X49322998Y-34708971D01*
X49323500Y-34708536D01*
X49325920Y-34706116D01*
X49331423Y-34701723D01*
X49442592Y-34562465D01*
X49520145Y-34402038D01*
X49560229Y-34228417D01*
X49560500Y-34223717D01*
X49560499Y-33477884D01*
X49560229Y-33473183D01*
X49520145Y-33299562D01*
X49442592Y-33139135D01*
X49334029Y-33003141D01*
X49307161Y-32937424D01*
X49306500Y-32924532D01*
X49306500Y-31868406D01*
X49330177Y-31794880D01*
X49461997Y-31611433D01*
X49469416Y-31596423D01*
X49535404Y-31462904D01*
X49563816Y-31405417D01*
X49586312Y-31331375D01*
X49629117Y-31190491D01*
X49629118Y-31190485D01*
X49630621Y-31185539D01*
X49660616Y-30957702D01*
X49662290Y-30889200D01*
X49652141Y-30765756D01*
X49643884Y-30665321D01*
X49643883Y-30665315D01*
X49643460Y-30660170D01*
X49587477Y-30437290D01*
X49495843Y-30226547D01*
X49493037Y-30222209D01*
X49373830Y-30037943D01*
X49373828Y-30037940D01*
X49371020Y-30033600D01*
X49253866Y-29904849D01*
X49219837Y-29867452D01*
X49219835Y-29867451D01*
X49216359Y-29863630D01*
X49212308Y-29860431D01*
X49212304Y-29860427D01*
X49040073Y-29724408D01*
X49036015Y-29721203D01*
X48834831Y-29610143D01*
X48717611Y-29568633D01*
X48623084Y-29535159D01*
X48623080Y-29535158D01*
X48618209Y-29533433D01*
X48613116Y-29532526D01*
X48613113Y-29532525D01*
X48397056Y-29494039D01*
X48397050Y-29494038D01*
X48391967Y-29493133D01*
X48318784Y-29492239D01*
X48167351Y-29490389D01*
X48167349Y-29490389D01*
X48162181Y-29490326D01*
X48010610Y-29513519D01*
X47940131Y-29524304D01*
X47940128Y-29524305D01*
X47935022Y-29525086D01*
X47930110Y-29526691D01*
X47930112Y-29526691D01*
X47721504Y-29594875D01*
X47721502Y-29594876D01*
X47716591Y-29596481D01*
X47512753Y-29702592D01*
X47508620Y-29705695D01*
X47508617Y-29705697D01*
X47342922Y-29830104D01*
X47328983Y-29840570D01*
X47170216Y-30006710D01*
X47167302Y-30010982D01*
X47167301Y-30010983D01*
X47079840Y-30139197D01*
X47040716Y-30196550D01*
X46992338Y-30300771D01*
X46947690Y-30396959D01*
X46943961Y-30404992D01*
X46882548Y-30626437D01*
X46858129Y-30854939D01*
X46858426Y-30860092D01*
X46858426Y-30860095D01*
X46859629Y-30880962D01*
X46871357Y-31084361D01*
X46872492Y-31089398D01*
X46872493Y-31089404D01*
X46906565Y-31240594D01*
X46921878Y-31308542D01*
X47008336Y-31521461D01*
X47011033Y-31525862D01*
X47011034Y-31525864D01*
X47107096Y-31682622D01*
X47128408Y-31717400D01*
X47216741Y-31819375D01*
X47242738Y-31849387D01*
X47272220Y-31913973D01*
X47273500Y-31931884D01*
X47273500Y-32924532D01*
X47253498Y-32992653D01*
X47245971Y-33003141D01*
X47137408Y-33139135D01*
X47059855Y-33299562D01*
X47019771Y-33473183D01*
X47019500Y-33477883D01*
X47019501Y-34223716D01*
X47019771Y-34228417D01*
X47059855Y-34402038D01*
X47137408Y-34562465D01*
X47248577Y-34701723D01*
X47254080Y-34706116D01*
X47259063Y-34711099D01*
X47256961Y-34713201D01*
X47290098Y-34760469D01*
X47292953Y-34831408D01*
X47258552Y-34889990D01*
X47259063Y-34890501D01*
X47257097Y-34892467D01*
X47257002Y-34892629D01*
X47256500Y-34893064D01*
X47254080Y-34895484D01*
X47248577Y-34899877D01*
X47137408Y-35039135D01*
X47059855Y-35199562D01*
X47019771Y-35373183D01*
X47019500Y-35377883D01*
X47019501Y-36123716D01*
X47019771Y-36128417D01*
X47059855Y-36302038D01*
X47137408Y-36462465D01*
X47248577Y-36601723D01*
X47352607Y-36684769D01*
X47353109Y-36685170D01*
X47393868Y-36743301D01*
X47400500Y-36783641D01*
X47400500Y-37415075D01*
X47398949Y-37434786D01*
X47398053Y-37440446D01*
X47396826Y-37448190D01*
X47397171Y-37454778D01*
X47397171Y-37454782D01*
X47400327Y-37514999D01*
X47400500Y-37521593D01*
X47400500Y-37541620D01*
X47400844Y-37544891D01*
X47400844Y-37544895D01*
X47402593Y-37561539D01*
X47403110Y-37568113D01*
X47404925Y-37602742D01*
X47406611Y-37634915D01*
X47408320Y-37641292D01*
X47408320Y-37641293D01*
X47410124Y-37648023D01*
X47413728Y-37667470D01*
X47415145Y-37680956D01*
X47418379Y-37690908D01*
X47435818Y-37744582D01*
X47437691Y-37750906D01*
X47455006Y-37815524D01*
X47461167Y-37827616D01*
X47468730Y-37845875D01*
X47472925Y-37858785D01*
X47498314Y-37902760D01*
X47506376Y-37916724D01*
X47509523Y-37922520D01*
X47539893Y-37982125D01*
X47544050Y-37987258D01*
X47548432Y-37992670D01*
X47559625Y-38008955D01*
X47563116Y-38015002D01*
X47563119Y-38015005D01*
X47566415Y-38020715D01*
X47570827Y-38025615D01*
X47570830Y-38025619D01*
X47611175Y-38070425D01*
X47615463Y-38075446D01*
X47628063Y-38091006D01*
X47642210Y-38105153D01*
X47646751Y-38109937D01*
X47684454Y-38151810D01*
X47691530Y-38159669D01*
X47702518Y-38167652D01*
X47717546Y-38180489D01*
X48944847Y-39407790D01*
X48978873Y-39470102D01*
X48973808Y-39540917D01*
X48931261Y-39597753D01*
X48864741Y-39622564D01*
X48854213Y-39622876D01*
X48792903Y-39622127D01*
X48792901Y-39622127D01*
X48787733Y-39622064D01*
X48596906Y-39651265D01*
X48526545Y-39641797D01*
X48488753Y-39615810D01*
X45143258Y-36270315D01*
X45109232Y-36208003D01*
X45109583Y-36152875D01*
X45114028Y-36133624D01*
X45114030Y-36133611D01*
X45115229Y-36128417D01*
X45115500Y-36123717D01*
X45115499Y-35377884D01*
X45115229Y-35373183D01*
X45075145Y-35199562D01*
X44997592Y-35039135D01*
X44886423Y-34899877D01*
X44880920Y-34895484D01*
X44875937Y-34890501D01*
X44878039Y-34888399D01*
X44844902Y-34841131D01*
X44842047Y-34770192D01*
X44876448Y-34711610D01*
X44875937Y-34711099D01*
X44877903Y-34709133D01*
X44877998Y-34708971D01*
X44878500Y-34708536D01*
X44880920Y-34706116D01*
X44886423Y-34701723D01*
X44997592Y-34562465D01*
X45075145Y-34402038D01*
X45115229Y-34228417D01*
X45115500Y-34223717D01*
X45115499Y-33477884D01*
X45115229Y-33473183D01*
X45075145Y-33299562D01*
X44997592Y-33139135D01*
X44889029Y-33003141D01*
X44862161Y-32937424D01*
X44861500Y-32924532D01*
X44861500Y-31868406D01*
X44885177Y-31794880D01*
X45016997Y-31611433D01*
X45024416Y-31596423D01*
X45090404Y-31462904D01*
X45118816Y-31405417D01*
X45141312Y-31331375D01*
X45184117Y-31190491D01*
X45184118Y-31190485D01*
X45185621Y-31185539D01*
X45215616Y-30957702D01*
X45217290Y-30889200D01*
X45207141Y-30765756D01*
X45198884Y-30665321D01*
X45198883Y-30665315D01*
X45198460Y-30660170D01*
X45142477Y-30437290D01*
X45050843Y-30226547D01*
X45048037Y-30222209D01*
X44928830Y-30037943D01*
X44928828Y-30037940D01*
X44926020Y-30033600D01*
X44808866Y-29904849D01*
X44774837Y-29867452D01*
X44774835Y-29867451D01*
X44771359Y-29863630D01*
X44767308Y-29860431D01*
X44767304Y-29860427D01*
X44595073Y-29724408D01*
X44591015Y-29721203D01*
X44389831Y-29610143D01*
X44272611Y-29568633D01*
X44178084Y-29535159D01*
X44178080Y-29535158D01*
X44173209Y-29533433D01*
X44168116Y-29532526D01*
X44168113Y-29532525D01*
X43952056Y-29494039D01*
X43952050Y-29494038D01*
X43946967Y-29493133D01*
X43873784Y-29492239D01*
X43722351Y-29490389D01*
X43722349Y-29490389D01*
X43717181Y-29490326D01*
X43565610Y-29513519D01*
X43495131Y-29524304D01*
X43495128Y-29524305D01*
X43490022Y-29525086D01*
X43485110Y-29526691D01*
X43485112Y-29526691D01*
X43276504Y-29594875D01*
X43276502Y-29594876D01*
X43271591Y-29596481D01*
X43067753Y-29702592D01*
X43063620Y-29705695D01*
X43063617Y-29705697D01*
X42897922Y-29830104D01*
X42883983Y-29840570D01*
X42725216Y-30006710D01*
X42722302Y-30010982D01*
X42722301Y-30010983D01*
X42634840Y-30139197D01*
X42595716Y-30196550D01*
X42547338Y-30300771D01*
X42502690Y-30396959D01*
X42498961Y-30404992D01*
X42437548Y-30626437D01*
X42413129Y-30854939D01*
X42413426Y-30860092D01*
X42413426Y-30860095D01*
X42414629Y-30880962D01*
X42426357Y-31084361D01*
X42427492Y-31089398D01*
X42427493Y-31089404D01*
X42461565Y-31240594D01*
X42476878Y-31308542D01*
X42563336Y-31521461D01*
X42566033Y-31525862D01*
X42566034Y-31525864D01*
X42662096Y-31682622D01*
X42683408Y-31717400D01*
X42771741Y-31819375D01*
X42797738Y-31849387D01*
X42827220Y-31913973D01*
X42828500Y-31931884D01*
X42828500Y-32924532D01*
X42808498Y-32992653D01*
X42800971Y-33003141D01*
X42692408Y-33139135D01*
X42614855Y-33299562D01*
X42574771Y-33473183D01*
X42574500Y-33477883D01*
X42574501Y-34223716D01*
X42574771Y-34228417D01*
X42614855Y-34402038D01*
X42692408Y-34562465D01*
X42803577Y-34701723D01*
X42809080Y-34706116D01*
X42814063Y-34711099D01*
X42811961Y-34713201D01*
X42845098Y-34760469D01*
X42847953Y-34831408D01*
X42813552Y-34889990D01*
X42814063Y-34890501D01*
X42812097Y-34892467D01*
X42812002Y-34892629D01*
X42811500Y-34893064D01*
X42809080Y-34895484D01*
X42803577Y-34899877D01*
X42692408Y-35039135D01*
X42614855Y-35199562D01*
X42574771Y-35373183D01*
X42574500Y-35377883D01*
X42574501Y-36123716D01*
X42574771Y-36128417D01*
X42614855Y-36302038D01*
X42692408Y-36462465D01*
X42803577Y-36601723D01*
X42809080Y-36606116D01*
X42908109Y-36685170D01*
X42942835Y-36712892D01*
X43103262Y-36790445D01*
X43110124Y-36792029D01*
X43110126Y-36792030D01*
X43125577Y-36795597D01*
X43186330Y-36829273D01*
X43197210Y-36840153D01*
X43201751Y-36844937D01*
X43222251Y-36867704D01*
X43246530Y-36894669D01*
X43257518Y-36902652D01*
X43272546Y-36915489D01*
X43355602Y-36998545D01*
X43389628Y-37060857D01*
X43384563Y-37131672D01*
X43342016Y-37188508D01*
X43275496Y-37213319D01*
X43259918Y-37213467D01*
X43253085Y-37213109D01*
X43246539Y-37212593D01*
X43229895Y-37210844D01*
X43229891Y-37210844D01*
X43226620Y-37210500D01*
X43206593Y-37210500D01*
X43199999Y-37210327D01*
X43139782Y-37207171D01*
X43139778Y-37207171D01*
X43133190Y-37206826D01*
X43126675Y-37207858D01*
X43126673Y-37207858D01*
X43119786Y-37208949D01*
X43100075Y-37210500D01*
X41695632Y-37210500D01*
X41627511Y-37190498D01*
X41606541Y-37173599D01*
X40699194Y-36266251D01*
X40665170Y-36203941D01*
X40665520Y-36148814D01*
X40669029Y-36133616D01*
X40669029Y-36133613D01*
X40670229Y-36128417D01*
X40670500Y-36123717D01*
X40670499Y-35377884D01*
X40670229Y-35373183D01*
X40630145Y-35199562D01*
X40552592Y-35039135D01*
X40441423Y-34899877D01*
X40435920Y-34895484D01*
X40430937Y-34890501D01*
X40433039Y-34888399D01*
X40399902Y-34841131D01*
X40397047Y-34770192D01*
X40431448Y-34711610D01*
X40430937Y-34711099D01*
X40432903Y-34709133D01*
X40432998Y-34708971D01*
X40433500Y-34708536D01*
X40435920Y-34706116D01*
X40441423Y-34701723D01*
X40552592Y-34562465D01*
X40630145Y-34402038D01*
X40670229Y-34228417D01*
X40670500Y-34223717D01*
X40670499Y-33477884D01*
X40670229Y-33473183D01*
X40630145Y-33299562D01*
X40552592Y-33139135D01*
X40444029Y-33003141D01*
X40417161Y-32937424D01*
X40416500Y-32924532D01*
X40416500Y-31868406D01*
X40440177Y-31794880D01*
X40571997Y-31611433D01*
X40579416Y-31596423D01*
X40645404Y-31462904D01*
X40673816Y-31405417D01*
X40696312Y-31331375D01*
X40739117Y-31190491D01*
X40739118Y-31190485D01*
X40740621Y-31185539D01*
X40770616Y-30957702D01*
X40772290Y-30889200D01*
X40762141Y-30765756D01*
X40753884Y-30665321D01*
X40753883Y-30665315D01*
X40753460Y-30660170D01*
X40697477Y-30437290D01*
X40605843Y-30226547D01*
X40603037Y-30222209D01*
X40483830Y-30037943D01*
X40483828Y-30037940D01*
X40481020Y-30033600D01*
X40363866Y-29904849D01*
X40329837Y-29867452D01*
X40329835Y-29867451D01*
X40326359Y-29863630D01*
X40322308Y-29860431D01*
X40322304Y-29860427D01*
X40150073Y-29724408D01*
X40146015Y-29721203D01*
X39944831Y-29610143D01*
X39827611Y-29568633D01*
X39733084Y-29535159D01*
X39733080Y-29535158D01*
X39728209Y-29533433D01*
X39723116Y-29532526D01*
X39723113Y-29532525D01*
X39507056Y-29494039D01*
X39507050Y-29494038D01*
X39501967Y-29493133D01*
X39428784Y-29492239D01*
X39277351Y-29490389D01*
X39277349Y-29490389D01*
X39272181Y-29490326D01*
X39120610Y-29513519D01*
X39050131Y-29524304D01*
X39050128Y-29524305D01*
X39045022Y-29525086D01*
X39040110Y-29526691D01*
X39040112Y-29526691D01*
X38831504Y-29594875D01*
X38831502Y-29594876D01*
X38826591Y-29596481D01*
X38622753Y-29702592D01*
X38618620Y-29705695D01*
X38618617Y-29705697D01*
X38452922Y-29830104D01*
X38438983Y-29840570D01*
X38280216Y-30006710D01*
X38277302Y-30010982D01*
X38277301Y-30010983D01*
X38189840Y-30139197D01*
X38150716Y-30196550D01*
X38102338Y-30300771D01*
X38057690Y-30396959D01*
X38053961Y-30404992D01*
X37992548Y-30626437D01*
X37968129Y-30854939D01*
X37968426Y-30860092D01*
X37968426Y-30860095D01*
X37969629Y-30880962D01*
X37981357Y-31084361D01*
X37982492Y-31089398D01*
X37982493Y-31089404D01*
X38016565Y-31240594D01*
X38031878Y-31308542D01*
X38118336Y-31521461D01*
X38121033Y-31525862D01*
X38121034Y-31525864D01*
X38217096Y-31682622D01*
X38238408Y-31717400D01*
X38326741Y-31819375D01*
X38352738Y-31849387D01*
X38382220Y-31913973D01*
X38383500Y-31931884D01*
X38383500Y-32924532D01*
X38363498Y-32992653D01*
X38355971Y-33003141D01*
X38247408Y-33139135D01*
X38169855Y-33299562D01*
X38129771Y-33473183D01*
X38129500Y-33477883D01*
X38129501Y-34223716D01*
X38129771Y-34228417D01*
X38169855Y-34402038D01*
X38247408Y-34562465D01*
X38358577Y-34701723D01*
X38364080Y-34706116D01*
X38369063Y-34711099D01*
X38366961Y-34713201D01*
X38400098Y-34760469D01*
X38402953Y-34831408D01*
X38368552Y-34889990D01*
X38369063Y-34890501D01*
X38367097Y-34892467D01*
X38367002Y-34892629D01*
X38366500Y-34893064D01*
X38364080Y-34895484D01*
X38358577Y-34899877D01*
X38247408Y-35039135D01*
X38169855Y-35199562D01*
X38129771Y-35373183D01*
X38129500Y-35377883D01*
X38129501Y-36123716D01*
X38129771Y-36128417D01*
X38169855Y-36302038D01*
X38247408Y-36462465D01*
X38358577Y-36601723D01*
X38364080Y-36606116D01*
X38463109Y-36685170D01*
X38497835Y-36712892D01*
X38504178Y-36715958D01*
X38504179Y-36715959D01*
X38651919Y-36787379D01*
X38651921Y-36787380D01*
X38658262Y-36790445D01*
X38687081Y-36797099D01*
X38747830Y-36830773D01*
X38752210Y-36835153D01*
X38756751Y-36839937D01*
X38781753Y-36867704D01*
X38801530Y-36889669D01*
X38812518Y-36897652D01*
X38827546Y-36910489D01*
X39607966Y-37690908D01*
X40182463Y-38265405D01*
X40216488Y-38327717D01*
X40211424Y-38398532D01*
X40168877Y-38455368D01*
X40102357Y-38480179D01*
X40093368Y-38480500D01*
X38994833Y-38480500D01*
X38926712Y-38460498D01*
X38905738Y-38443595D01*
X36262405Y-35800262D01*
X36228379Y-35737950D01*
X36225500Y-35711167D01*
X36225499Y-35379677D01*
X36225499Y-35377884D01*
X36225229Y-35373183D01*
X36185145Y-35199562D01*
X36107592Y-35039135D01*
X35996423Y-34899877D01*
X35990920Y-34895484D01*
X35985937Y-34890501D01*
X35988039Y-34888399D01*
X35954902Y-34841131D01*
X35952047Y-34770192D01*
X35986448Y-34711610D01*
X35985937Y-34711099D01*
X35987903Y-34709133D01*
X35987998Y-34708971D01*
X35988500Y-34708536D01*
X35990920Y-34706116D01*
X35996423Y-34701723D01*
X36107592Y-34562465D01*
X36185145Y-34402038D01*
X36225229Y-34228417D01*
X36225500Y-34223717D01*
X36225499Y-33477884D01*
X36225229Y-33473183D01*
X36185145Y-33299562D01*
X36107592Y-33139135D01*
X35999029Y-33003141D01*
X35972161Y-32937424D01*
X35971500Y-32924532D01*
X35971500Y-31868406D01*
X35995177Y-31794880D01*
X36126997Y-31611433D01*
X36134416Y-31596423D01*
X36200404Y-31462904D01*
X36228816Y-31405417D01*
X36251312Y-31331375D01*
X36294117Y-31190491D01*
X36294118Y-31190485D01*
X36295621Y-31185539D01*
X36325616Y-30957702D01*
X36327290Y-30889200D01*
X36317141Y-30765756D01*
X36308884Y-30665321D01*
X36308883Y-30665315D01*
X36308460Y-30660170D01*
X36252477Y-30437290D01*
X36160843Y-30226547D01*
X36158037Y-30222209D01*
X36038830Y-30037943D01*
X36038828Y-30037940D01*
X36036020Y-30033600D01*
X35918866Y-29904849D01*
X35884837Y-29867452D01*
X35884835Y-29867451D01*
X35881359Y-29863630D01*
X35877308Y-29860431D01*
X35877304Y-29860427D01*
X35705073Y-29724408D01*
X35701015Y-29721203D01*
X35499831Y-29610143D01*
X35382611Y-29568633D01*
X35288084Y-29535159D01*
X35288080Y-29535158D01*
X35283209Y-29533433D01*
X35278116Y-29532526D01*
X35278113Y-29532525D01*
X35062056Y-29494039D01*
X35062050Y-29494038D01*
X35056967Y-29493133D01*
X34983784Y-29492239D01*
X34832351Y-29490389D01*
X34832349Y-29490389D01*
X34827181Y-29490326D01*
X34675610Y-29513519D01*
X34605131Y-29524304D01*
X34605128Y-29524305D01*
X34600022Y-29525086D01*
X34595110Y-29526691D01*
X34595112Y-29526691D01*
X34386504Y-29594875D01*
X34386502Y-29594876D01*
X34381591Y-29596481D01*
X34177753Y-29702592D01*
X34173620Y-29705695D01*
X34173617Y-29705697D01*
X34007922Y-29830104D01*
X33993983Y-29840570D01*
X33835216Y-30006710D01*
X33832302Y-30010982D01*
X33832301Y-30010983D01*
X33744840Y-30139197D01*
X33705716Y-30196550D01*
X33657338Y-30300771D01*
X33612690Y-30396959D01*
X33608961Y-30404992D01*
X33547548Y-30626437D01*
X33523129Y-30854939D01*
X33523426Y-30860092D01*
X33523426Y-30860095D01*
X33524629Y-30880962D01*
X33536357Y-31084361D01*
X33537492Y-31089398D01*
X33537493Y-31089404D01*
X33571565Y-31240594D01*
X33586878Y-31308542D01*
X33673336Y-31521461D01*
X33676033Y-31525862D01*
X33676034Y-31525864D01*
X33772096Y-31682622D01*
X33793408Y-31717400D01*
X33881741Y-31819375D01*
X33907738Y-31849387D01*
X33937220Y-31913973D01*
X33938500Y-31931884D01*
X33938500Y-32924532D01*
X33918498Y-32992653D01*
X33910971Y-33003141D01*
X33802408Y-33139135D01*
X33724855Y-33299562D01*
X33684771Y-33473183D01*
X33684500Y-33477883D01*
X33684501Y-34223716D01*
X33684771Y-34228417D01*
X33724855Y-34402038D01*
X33802408Y-34562465D01*
X33913577Y-34701723D01*
X33919080Y-34706116D01*
X33924063Y-34711099D01*
X33921961Y-34713201D01*
X33955098Y-34760469D01*
X33957953Y-34831408D01*
X33923552Y-34889990D01*
X33924063Y-34890501D01*
X33922097Y-34892467D01*
X33922002Y-34892629D01*
X33921500Y-34893064D01*
X33919080Y-34895484D01*
X33913577Y-34899877D01*
X33802408Y-35039135D01*
X33724855Y-35199562D01*
X33684771Y-35373183D01*
X33684500Y-35377883D01*
X33684501Y-36123716D01*
X33684771Y-36128417D01*
X33724855Y-36302038D01*
X33802408Y-36462465D01*
X33913577Y-36601723D01*
X33919080Y-36606116D01*
X34018109Y-36685170D01*
X34052835Y-36712892D01*
X34213262Y-36790445D01*
X34220123Y-36792029D01*
X34381443Y-36829273D01*
X34386883Y-36830529D01*
X34391583Y-36830800D01*
X34724867Y-36830800D01*
X34792988Y-36850802D01*
X34813962Y-36867705D01*
X37888711Y-39942454D01*
X37901548Y-39957482D01*
X37909531Y-39968470D01*
X37914433Y-39972883D01*
X37914434Y-39972885D01*
X37959263Y-40013249D01*
X37964047Y-40017790D01*
X37978194Y-40031937D01*
X37980759Y-40034014D01*
X37993754Y-40044537D01*
X37998775Y-40048825D01*
X38043581Y-40089170D01*
X38043585Y-40089173D01*
X38048485Y-40093585D01*
X38054195Y-40096881D01*
X38054198Y-40096884D01*
X38060245Y-40100375D01*
X38076530Y-40111568D01*
X38087075Y-40120107D01*
X38140315Y-40147234D01*
X38191929Y-40195981D01*
X38208995Y-40264896D01*
X38186094Y-40332098D01*
X38130497Y-40376250D01*
X38083111Y-40385500D01*
X36424833Y-40385500D01*
X36356712Y-40365498D01*
X36335738Y-40348595D01*
X31787405Y-35800262D01*
X31753379Y-35737950D01*
X31750500Y-35711167D01*
X31750499Y-35379677D01*
X31750499Y-35377884D01*
X31750229Y-35373183D01*
X31710145Y-35199562D01*
X31632592Y-35039135D01*
X31521423Y-34899877D01*
X31515920Y-34895484D01*
X31510937Y-34890501D01*
X31513039Y-34888399D01*
X31479902Y-34841131D01*
X31477047Y-34770192D01*
X31511448Y-34711610D01*
X31510937Y-34711099D01*
X31512903Y-34709133D01*
X31512998Y-34708971D01*
X31513500Y-34708536D01*
X31515920Y-34706116D01*
X31521423Y-34701723D01*
X31632592Y-34562465D01*
X31710145Y-34402038D01*
X31750229Y-34228417D01*
X31750500Y-34223717D01*
X31750499Y-33477884D01*
X31750229Y-33473183D01*
X31710145Y-33299562D01*
X31632592Y-33139135D01*
X31524029Y-33003141D01*
X31497161Y-32937424D01*
X31496500Y-32924532D01*
X31496500Y-32632438D01*
X31516502Y-32564317D01*
X31533405Y-32543343D01*
X31752330Y-32324418D01*
X31814642Y-32290392D01*
X31825415Y-32288534D01*
X32036425Y-32261504D01*
X32036428Y-32261503D01*
X32041552Y-32260847D01*
X32261663Y-32194810D01*
X32468033Y-32093711D01*
X32655119Y-31960264D01*
X32663239Y-31952173D01*
X32759554Y-31856193D01*
X32817898Y-31798052D01*
X32822519Y-31791622D01*
X32948979Y-31615633D01*
X32948980Y-31615632D01*
X32951997Y-31611433D01*
X32959416Y-31596423D01*
X33025404Y-31462904D01*
X33053816Y-31405417D01*
X33076312Y-31331375D01*
X33119117Y-31190491D01*
X33119118Y-31190485D01*
X33120621Y-31185539D01*
X33150616Y-30957702D01*
X33152290Y-30889200D01*
X33142141Y-30765756D01*
X33133884Y-30665321D01*
X33133883Y-30665315D01*
X33133460Y-30660170D01*
X33077477Y-30437290D01*
X32985843Y-30226547D01*
X32983037Y-30222209D01*
X32863830Y-30037943D01*
X32863828Y-30037940D01*
X32861020Y-30033600D01*
X32743866Y-29904849D01*
X32709837Y-29867452D01*
X32709835Y-29867451D01*
X32706359Y-29863630D01*
X32702308Y-29860431D01*
X32702304Y-29860427D01*
X32530073Y-29724408D01*
X32526015Y-29721203D01*
X32324831Y-29610143D01*
X32207611Y-29568633D01*
X32113084Y-29535159D01*
X32113080Y-29535158D01*
X32108209Y-29533433D01*
X32103116Y-29532526D01*
X32103113Y-29532525D01*
X31887056Y-29494039D01*
X31887050Y-29494038D01*
X31881967Y-29493133D01*
X31808784Y-29492239D01*
X31657351Y-29490389D01*
X31657349Y-29490389D01*
X31652181Y-29490326D01*
X31500610Y-29513519D01*
X31430131Y-29524304D01*
X31430128Y-29524305D01*
X31425022Y-29525086D01*
X31420110Y-29526691D01*
X31420112Y-29526691D01*
X31211504Y-29594875D01*
X31211502Y-29594876D01*
X31206591Y-29596481D01*
X31002753Y-29702592D01*
X30998620Y-29705695D01*
X30998617Y-29705697D01*
X30832922Y-29830104D01*
X30818983Y-29840570D01*
X30660216Y-30006710D01*
X30657302Y-30010982D01*
X30657301Y-30010983D01*
X30569840Y-30139197D01*
X30530716Y-30196550D01*
X30482338Y-30300771D01*
X30437690Y-30396959D01*
X30433961Y-30404992D01*
X30372548Y-30626437D01*
X30371999Y-30631573D01*
X30371999Y-30631574D01*
X30353026Y-30809112D01*
X30325898Y-30874722D01*
X30316834Y-30884818D01*
X29805267Y-31396385D01*
X29795125Y-31405486D01*
X29765351Y-31429425D01*
X29732813Y-31468202D01*
X29729649Y-31471829D01*
X29727954Y-31473698D01*
X29725760Y-31475892D01*
X29698188Y-31509458D01*
X29697526Y-31510255D01*
X29684429Y-31525864D01*
X29654686Y-31561311D01*
X29637214Y-31582133D01*
X29634627Y-31586839D01*
X29631218Y-31590989D01*
X29628310Y-31596413D01*
X29628303Y-31596423D01*
X29586939Y-31673568D01*
X29586310Y-31674728D01*
X29541179Y-31756821D01*
X29539555Y-31761941D01*
X29537017Y-31766674D01*
X29520905Y-31819375D01*
X29509648Y-31856193D01*
X29509256Y-31857452D01*
X29482765Y-31940961D01*
X29480902Y-31946835D01*
X29480303Y-31952173D01*
X29478733Y-31957309D01*
X29478110Y-31963440D01*
X29478110Y-31963441D01*
X29469263Y-32050543D01*
X29469134Y-32051751D01*
X29463500Y-32101984D01*
X29463500Y-32105489D01*
X29463438Y-32106597D01*
X29462990Y-32112292D01*
X29459210Y-32149505D01*
X29459210Y-32149512D01*
X29458588Y-32155635D01*
X29459168Y-32161766D01*
X29462941Y-32201685D01*
X29463500Y-32213543D01*
X29463500Y-32924532D01*
X29443498Y-32992653D01*
X29435971Y-33003141D01*
X29327408Y-33139135D01*
X29249855Y-33299562D01*
X29209771Y-33473183D01*
X29209500Y-33477883D01*
X29209501Y-34223716D01*
X29209771Y-34228417D01*
X29249855Y-34402038D01*
X29327408Y-34562465D01*
X29438577Y-34701723D01*
X29444080Y-34706116D01*
X29449063Y-34711099D01*
X29446961Y-34713201D01*
X29480098Y-34760469D01*
X29482953Y-34831408D01*
X29448552Y-34889990D01*
X29449063Y-34890501D01*
X29447097Y-34892467D01*
X29447002Y-34892629D01*
X29446500Y-34893064D01*
X29444080Y-34895484D01*
X29438577Y-34899877D01*
X29327408Y-35039135D01*
X29249855Y-35199562D01*
X29209771Y-35373183D01*
X29209500Y-35377883D01*
X29209501Y-36123716D01*
X29209771Y-36128417D01*
X29249855Y-36302038D01*
X29327408Y-36462465D01*
X29438577Y-36601723D01*
X29444080Y-36606116D01*
X29543109Y-36685170D01*
X29577835Y-36712892D01*
X29738262Y-36790445D01*
X29745123Y-36792029D01*
X29906443Y-36829273D01*
X29911883Y-36830529D01*
X29916583Y-36830800D01*
X30249867Y-36830800D01*
X30317988Y-36850802D01*
X30338962Y-36867705D01*
X35318711Y-41847454D01*
X35331548Y-41862482D01*
X35339531Y-41873470D01*
X35344433Y-41877883D01*
X35344434Y-41877885D01*
X35389263Y-41918249D01*
X35394047Y-41922790D01*
X35408194Y-41936937D01*
X35410759Y-41939014D01*
X35423754Y-41949537D01*
X35428775Y-41953825D01*
X35473581Y-41994170D01*
X35473585Y-41994173D01*
X35478485Y-41998585D01*
X35484195Y-42001881D01*
X35484198Y-42001884D01*
X35490245Y-42005375D01*
X35506530Y-42016568D01*
X35517075Y-42025107D01*
X35552285Y-42043047D01*
X35576680Y-42055477D01*
X35582476Y-42058624D01*
X35640415Y-42092075D01*
X35653325Y-42096270D01*
X35671584Y-42103833D01*
X35683676Y-42109994D01*
X35740841Y-42125312D01*
X35748294Y-42127309D01*
X35754619Y-42129182D01*
X35818244Y-42149855D01*
X35824811Y-42150545D01*
X35824815Y-42150546D01*
X35830488Y-42151142D01*
X35831730Y-42151272D01*
X35851172Y-42154875D01*
X35864285Y-42158389D01*
X35870882Y-42158735D01*
X35870884Y-42158735D01*
X35931087Y-42161890D01*
X35937661Y-42162407D01*
X35954305Y-42164156D01*
X35954309Y-42164156D01*
X35957580Y-42164500D01*
X35977607Y-42164500D01*
X35984201Y-42164673D01*
X36044418Y-42167829D01*
X36044422Y-42167829D01*
X36051010Y-42168174D01*
X36057525Y-42167142D01*
X36057527Y-42167142D01*
X36064414Y-42166051D01*
X36084125Y-42164500D01*
X39738225Y-42164500D01*
X39806346Y-42184502D01*
X39852839Y-42238158D01*
X39859344Y-42255770D01*
X39874705Y-42309340D01*
X39952367Y-42457895D01*
X39967390Y-42486631D01*
X39964857Y-42487955D01*
X39982045Y-42543973D01*
X39962870Y-42612331D01*
X39909781Y-42659471D01*
X39856054Y-42671500D01*
X29426125Y-42671500D01*
X29358004Y-42651498D01*
X29311511Y-42597842D01*
X29301407Y-42527568D01*
X29330901Y-42462988D01*
X29343047Y-42450768D01*
X29557180Y-42262978D01*
X29560269Y-42260269D01*
X29579660Y-42238158D01*
X29755177Y-42038020D01*
X29755181Y-42038014D01*
X29757895Y-42034920D01*
X29924416Y-41785703D01*
X30056983Y-41516883D01*
X30077644Y-41456019D01*
X30152000Y-41236973D01*
X30152001Y-41236969D01*
X30153328Y-41233060D01*
X30154134Y-41229010D01*
X30211000Y-40943128D01*
X30211001Y-40943122D01*
X30211803Y-40939089D01*
X30216958Y-40860446D01*
X30231136Y-40644119D01*
X30231406Y-40640000D01*
X30225281Y-40546554D01*
X30212073Y-40345023D01*
X30212072Y-40345016D01*
X30211803Y-40340911D01*
X30195610Y-40259500D01*
X30154134Y-40050990D01*
X30154132Y-40050984D01*
X30153328Y-40046940D01*
X30141892Y-40013249D01*
X30058309Y-39767023D01*
X30058308Y-39767022D01*
X30056983Y-39763117D01*
X29963751Y-39574060D01*
X29926243Y-39498001D01*
X29926240Y-39497996D01*
X29924416Y-39494297D01*
X29757895Y-39245080D01*
X29755181Y-39241986D01*
X29755177Y-39241980D01*
X29562978Y-39022820D01*
X29560269Y-39019731D01*
X29477122Y-38946813D01*
X29338020Y-38824823D01*
X29338014Y-38824819D01*
X29334920Y-38822105D01*
X29085703Y-38655584D01*
X29082004Y-38653760D01*
X29081999Y-38653757D01*
X28927153Y-38577396D01*
X28816883Y-38523017D01*
X28812977Y-38521691D01*
X28536973Y-38428000D01*
X28536969Y-38427999D01*
X28533060Y-38426672D01*
X28529016Y-38425868D01*
X28529010Y-38425866D01*
X28243128Y-38369000D01*
X28243122Y-38368999D01*
X28239089Y-38368197D01*
X28234984Y-38367928D01*
X28234977Y-38367927D01*
X27944119Y-38348864D01*
X27940000Y-38348594D01*
X27935881Y-38348864D01*
X27645023Y-38367927D01*
X27645016Y-38367928D01*
X27640911Y-38368197D01*
X27636878Y-38368999D01*
X27636872Y-38369000D01*
X27350990Y-38425866D01*
X27350984Y-38425868D01*
X27346940Y-38426672D01*
X27343031Y-38427999D01*
X27343027Y-38428000D01*
X27067023Y-38521691D01*
X27063117Y-38523017D01*
X26952847Y-38577396D01*
X26798001Y-38653757D01*
X26797996Y-38653760D01*
X26794297Y-38655584D01*
X26545080Y-38822105D01*
X26541986Y-38824819D01*
X26541980Y-38824823D01*
X26402878Y-38946813D01*
X26319731Y-39019731D01*
X26317022Y-39022820D01*
X26129232Y-39236953D01*
X26069278Y-39274980D01*
X25998283Y-39274558D01*
X25938786Y-39235819D01*
X25909678Y-39171064D01*
X25908500Y-39153875D01*
X25908500Y-29426125D01*
X25928502Y-29358004D01*
X25982158Y-29311511D01*
X26052432Y-29301407D01*
X26117012Y-29330901D01*
X26129232Y-29343047D01*
X26288876Y-29525086D01*
X26319731Y-29560269D01*
X26322820Y-29562978D01*
X26541980Y-29755177D01*
X26541986Y-29755181D01*
X26545080Y-29757895D01*
X26794297Y-29924416D01*
X26797996Y-29926240D01*
X26798001Y-29926243D01*
X26935905Y-29994249D01*
X27063117Y-30056983D01*
X27067022Y-30058308D01*
X27067023Y-30058309D01*
X27343027Y-30152000D01*
X27343031Y-30152001D01*
X27346940Y-30153328D01*
X27350984Y-30154132D01*
X27350990Y-30154134D01*
X27636872Y-30211000D01*
X27636878Y-30211001D01*
X27640911Y-30211803D01*
X27645016Y-30212072D01*
X27645023Y-30212073D01*
X27935881Y-30231136D01*
X27940000Y-30231406D01*
X27944119Y-30231136D01*
X28234977Y-30212073D01*
X28234984Y-30212072D01*
X28239089Y-30211803D01*
X28243122Y-30211001D01*
X28243128Y-30211000D01*
X28529010Y-30154134D01*
X28529016Y-30154132D01*
X28533060Y-30153328D01*
X28536969Y-30152001D01*
X28536973Y-30152000D01*
X28812977Y-30058309D01*
X28812978Y-30058308D01*
X28816883Y-30056983D01*
X28944095Y-29994249D01*
X29081999Y-29926243D01*
X29082004Y-29926240D01*
X29085703Y-29924416D01*
X29334920Y-29757895D01*
X29338014Y-29755181D01*
X29338020Y-29755177D01*
X29557180Y-29562978D01*
X29560269Y-29560269D01*
X29591124Y-29525086D01*
X29755177Y-29338020D01*
X29755181Y-29338014D01*
X29757895Y-29334920D01*
X29924416Y-29085703D01*
X30056983Y-28816883D01*
X30077644Y-28756019D01*
X30152000Y-28536973D01*
X30152001Y-28536969D01*
X30153328Y-28533060D01*
X30154134Y-28529010D01*
X30211000Y-28243128D01*
X30211001Y-28243122D01*
X30211803Y-28239089D01*
X30215135Y-28188263D01*
X30231136Y-27944119D01*
X30231406Y-27940000D01*
X30220277Y-27770202D01*
X30212073Y-27645023D01*
X30212072Y-27645016D01*
X30211803Y-27640911D01*
X30199172Y-27577407D01*
X30154134Y-27350990D01*
X30154132Y-27350984D01*
X30153328Y-27346940D01*
X30056983Y-27063117D01*
X29971500Y-26889774D01*
X29926243Y-26798001D01*
X29926240Y-26797996D01*
X29924416Y-26794297D01*
X29757895Y-26545080D01*
X29755181Y-26541986D01*
X29755177Y-26541980D01*
X29562978Y-26322820D01*
X29560269Y-26319731D01*
X29343047Y-26129232D01*
X29305020Y-26069278D01*
X29305442Y-25998283D01*
X29344181Y-25938786D01*
X29408936Y-25909678D01*
X29426125Y-25908500D01*
X53436836Y-25908500D01*
X53504957Y-25928502D01*
G37*
%TD.AperFunction*%
%TD*%
M02*
