%TF.GenerationSoftware,KiCad,Pcbnew,(6.0.4)*%
%TF.CreationDate,2022-09-19T09:43:28-03:00*%
%TF.ProjectId,Placa de sensores,506c6163-6120-4646-9520-73656e736f72,rev?*%
%TF.SameCoordinates,Original*%
%TF.FileFunction,Copper,L2,Bot*%
%TF.FilePolarity,Positive*%
%FSLAX46Y46*%
G04 Gerber Fmt 4.6, Leading zero omitted, Abs format (unit mm)*
G04 Created by KiCad (PCBNEW (6.0.4)) date 2022-09-19 09:43:28*
%MOMM*%
%LPD*%
G01*
G04 APERTURE LIST*
G04 Aperture macros list*
%AMRoundRect*
0 Rectangle with rounded corners*
0 $1 Rounding radius*
0 $2 $3 $4 $5 $6 $7 $8 $9 X,Y pos of 4 corners*
0 Add a 4 corners polygon primitive as box body*
4,1,4,$2,$3,$4,$5,$6,$7,$8,$9,$2,$3,0*
0 Add four circle primitives for the rounded corners*
1,1,$1+$1,$2,$3*
1,1,$1+$1,$4,$5*
1,1,$1+$1,$6,$7*
1,1,$1+$1,$8,$9*
0 Add four rect primitives between the rounded corners*
20,1,$1+$1,$2,$3,$4,$5,0*
20,1,$1+$1,$4,$5,$6,$7,0*
20,1,$1+$1,$6,$7,$8,$9,0*
20,1,$1+$1,$8,$9,$2,$3,0*%
G04 Aperture macros list end*
%TA.AperFunction,ComponentPad*%
%ADD10RoundRect,0.476250X0.476250X-0.730250X0.476250X0.730250X-0.476250X0.730250X-0.476250X-0.730250X0*%
%TD*%
%TA.AperFunction,ComponentPad*%
%ADD11O,1.905000X2.413000*%
%TD*%
%TA.AperFunction,ComponentPad*%
%ADD12RoundRect,0.476250X0.476250X-0.666750X0.476250X0.666750X-0.476250X0.666750X-0.476250X-0.666750X0*%
%TD*%
%TA.AperFunction,ComponentPad*%
%ADD13O,1.905000X2.286000*%
%TD*%
%TA.AperFunction,ViaPad*%
%ADD14C,1.778000*%
%TD*%
%TA.AperFunction,Conductor*%
%ADD15C,1.778000*%
%TD*%
%TA.AperFunction,Conductor*%
%ADD16C,1.905000*%
%TD*%
%TA.AperFunction,Conductor*%
%ADD17C,2.286000*%
%TD*%
%TA.AperFunction,Conductor*%
%ADD18C,1.016000*%
%TD*%
G04 APERTURE END LIST*
D10*
%TO.P,J1,1,Pin_1*%
%TO.N,/s1*%
X45720000Y-41275000D03*
D11*
%TO.P,J1,2,Pin_2*%
%TO.N,/s2*%
X48260000Y-41275000D03*
%TO.P,J1,3,Pin_3*%
%TO.N,/s3*%
X50800000Y-41275000D03*
%TO.P,J1,4,Pin_4*%
%TO.N,/s4*%
X53340000Y-41275000D03*
%TO.P,J1,5,Pin_5*%
%TO.N,/s5*%
X55880000Y-41275000D03*
%TO.P,J1,6,Pin_6*%
%TO.N,/s6*%
X58420000Y-41275000D03*
%TO.P,J1,7,Pin_7*%
%TO.N,/s7*%
X60960000Y-41275000D03*
%TO.P,J1,8,Pin_8*%
%TO.N,/s8*%
X63500000Y-41275000D03*
%TO.P,J1,9,Pin_9*%
%TO.N,/s9*%
X66040000Y-41275000D03*
%TO.P,J1,10,Pin_10*%
%TO.N,/s10*%
X68580000Y-41275000D03*
%TO.P,J1,11,Pin_11*%
%TO.N,/s11*%
X71120000Y-41275000D03*
%TO.P,J1,12,Pin_12*%
%TO.N,/s12*%
X73660000Y-41275000D03*
%TO.P,J1,13,Pin_13*%
%TO.N,/s13*%
X76200000Y-41275000D03*
%TO.P,J1,14,Pin_14*%
%TO.N,/s14*%
X78740000Y-41275000D03*
%TO.P,J1,15,Pin_15*%
%TO.N,/s15*%
X81280000Y-41275000D03*
%TO.P,J1,16,Pin_16*%
%TO.N,/s16*%
X83820000Y-41275000D03*
%TD*%
D12*
%TO.P,J2,1,Pin_1*%
%TO.N,GND*%
X59065008Y-25400000D03*
D13*
%TO.P,J2,2,Pin_2*%
%TO.N,+5V*%
X61605008Y-25400000D03*
%TO.P,J2,3,Pin_3*%
X64145008Y-25400000D03*
%TO.P,J2,4,Pin_4*%
%TO.N,GND*%
X66685008Y-25400000D03*
%TD*%
D14*
%TO.N,+5V*%
X57150000Y-29210000D03*
X61595000Y-29210000D03*
X92710000Y-29210000D03*
X34925000Y-29210000D03*
X39370000Y-29210000D03*
X70485000Y-29210000D03*
X97118141Y-29171103D03*
X66040000Y-29210000D03*
X52705000Y-29210000D03*
X74930000Y-29210000D03*
X43815000Y-29210000D03*
X83820000Y-29210000D03*
X88265000Y-29210000D03*
X48260000Y-29210000D03*
X79375000Y-29210000D03*
X30480000Y-29210000D03*
%TD*%
D15*
%TO.N,+5V*%
X64135000Y-25400000D02*
X62547500Y-26987500D01*
D16*
X64145008Y-25400000D02*
X64145008Y-27315008D01*
D17*
X30518887Y-29171113D02*
X59728887Y-29171113D01*
D16*
X61605008Y-25400000D02*
X64145008Y-25400000D01*
D18*
X30480000Y-29210000D02*
X30518897Y-29171103D01*
X61605000Y-25400000D02*
X61605000Y-26045000D01*
D16*
X61605008Y-25400000D02*
X61605008Y-29199992D01*
D18*
X64145000Y-25400000D02*
X64135000Y-25400000D01*
D16*
X61605008Y-26045008D02*
X62547500Y-26987500D01*
X61605008Y-25400000D02*
X61605008Y-27294992D01*
D18*
X61605000Y-29200000D02*
X61595000Y-29210000D01*
D16*
X64145008Y-27315008D02*
X66040000Y-29210000D01*
X61605008Y-27294992D02*
X59728887Y-29171113D01*
D15*
X62547500Y-26987500D02*
X64731113Y-29171113D01*
D17*
X64731113Y-29171113D02*
X97118145Y-29171113D01*
X59728887Y-29171113D02*
X64731113Y-29171113D01*
%TD*%
%TA.AperFunction,Conductor*%
%TO.N,GND*%
G36*
X100037181Y-23388502D02*
G01*
X100083674Y-23442158D01*
X100093778Y-23512432D01*
X100064284Y-23577012D01*
X100052137Y-23589232D01*
X99982827Y-23650015D01*
X99982820Y-23650022D01*
X99979731Y-23652731D01*
X99977022Y-23655820D01*
X99784823Y-23874980D01*
X99784819Y-23874986D01*
X99782105Y-23878080D01*
X99615584Y-24127297D01*
X99483017Y-24396117D01*
X99481692Y-24400022D01*
X99481691Y-24400023D01*
X99443545Y-24512399D01*
X99386672Y-24679940D01*
X99385868Y-24683984D01*
X99385866Y-24683990D01*
X99329961Y-24965044D01*
X99328197Y-24973911D01*
X99327928Y-24978016D01*
X99327927Y-24978023D01*
X99316578Y-25151187D01*
X99308594Y-25273000D01*
X99308864Y-25277119D01*
X99324857Y-25521122D01*
X99328197Y-25572089D01*
X99386672Y-25866060D01*
X99387999Y-25869969D01*
X99388000Y-25869973D01*
X99454687Y-26066426D01*
X99483017Y-26149883D01*
X99615584Y-26418703D01*
X99782105Y-26667920D01*
X99784819Y-26671014D01*
X99784823Y-26671020D01*
X99977022Y-26890180D01*
X99979731Y-26893269D01*
X99982820Y-26895978D01*
X100201980Y-27088177D01*
X100201986Y-27088181D01*
X100205080Y-27090895D01*
X100454297Y-27257416D01*
X100457996Y-27259240D01*
X100458001Y-27259243D01*
X100595905Y-27327249D01*
X100723117Y-27389983D01*
X100727022Y-27391308D01*
X100727023Y-27391309D01*
X101003027Y-27485000D01*
X101003031Y-27485001D01*
X101006940Y-27486328D01*
X101010984Y-27487132D01*
X101010990Y-27487134D01*
X101296872Y-27544000D01*
X101296878Y-27544001D01*
X101300911Y-27544803D01*
X101305016Y-27545072D01*
X101305023Y-27545073D01*
X101595881Y-27564136D01*
X101600000Y-27564406D01*
X101604119Y-27564136D01*
X101894977Y-27545073D01*
X101894984Y-27545072D01*
X101899089Y-27544803D01*
X101903122Y-27544001D01*
X101903128Y-27544000D01*
X102189010Y-27487134D01*
X102189016Y-27487132D01*
X102193060Y-27486328D01*
X102196969Y-27485001D01*
X102196973Y-27485000D01*
X102472977Y-27391309D01*
X102472978Y-27391308D01*
X102476883Y-27389983D01*
X102604095Y-27327249D01*
X102741999Y-27259243D01*
X102742004Y-27259240D01*
X102745703Y-27257416D01*
X102994920Y-27090895D01*
X102998014Y-27088181D01*
X102998020Y-27088177D01*
X103217180Y-26895978D01*
X103220269Y-26893269D01*
X103337910Y-26759125D01*
X103410768Y-26676047D01*
X103470722Y-26638020D01*
X103541717Y-26638442D01*
X103601214Y-26677181D01*
X103630322Y-26741936D01*
X103631500Y-26759125D01*
X103631500Y-39280875D01*
X103611498Y-39348996D01*
X103557842Y-39395489D01*
X103487568Y-39405593D01*
X103422988Y-39376099D01*
X103410768Y-39363953D01*
X103222978Y-39149820D01*
X103220269Y-39146731D01*
X103078976Y-39022820D01*
X102998020Y-38951823D01*
X102998014Y-38951819D01*
X102994920Y-38949105D01*
X102745703Y-38782584D01*
X102742004Y-38780760D01*
X102741999Y-38780757D01*
X102604095Y-38712751D01*
X102476883Y-38650017D01*
X102472977Y-38648691D01*
X102196973Y-38555000D01*
X102196969Y-38554999D01*
X102193060Y-38553672D01*
X102189016Y-38552868D01*
X102189010Y-38552866D01*
X101903128Y-38496000D01*
X101903122Y-38495999D01*
X101899089Y-38495197D01*
X101894984Y-38494928D01*
X101894977Y-38494927D01*
X101604119Y-38475864D01*
X101600000Y-38475594D01*
X101595881Y-38475864D01*
X101305023Y-38494927D01*
X101305016Y-38494928D01*
X101300911Y-38495197D01*
X101296878Y-38495999D01*
X101296872Y-38496000D01*
X101010990Y-38552866D01*
X101010984Y-38552868D01*
X101006940Y-38553672D01*
X101003031Y-38554999D01*
X101003027Y-38555000D01*
X100727023Y-38648691D01*
X100723117Y-38650017D01*
X100595905Y-38712751D01*
X100458001Y-38780757D01*
X100457996Y-38780760D01*
X100454297Y-38782584D01*
X100205080Y-38949105D01*
X100201986Y-38951819D01*
X100201980Y-38951823D01*
X100121024Y-39022820D01*
X99979731Y-39146731D01*
X99977022Y-39149820D01*
X99784823Y-39368980D01*
X99784819Y-39368986D01*
X99782105Y-39372080D01*
X99615584Y-39621297D01*
X99613760Y-39624996D01*
X99613757Y-39625001D01*
X99592796Y-39667507D01*
X99483017Y-39890117D01*
X99481692Y-39894022D01*
X99481691Y-39894023D01*
X99400624Y-40132840D01*
X99386672Y-40173940D01*
X99385868Y-40177984D01*
X99385866Y-40177990D01*
X99337816Y-40419554D01*
X99328197Y-40467911D01*
X99327928Y-40472016D01*
X99327927Y-40472023D01*
X99317188Y-40635881D01*
X99308594Y-40767000D01*
X99309887Y-40786724D01*
X99323043Y-40987446D01*
X99328197Y-41066089D01*
X99328999Y-41070122D01*
X99329000Y-41070128D01*
X99385866Y-41356010D01*
X99386672Y-41360060D01*
X99387999Y-41363969D01*
X99388000Y-41363973D01*
X99481691Y-41639977D01*
X99483017Y-41643883D01*
X99484841Y-41647581D01*
X99559298Y-41798565D01*
X99615584Y-41912703D01*
X99782105Y-42161920D01*
X99784819Y-42165014D01*
X99784823Y-42165020D01*
X99957066Y-42361425D01*
X99979731Y-42387269D01*
X99982820Y-42389978D01*
X99982827Y-42389985D01*
X100052137Y-42450768D01*
X100090165Y-42510721D01*
X100089743Y-42581717D01*
X100051005Y-42641214D01*
X99986250Y-42670322D01*
X99969060Y-42671500D01*
X85043838Y-42671500D01*
X84975717Y-42651498D01*
X84929224Y-42597842D01*
X84919120Y-42527568D01*
X84952746Y-42458448D01*
X84959301Y-42451588D01*
X85089811Y-42260269D01*
X85091774Y-42257391D01*
X85091775Y-42257390D01*
X85094686Y-42253122D01*
X85102664Y-42235936D01*
X85193658Y-42039905D01*
X85193659Y-42039901D01*
X85195837Y-42035210D01*
X85260040Y-41803702D01*
X85272167Y-41690226D01*
X85280644Y-41610907D01*
X85280644Y-41610899D01*
X85281000Y-41607572D01*
X85281000Y-40960098D01*
X85266322Y-40781563D01*
X85207794Y-40548556D01*
X85151703Y-40419554D01*
X85114057Y-40332974D01*
X85114055Y-40332971D01*
X85111997Y-40328237D01*
X85021645Y-40188575D01*
X84984310Y-40130863D01*
X84984308Y-40130860D01*
X84981502Y-40126523D01*
X84819814Y-39948830D01*
X84694390Y-39849776D01*
X84635330Y-39803133D01*
X84635325Y-39803130D01*
X84631276Y-39799932D01*
X84626760Y-39797439D01*
X84626757Y-39797437D01*
X84425474Y-39686323D01*
X84425470Y-39686321D01*
X84420950Y-39683826D01*
X84416081Y-39682102D01*
X84416077Y-39682100D01*
X84199360Y-39605356D01*
X84199356Y-39605355D01*
X84194485Y-39603630D01*
X84189392Y-39602723D01*
X84189389Y-39602722D01*
X83963052Y-39562405D01*
X83963046Y-39562404D01*
X83957963Y-39561499D01*
X83870600Y-39560432D01*
X83722907Y-39558627D01*
X83722905Y-39558627D01*
X83717737Y-39558564D01*
X83480256Y-39594904D01*
X83376957Y-39628667D01*
X83256817Y-39667934D01*
X83256811Y-39667937D01*
X83251899Y-39669542D01*
X83247313Y-39671929D01*
X83247309Y-39671931D01*
X83150310Y-39722426D01*
X83038800Y-39780475D01*
X83034657Y-39783585D01*
X83034658Y-39783585D01*
X82892771Y-39890117D01*
X82846680Y-39924723D01*
X82680699Y-40098412D01*
X82655465Y-40135403D01*
X82600556Y-40180404D01*
X82530032Y-40188575D01*
X82466284Y-40157321D01*
X82445589Y-40132840D01*
X82444311Y-40130865D01*
X82441502Y-40126523D01*
X82279814Y-39948830D01*
X82154390Y-39849776D01*
X82095330Y-39803133D01*
X82095325Y-39803130D01*
X82091276Y-39799932D01*
X82086760Y-39797439D01*
X82086757Y-39797437D01*
X81885474Y-39686323D01*
X81885470Y-39686321D01*
X81880950Y-39683826D01*
X81876081Y-39682102D01*
X81876077Y-39682100D01*
X81659360Y-39605356D01*
X81659356Y-39605355D01*
X81654485Y-39603630D01*
X81649392Y-39602723D01*
X81649389Y-39602722D01*
X81423052Y-39562405D01*
X81423046Y-39562404D01*
X81417963Y-39561499D01*
X81330600Y-39560432D01*
X81182907Y-39558627D01*
X81182905Y-39558627D01*
X81177737Y-39558564D01*
X80940256Y-39594904D01*
X80836957Y-39628667D01*
X80716817Y-39667934D01*
X80716811Y-39667937D01*
X80711899Y-39669542D01*
X80707313Y-39671929D01*
X80707309Y-39671931D01*
X80610310Y-39722426D01*
X80498800Y-39780475D01*
X80494657Y-39783585D01*
X80494658Y-39783585D01*
X80352771Y-39890117D01*
X80306680Y-39924723D01*
X80140699Y-40098412D01*
X80115465Y-40135403D01*
X80060556Y-40180404D01*
X79990032Y-40188575D01*
X79926284Y-40157321D01*
X79905589Y-40132840D01*
X79904311Y-40130865D01*
X79901502Y-40126523D01*
X79739814Y-39948830D01*
X79614390Y-39849776D01*
X79555330Y-39803133D01*
X79555325Y-39803130D01*
X79551276Y-39799932D01*
X79546760Y-39797439D01*
X79546757Y-39797437D01*
X79345474Y-39686323D01*
X79345470Y-39686321D01*
X79340950Y-39683826D01*
X79336081Y-39682102D01*
X79336077Y-39682100D01*
X79119360Y-39605356D01*
X79119356Y-39605355D01*
X79114485Y-39603630D01*
X79109392Y-39602723D01*
X79109389Y-39602722D01*
X78883052Y-39562405D01*
X78883046Y-39562404D01*
X78877963Y-39561499D01*
X78790600Y-39560432D01*
X78642907Y-39558627D01*
X78642905Y-39558627D01*
X78637737Y-39558564D01*
X78400256Y-39594904D01*
X78296957Y-39628667D01*
X78176817Y-39667934D01*
X78176811Y-39667937D01*
X78171899Y-39669542D01*
X78167313Y-39671929D01*
X78167309Y-39671931D01*
X78070310Y-39722426D01*
X77958800Y-39780475D01*
X77954657Y-39783585D01*
X77954658Y-39783585D01*
X77812771Y-39890117D01*
X77766680Y-39924723D01*
X77600699Y-40098412D01*
X77575465Y-40135403D01*
X77520556Y-40180404D01*
X77450032Y-40188575D01*
X77386284Y-40157321D01*
X77365589Y-40132840D01*
X77364311Y-40130865D01*
X77361502Y-40126523D01*
X77199814Y-39948830D01*
X77074390Y-39849776D01*
X77015330Y-39803133D01*
X77015325Y-39803130D01*
X77011276Y-39799932D01*
X77006760Y-39797439D01*
X77006757Y-39797437D01*
X76805474Y-39686323D01*
X76805470Y-39686321D01*
X76800950Y-39683826D01*
X76796081Y-39682102D01*
X76796077Y-39682100D01*
X76579360Y-39605356D01*
X76579356Y-39605355D01*
X76574485Y-39603630D01*
X76569392Y-39602723D01*
X76569389Y-39602722D01*
X76343052Y-39562405D01*
X76343046Y-39562404D01*
X76337963Y-39561499D01*
X76250600Y-39560432D01*
X76102907Y-39558627D01*
X76102905Y-39558627D01*
X76097737Y-39558564D01*
X75860256Y-39594904D01*
X75756957Y-39628667D01*
X75636817Y-39667934D01*
X75636811Y-39667937D01*
X75631899Y-39669542D01*
X75627313Y-39671929D01*
X75627309Y-39671931D01*
X75530310Y-39722426D01*
X75418800Y-39780475D01*
X75414657Y-39783585D01*
X75414658Y-39783585D01*
X75272771Y-39890117D01*
X75226680Y-39924723D01*
X75060699Y-40098412D01*
X75035465Y-40135403D01*
X74980556Y-40180404D01*
X74910032Y-40188575D01*
X74846284Y-40157321D01*
X74825589Y-40132840D01*
X74824311Y-40130865D01*
X74821502Y-40126523D01*
X74659814Y-39948830D01*
X74534390Y-39849776D01*
X74475330Y-39803133D01*
X74475325Y-39803130D01*
X74471276Y-39799932D01*
X74466760Y-39797439D01*
X74466757Y-39797437D01*
X74265474Y-39686323D01*
X74265470Y-39686321D01*
X74260950Y-39683826D01*
X74256081Y-39682102D01*
X74256077Y-39682100D01*
X74039360Y-39605356D01*
X74039356Y-39605355D01*
X74034485Y-39603630D01*
X74029392Y-39602723D01*
X74029389Y-39602722D01*
X73803052Y-39562405D01*
X73803046Y-39562404D01*
X73797963Y-39561499D01*
X73710600Y-39560432D01*
X73562907Y-39558627D01*
X73562905Y-39558627D01*
X73557737Y-39558564D01*
X73320256Y-39594904D01*
X73216957Y-39628667D01*
X73096817Y-39667934D01*
X73096811Y-39667937D01*
X73091899Y-39669542D01*
X73087313Y-39671929D01*
X73087309Y-39671931D01*
X72990310Y-39722426D01*
X72878800Y-39780475D01*
X72874657Y-39783585D01*
X72874658Y-39783585D01*
X72732771Y-39890117D01*
X72686680Y-39924723D01*
X72520699Y-40098412D01*
X72495465Y-40135403D01*
X72440556Y-40180404D01*
X72370032Y-40188575D01*
X72306284Y-40157321D01*
X72285589Y-40132840D01*
X72284311Y-40130865D01*
X72281502Y-40126523D01*
X72119814Y-39948830D01*
X71994390Y-39849776D01*
X71935330Y-39803133D01*
X71935325Y-39803130D01*
X71931276Y-39799932D01*
X71926760Y-39797439D01*
X71926757Y-39797437D01*
X71725474Y-39686323D01*
X71725470Y-39686321D01*
X71720950Y-39683826D01*
X71716081Y-39682102D01*
X71716077Y-39682100D01*
X71499360Y-39605356D01*
X71499356Y-39605355D01*
X71494485Y-39603630D01*
X71489392Y-39602723D01*
X71489389Y-39602722D01*
X71263052Y-39562405D01*
X71263046Y-39562404D01*
X71257963Y-39561499D01*
X71170600Y-39560432D01*
X71022907Y-39558627D01*
X71022905Y-39558627D01*
X71017737Y-39558564D01*
X70780256Y-39594904D01*
X70676957Y-39628667D01*
X70556817Y-39667934D01*
X70556811Y-39667937D01*
X70551899Y-39669542D01*
X70547313Y-39671929D01*
X70547309Y-39671931D01*
X70450310Y-39722426D01*
X70338800Y-39780475D01*
X70334657Y-39783585D01*
X70334658Y-39783585D01*
X70192771Y-39890117D01*
X70146680Y-39924723D01*
X69980699Y-40098412D01*
X69955465Y-40135403D01*
X69900556Y-40180404D01*
X69830032Y-40188575D01*
X69766284Y-40157321D01*
X69745589Y-40132840D01*
X69744311Y-40130865D01*
X69741502Y-40126523D01*
X69579814Y-39948830D01*
X69454390Y-39849776D01*
X69395330Y-39803133D01*
X69395325Y-39803130D01*
X69391276Y-39799932D01*
X69386760Y-39797439D01*
X69386757Y-39797437D01*
X69185474Y-39686323D01*
X69185470Y-39686321D01*
X69180950Y-39683826D01*
X69176081Y-39682102D01*
X69176077Y-39682100D01*
X68959360Y-39605356D01*
X68959356Y-39605355D01*
X68954485Y-39603630D01*
X68949392Y-39602723D01*
X68949389Y-39602722D01*
X68723052Y-39562405D01*
X68723046Y-39562404D01*
X68717963Y-39561499D01*
X68630600Y-39560432D01*
X68482907Y-39558627D01*
X68482905Y-39558627D01*
X68477737Y-39558564D01*
X68240256Y-39594904D01*
X68136957Y-39628667D01*
X68016817Y-39667934D01*
X68016811Y-39667937D01*
X68011899Y-39669542D01*
X68007313Y-39671929D01*
X68007309Y-39671931D01*
X67910310Y-39722426D01*
X67798800Y-39780475D01*
X67794657Y-39783585D01*
X67794658Y-39783585D01*
X67652771Y-39890117D01*
X67606680Y-39924723D01*
X67440699Y-40098412D01*
X67415465Y-40135403D01*
X67360556Y-40180404D01*
X67290032Y-40188575D01*
X67226284Y-40157321D01*
X67205589Y-40132840D01*
X67204311Y-40130865D01*
X67201502Y-40126523D01*
X67039814Y-39948830D01*
X66914390Y-39849776D01*
X66855330Y-39803133D01*
X66855325Y-39803130D01*
X66851276Y-39799932D01*
X66846760Y-39797439D01*
X66846757Y-39797437D01*
X66645474Y-39686323D01*
X66645470Y-39686321D01*
X66640950Y-39683826D01*
X66636081Y-39682102D01*
X66636077Y-39682100D01*
X66419360Y-39605356D01*
X66419356Y-39605355D01*
X66414485Y-39603630D01*
X66409392Y-39602723D01*
X66409389Y-39602722D01*
X66183052Y-39562405D01*
X66183046Y-39562404D01*
X66177963Y-39561499D01*
X66090600Y-39560432D01*
X65942907Y-39558627D01*
X65942905Y-39558627D01*
X65937737Y-39558564D01*
X65700256Y-39594904D01*
X65596957Y-39628667D01*
X65476817Y-39667934D01*
X65476811Y-39667937D01*
X65471899Y-39669542D01*
X65467313Y-39671929D01*
X65467309Y-39671931D01*
X65370310Y-39722426D01*
X65258800Y-39780475D01*
X65254657Y-39783585D01*
X65254658Y-39783585D01*
X65112771Y-39890117D01*
X65066680Y-39924723D01*
X64900699Y-40098412D01*
X64875465Y-40135403D01*
X64820556Y-40180404D01*
X64750032Y-40188575D01*
X64686284Y-40157321D01*
X64665589Y-40132840D01*
X64664311Y-40130865D01*
X64661502Y-40126523D01*
X64499814Y-39948830D01*
X64374390Y-39849776D01*
X64315330Y-39803133D01*
X64315325Y-39803130D01*
X64311276Y-39799932D01*
X64306760Y-39797439D01*
X64306757Y-39797437D01*
X64105474Y-39686323D01*
X64105470Y-39686321D01*
X64100950Y-39683826D01*
X64096081Y-39682102D01*
X64096077Y-39682100D01*
X63879360Y-39605356D01*
X63879356Y-39605355D01*
X63874485Y-39603630D01*
X63869392Y-39602723D01*
X63869389Y-39602722D01*
X63643052Y-39562405D01*
X63643046Y-39562404D01*
X63637963Y-39561499D01*
X63550600Y-39560432D01*
X63402907Y-39558627D01*
X63402905Y-39558627D01*
X63397737Y-39558564D01*
X63160256Y-39594904D01*
X63056957Y-39628667D01*
X62936817Y-39667934D01*
X62936811Y-39667937D01*
X62931899Y-39669542D01*
X62927313Y-39671929D01*
X62927309Y-39671931D01*
X62830310Y-39722426D01*
X62718800Y-39780475D01*
X62714657Y-39783585D01*
X62714658Y-39783585D01*
X62572771Y-39890117D01*
X62526680Y-39924723D01*
X62360699Y-40098412D01*
X62335465Y-40135403D01*
X62280556Y-40180404D01*
X62210032Y-40188575D01*
X62146284Y-40157321D01*
X62125589Y-40132840D01*
X62124311Y-40130865D01*
X62121502Y-40126523D01*
X61959814Y-39948830D01*
X61834390Y-39849776D01*
X61775330Y-39803133D01*
X61775325Y-39803130D01*
X61771276Y-39799932D01*
X61766760Y-39797439D01*
X61766757Y-39797437D01*
X61565474Y-39686323D01*
X61565470Y-39686321D01*
X61560950Y-39683826D01*
X61556081Y-39682102D01*
X61556077Y-39682100D01*
X61339360Y-39605356D01*
X61339356Y-39605355D01*
X61334485Y-39603630D01*
X61329392Y-39602723D01*
X61329389Y-39602722D01*
X61103052Y-39562405D01*
X61103046Y-39562404D01*
X61097963Y-39561499D01*
X61010600Y-39560432D01*
X60862907Y-39558627D01*
X60862905Y-39558627D01*
X60857737Y-39558564D01*
X60620256Y-39594904D01*
X60516957Y-39628667D01*
X60396817Y-39667934D01*
X60396811Y-39667937D01*
X60391899Y-39669542D01*
X60387313Y-39671929D01*
X60387309Y-39671931D01*
X60290310Y-39722426D01*
X60178800Y-39780475D01*
X60174657Y-39783585D01*
X60174658Y-39783585D01*
X60032771Y-39890117D01*
X59986680Y-39924723D01*
X59820699Y-40098412D01*
X59795465Y-40135403D01*
X59740556Y-40180404D01*
X59670032Y-40188575D01*
X59606284Y-40157321D01*
X59585589Y-40132840D01*
X59584311Y-40130865D01*
X59581502Y-40126523D01*
X59419814Y-39948830D01*
X59294390Y-39849776D01*
X59235330Y-39803133D01*
X59235325Y-39803130D01*
X59231276Y-39799932D01*
X59226760Y-39797439D01*
X59226757Y-39797437D01*
X59025474Y-39686323D01*
X59025470Y-39686321D01*
X59020950Y-39683826D01*
X59016081Y-39682102D01*
X59016077Y-39682100D01*
X58799360Y-39605356D01*
X58799356Y-39605355D01*
X58794485Y-39603630D01*
X58789392Y-39602723D01*
X58789389Y-39602722D01*
X58563052Y-39562405D01*
X58563046Y-39562404D01*
X58557963Y-39561499D01*
X58470600Y-39560432D01*
X58322907Y-39558627D01*
X58322905Y-39558627D01*
X58317737Y-39558564D01*
X58080256Y-39594904D01*
X57976957Y-39628667D01*
X57856817Y-39667934D01*
X57856811Y-39667937D01*
X57851899Y-39669542D01*
X57847313Y-39671929D01*
X57847309Y-39671931D01*
X57750310Y-39722426D01*
X57638800Y-39780475D01*
X57634657Y-39783585D01*
X57634658Y-39783585D01*
X57492771Y-39890117D01*
X57446680Y-39924723D01*
X57280699Y-40098412D01*
X57255465Y-40135403D01*
X57200556Y-40180404D01*
X57130032Y-40188575D01*
X57066284Y-40157321D01*
X57045589Y-40132840D01*
X57044311Y-40130865D01*
X57041502Y-40126523D01*
X56879814Y-39948830D01*
X56754390Y-39849776D01*
X56695330Y-39803133D01*
X56695325Y-39803130D01*
X56691276Y-39799932D01*
X56686760Y-39797439D01*
X56686757Y-39797437D01*
X56485474Y-39686323D01*
X56485470Y-39686321D01*
X56480950Y-39683826D01*
X56476081Y-39682102D01*
X56476077Y-39682100D01*
X56259360Y-39605356D01*
X56259356Y-39605355D01*
X56254485Y-39603630D01*
X56249392Y-39602723D01*
X56249389Y-39602722D01*
X56023052Y-39562405D01*
X56023046Y-39562404D01*
X56017963Y-39561499D01*
X55930600Y-39560432D01*
X55782907Y-39558627D01*
X55782905Y-39558627D01*
X55777737Y-39558564D01*
X55540256Y-39594904D01*
X55436957Y-39628667D01*
X55316817Y-39667934D01*
X55316811Y-39667937D01*
X55311899Y-39669542D01*
X55307313Y-39671929D01*
X55307309Y-39671931D01*
X55210310Y-39722426D01*
X55098800Y-39780475D01*
X55094657Y-39783585D01*
X55094658Y-39783585D01*
X54952771Y-39890117D01*
X54906680Y-39924723D01*
X54740699Y-40098412D01*
X54715465Y-40135403D01*
X54660556Y-40180404D01*
X54590032Y-40188575D01*
X54526284Y-40157321D01*
X54505589Y-40132840D01*
X54504311Y-40130865D01*
X54501502Y-40126523D01*
X54339814Y-39948830D01*
X54214390Y-39849776D01*
X54155330Y-39803133D01*
X54155325Y-39803130D01*
X54151276Y-39799932D01*
X54146760Y-39797439D01*
X54146757Y-39797437D01*
X53945474Y-39686323D01*
X53945470Y-39686321D01*
X53940950Y-39683826D01*
X53936081Y-39682102D01*
X53936077Y-39682100D01*
X53719360Y-39605356D01*
X53719356Y-39605355D01*
X53714485Y-39603630D01*
X53709392Y-39602723D01*
X53709389Y-39602722D01*
X53483052Y-39562405D01*
X53483046Y-39562404D01*
X53477963Y-39561499D01*
X53390600Y-39560432D01*
X53242907Y-39558627D01*
X53242905Y-39558627D01*
X53237737Y-39558564D01*
X53000256Y-39594904D01*
X52896957Y-39628667D01*
X52776817Y-39667934D01*
X52776811Y-39667937D01*
X52771899Y-39669542D01*
X52767313Y-39671929D01*
X52767309Y-39671931D01*
X52670310Y-39722426D01*
X52558800Y-39780475D01*
X52554657Y-39783585D01*
X52554658Y-39783585D01*
X52412771Y-39890117D01*
X52366680Y-39924723D01*
X52200699Y-40098412D01*
X52175465Y-40135403D01*
X52120556Y-40180404D01*
X52050032Y-40188575D01*
X51986284Y-40157321D01*
X51965589Y-40132840D01*
X51964311Y-40130865D01*
X51961502Y-40126523D01*
X51799814Y-39948830D01*
X51674390Y-39849776D01*
X51615330Y-39803133D01*
X51615325Y-39803130D01*
X51611276Y-39799932D01*
X51606760Y-39797439D01*
X51606757Y-39797437D01*
X51405474Y-39686323D01*
X51405470Y-39686321D01*
X51400950Y-39683826D01*
X51396081Y-39682102D01*
X51396077Y-39682100D01*
X51179360Y-39605356D01*
X51179356Y-39605355D01*
X51174485Y-39603630D01*
X51169392Y-39602723D01*
X51169389Y-39602722D01*
X50943052Y-39562405D01*
X50943046Y-39562404D01*
X50937963Y-39561499D01*
X50850600Y-39560432D01*
X50702907Y-39558627D01*
X50702905Y-39558627D01*
X50697737Y-39558564D01*
X50460256Y-39594904D01*
X50356957Y-39628667D01*
X50236817Y-39667934D01*
X50236811Y-39667937D01*
X50231899Y-39669542D01*
X50227313Y-39671929D01*
X50227309Y-39671931D01*
X50130310Y-39722426D01*
X50018800Y-39780475D01*
X50014657Y-39783585D01*
X50014658Y-39783585D01*
X49872771Y-39890117D01*
X49826680Y-39924723D01*
X49660699Y-40098412D01*
X49635465Y-40135403D01*
X49580556Y-40180404D01*
X49510032Y-40188575D01*
X49446284Y-40157321D01*
X49425589Y-40132840D01*
X49424311Y-40130865D01*
X49421502Y-40126523D01*
X49259814Y-39948830D01*
X49134390Y-39849776D01*
X49075330Y-39803133D01*
X49075325Y-39803130D01*
X49071276Y-39799932D01*
X49066760Y-39797439D01*
X49066757Y-39797437D01*
X48865474Y-39686323D01*
X48865470Y-39686321D01*
X48860950Y-39683826D01*
X48856081Y-39682102D01*
X48856077Y-39682100D01*
X48639360Y-39605356D01*
X48639356Y-39605355D01*
X48634485Y-39603630D01*
X48629392Y-39602723D01*
X48629389Y-39602722D01*
X48403052Y-39562405D01*
X48403046Y-39562404D01*
X48397963Y-39561499D01*
X48310600Y-39560432D01*
X48162907Y-39558627D01*
X48162905Y-39558627D01*
X48157737Y-39558564D01*
X47920256Y-39594904D01*
X47816957Y-39628667D01*
X47696817Y-39667934D01*
X47696811Y-39667937D01*
X47691899Y-39669542D01*
X47687313Y-39671929D01*
X47687309Y-39671931D01*
X47590310Y-39722426D01*
X47478800Y-39780475D01*
X47474657Y-39783585D01*
X47474658Y-39783585D01*
X47332771Y-39890117D01*
X47286680Y-39924723D01*
X47219594Y-39994925D01*
X47209704Y-40005274D01*
X47148180Y-40040704D01*
X47077267Y-40037247D01*
X47020967Y-39997859D01*
X46900193Y-39849776D01*
X46896164Y-39844836D01*
X46741131Y-39718394D01*
X46563840Y-39625709D01*
X46371533Y-39570566D01*
X46338879Y-39567652D01*
X46255939Y-39560249D01*
X46255933Y-39560249D01*
X46253146Y-39560000D01*
X45186854Y-39560000D01*
X45184067Y-39560249D01*
X45184061Y-39560249D01*
X45101121Y-39567652D01*
X45068467Y-39570566D01*
X44876160Y-39625709D01*
X44698869Y-39718394D01*
X44543836Y-39844836D01*
X44417394Y-39999869D01*
X44324709Y-40177160D01*
X44269566Y-40369467D01*
X44259000Y-40487854D01*
X44259000Y-42062146D01*
X44269566Y-42180533D01*
X44324709Y-42372840D01*
X44327667Y-42378498D01*
X44384455Y-42487125D01*
X44398289Y-42556761D01*
X44372279Y-42622822D01*
X44314682Y-42664333D01*
X44272793Y-42671500D01*
X29426125Y-42671500D01*
X29358004Y-42651498D01*
X29311511Y-42597842D01*
X29301407Y-42527568D01*
X29330901Y-42462988D01*
X29343047Y-42450768D01*
X29557180Y-42262978D01*
X29560269Y-42260269D01*
X29570647Y-42248435D01*
X29755177Y-42038020D01*
X29755181Y-42038014D01*
X29757895Y-42034920D01*
X29924416Y-41785703D01*
X30056983Y-41516883D01*
X30077644Y-41456019D01*
X30152000Y-41236973D01*
X30152001Y-41236969D01*
X30153328Y-41233060D01*
X30154134Y-41229010D01*
X30211000Y-40943128D01*
X30211001Y-40943122D01*
X30211803Y-40939089D01*
X30216958Y-40860446D01*
X30231136Y-40644119D01*
X30231406Y-40640000D01*
X30221251Y-40485061D01*
X30212073Y-40345023D01*
X30212072Y-40345016D01*
X30211803Y-40340911D01*
X30210225Y-40332974D01*
X30154134Y-40050990D01*
X30154132Y-40050984D01*
X30153328Y-40046940D01*
X30139185Y-40005274D01*
X30058309Y-39767023D01*
X30058308Y-39767022D01*
X30056983Y-39763117D01*
X29924416Y-39494297D01*
X29757895Y-39245080D01*
X29755181Y-39241986D01*
X29755177Y-39241980D01*
X29562978Y-39022820D01*
X29560269Y-39019731D01*
X29477122Y-38946813D01*
X29338020Y-38824823D01*
X29338014Y-38824819D01*
X29334920Y-38822105D01*
X29085703Y-38655584D01*
X29082004Y-38653760D01*
X29081999Y-38653757D01*
X28877411Y-38552866D01*
X28816883Y-38523017D01*
X28677975Y-38475864D01*
X28536973Y-38428000D01*
X28536969Y-38427999D01*
X28533060Y-38426672D01*
X28529016Y-38425868D01*
X28529010Y-38425866D01*
X28243128Y-38369000D01*
X28243122Y-38368999D01*
X28239089Y-38368197D01*
X28234984Y-38367928D01*
X28234977Y-38367927D01*
X27944119Y-38348864D01*
X27940000Y-38348594D01*
X27935881Y-38348864D01*
X27645023Y-38367927D01*
X27645016Y-38367928D01*
X27640911Y-38368197D01*
X27636878Y-38368999D01*
X27636872Y-38369000D01*
X27350990Y-38425866D01*
X27350984Y-38425868D01*
X27346940Y-38426672D01*
X27343031Y-38427999D01*
X27343027Y-38428000D01*
X27202025Y-38475864D01*
X27063117Y-38523017D01*
X27002589Y-38552866D01*
X26798001Y-38653757D01*
X26797996Y-38653760D01*
X26794297Y-38655584D01*
X26545080Y-38822105D01*
X26541986Y-38824819D01*
X26541980Y-38824823D01*
X26402878Y-38946813D01*
X26319731Y-39019731D01*
X26317022Y-39022820D01*
X26129232Y-39236953D01*
X26069278Y-39274980D01*
X25998283Y-39274558D01*
X25938786Y-39235819D01*
X25909678Y-39171064D01*
X25908500Y-39153875D01*
X25908500Y-29171113D01*
X28862280Y-29171113D01*
X28882676Y-29430263D01*
X28943360Y-29683033D01*
X29042839Y-29923197D01*
X29178664Y-30144842D01*
X29347489Y-30342511D01*
X29545158Y-30511336D01*
X29766803Y-30647161D01*
X29771373Y-30649054D01*
X29771375Y-30649055D01*
X30002394Y-30744746D01*
X30006967Y-30746640D01*
X30093430Y-30767398D01*
X30254924Y-30806169D01*
X30254930Y-30806170D01*
X30259737Y-30807324D01*
X30362190Y-30815387D01*
X30451542Y-30822420D01*
X30451549Y-30822420D01*
X30453998Y-30822613D01*
X97183034Y-30822613D01*
X97185483Y-30822420D01*
X97185490Y-30822420D01*
X97274842Y-30815387D01*
X97377295Y-30807324D01*
X97382102Y-30806170D01*
X97382108Y-30806169D01*
X97543602Y-30767398D01*
X97630065Y-30746640D01*
X97634638Y-30744746D01*
X97865657Y-30649055D01*
X97865659Y-30649054D01*
X97870229Y-30647161D01*
X98091874Y-30511336D01*
X98289543Y-30342511D01*
X98458368Y-30144842D01*
X98594193Y-29923197D01*
X98693672Y-29683033D01*
X98754356Y-29430263D01*
X98774752Y-29171113D01*
X98754356Y-28911963D01*
X98693672Y-28659193D01*
X98594193Y-28419029D01*
X98458368Y-28197384D01*
X98289543Y-27999715D01*
X98091874Y-27830890D01*
X97870229Y-27695065D01*
X97865659Y-27693172D01*
X97865657Y-27693171D01*
X97634638Y-27597480D01*
X97634636Y-27597479D01*
X97630065Y-27595586D01*
X97543602Y-27574828D01*
X97382108Y-27536057D01*
X97382102Y-27536056D01*
X97377295Y-27534902D01*
X97274842Y-27526839D01*
X97185490Y-27519806D01*
X97185483Y-27519806D01*
X97183034Y-27519613D01*
X66467969Y-27519613D01*
X66399848Y-27499611D01*
X66378874Y-27482708D01*
X65642913Y-26746747D01*
X65608887Y-26684435D01*
X65606008Y-26657652D01*
X65606008Y-25416074D01*
X65606017Y-25414535D01*
X65607381Y-25302906D01*
X65607381Y-25302904D01*
X65607444Y-25297737D01*
X65606662Y-25292624D01*
X65606315Y-25287671D01*
X65606008Y-25278878D01*
X65606008Y-25148598D01*
X65604832Y-25134285D01*
X65591754Y-24975224D01*
X65591330Y-24970063D01*
X65532802Y-24737056D01*
X65437005Y-24516737D01*
X65306510Y-24315023D01*
X65144822Y-24137330D01*
X65067991Y-24076653D01*
X64960338Y-23991633D01*
X64960333Y-23991630D01*
X64956284Y-23988432D01*
X64951768Y-23985939D01*
X64951765Y-23985937D01*
X64750482Y-23874823D01*
X64750478Y-23874821D01*
X64745958Y-23872326D01*
X64741089Y-23870602D01*
X64741085Y-23870600D01*
X64524368Y-23793856D01*
X64524364Y-23793855D01*
X64519493Y-23792130D01*
X64514400Y-23791223D01*
X64514397Y-23791222D01*
X64288060Y-23750905D01*
X64288054Y-23750904D01*
X64282971Y-23749999D01*
X64195608Y-23748932D01*
X64047915Y-23747127D01*
X64047913Y-23747127D01*
X64042745Y-23747064D01*
X63805264Y-23783404D01*
X63693011Y-23820094D01*
X63581825Y-23856434D01*
X63581819Y-23856437D01*
X63576907Y-23858042D01*
X63572321Y-23860429D01*
X63572317Y-23860431D01*
X63448738Y-23924763D01*
X63390557Y-23939000D01*
X62359207Y-23939000D01*
X62298314Y-23923309D01*
X62258787Y-23901489D01*
X62205958Y-23872326D01*
X62201089Y-23870602D01*
X62201085Y-23870600D01*
X61984368Y-23793856D01*
X61984364Y-23793855D01*
X61979493Y-23792130D01*
X61974400Y-23791223D01*
X61974397Y-23791222D01*
X61748060Y-23750905D01*
X61748054Y-23750904D01*
X61742971Y-23749999D01*
X61655608Y-23748932D01*
X61507915Y-23747127D01*
X61507913Y-23747127D01*
X61502745Y-23747064D01*
X61265264Y-23783404D01*
X61153011Y-23820094D01*
X61041825Y-23856434D01*
X61041819Y-23856437D01*
X61036907Y-23858042D01*
X61032321Y-23860429D01*
X61032317Y-23860431D01*
X60934037Y-23911593D01*
X60823808Y-23968975D01*
X60631688Y-24113223D01*
X60465707Y-24286912D01*
X60330322Y-24485378D01*
X60328148Y-24490061D01*
X60328146Y-24490065D01*
X60231350Y-24698595D01*
X60229171Y-24703290D01*
X60164968Y-24934798D01*
X60164419Y-24939935D01*
X60152384Y-25052554D01*
X60144008Y-25130928D01*
X60144008Y-25383926D01*
X60143999Y-25385464D01*
X60142572Y-25502263D01*
X60143354Y-25507376D01*
X60143701Y-25512329D01*
X60144008Y-25521122D01*
X60144008Y-25932096D01*
X60142751Y-25949849D01*
X60141582Y-25958064D01*
X60141699Y-25963226D01*
X60141699Y-25963228D01*
X60143976Y-26063568D01*
X60144008Y-26066426D01*
X60144008Y-26637636D01*
X60124006Y-26705757D01*
X60107103Y-26726731D01*
X59351126Y-27482708D01*
X59288814Y-27516734D01*
X59262031Y-27519613D01*
X30453998Y-27519613D01*
X30451549Y-27519806D01*
X30451542Y-27519806D01*
X30362190Y-27526839D01*
X30259737Y-27534902D01*
X30254930Y-27536056D01*
X30254924Y-27536057D01*
X30093430Y-27574828D01*
X30006967Y-27595586D01*
X30002396Y-27597479D01*
X30002394Y-27597480D01*
X29771375Y-27693171D01*
X29771373Y-27693172D01*
X29766803Y-27695065D01*
X29545158Y-27830890D01*
X29347489Y-27999715D01*
X29178664Y-28197384D01*
X29042839Y-28419029D01*
X28943360Y-28659193D01*
X28882676Y-28911963D01*
X28862280Y-29171113D01*
X25908500Y-29171113D01*
X25908500Y-26759125D01*
X25928502Y-26691004D01*
X25982158Y-26644511D01*
X26052432Y-26634407D01*
X26117012Y-26663901D01*
X26129232Y-26676047D01*
X26202090Y-26759125D01*
X26319731Y-26893269D01*
X26322820Y-26895978D01*
X26541980Y-27088177D01*
X26541986Y-27088181D01*
X26545080Y-27090895D01*
X26794297Y-27257416D01*
X26797996Y-27259240D01*
X26798001Y-27259243D01*
X26935905Y-27327249D01*
X27063117Y-27389983D01*
X27067022Y-27391308D01*
X27067023Y-27391309D01*
X27343027Y-27485000D01*
X27343031Y-27485001D01*
X27346940Y-27486328D01*
X27350984Y-27487132D01*
X27350990Y-27487134D01*
X27636872Y-27544000D01*
X27636878Y-27544001D01*
X27640911Y-27544803D01*
X27645016Y-27545072D01*
X27645023Y-27545073D01*
X27935881Y-27564136D01*
X27940000Y-27564406D01*
X27944119Y-27564136D01*
X28234977Y-27545073D01*
X28234984Y-27545072D01*
X28239089Y-27544803D01*
X28243122Y-27544001D01*
X28243128Y-27544000D01*
X28529010Y-27487134D01*
X28529016Y-27487132D01*
X28533060Y-27486328D01*
X28536969Y-27485001D01*
X28536973Y-27485000D01*
X28812977Y-27391309D01*
X28812978Y-27391308D01*
X28816883Y-27389983D01*
X28944095Y-27327249D01*
X29081999Y-27259243D01*
X29082004Y-27259240D01*
X29085703Y-27257416D01*
X29334920Y-27090895D01*
X29338014Y-27088181D01*
X29338020Y-27088177D01*
X29557180Y-26895978D01*
X29560269Y-26893269D01*
X29562978Y-26890180D01*
X29755177Y-26671020D01*
X29755181Y-26671014D01*
X29757895Y-26667920D01*
X29924416Y-26418703D01*
X30056983Y-26149883D01*
X30085313Y-26066426D01*
X30152000Y-25869973D01*
X30152001Y-25869969D01*
X30153328Y-25866060D01*
X30211803Y-25572089D01*
X30215144Y-25521122D01*
X30231136Y-25277119D01*
X30231406Y-25273000D01*
X30223422Y-25151187D01*
X30212073Y-24978023D01*
X30212072Y-24978016D01*
X30211803Y-24973911D01*
X30210040Y-24965044D01*
X30154134Y-24683990D01*
X30154132Y-24683984D01*
X30153328Y-24679940D01*
X30096456Y-24512399D01*
X30058309Y-24400023D01*
X30058308Y-24400022D01*
X30056983Y-24396117D01*
X29924416Y-24127297D01*
X29757895Y-23878080D01*
X29755181Y-23874986D01*
X29755177Y-23874980D01*
X29562978Y-23655820D01*
X29560269Y-23652731D01*
X29557180Y-23650022D01*
X29557173Y-23650015D01*
X29487863Y-23589232D01*
X29449835Y-23529279D01*
X29450257Y-23458283D01*
X29488995Y-23398786D01*
X29553750Y-23369678D01*
X29570940Y-23368500D01*
X99969060Y-23368500D01*
X100037181Y-23388502D01*
G37*
%TD.AperFunction*%
%TD*%
M02*
