%TF.GenerationSoftware,KiCad,Pcbnew,(6.0.4)*%
%TF.CreationDate,2022-09-19T09:43:28-03:00*%
%TF.ProjectId,Placa de sensores,506c6163-6120-4646-9520-73656e736f72,rev?*%
%TF.SameCoordinates,Original*%
%TF.FileFunction,Copper,L1,Top*%
%TF.FilePolarity,Positive*%
%FSLAX46Y46*%
G04 Gerber Fmt 4.6, Leading zero omitted, Abs format (unit mm)*
G04 Created by KiCad (PCBNEW (6.0.4)) date 2022-09-19 09:43:28*
%MOMM*%
%LPD*%
G01*
G04 APERTURE LIST*
G04 Aperture macros list*
%AMRoundRect*
0 Rectangle with rounded corners*
0 $1 Rounding radius*
0 $2 $3 $4 $5 $6 $7 $8 $9 X,Y pos of 4 corners*
0 Add a 4 corners polygon primitive as box body*
4,1,4,$2,$3,$4,$5,$6,$7,$8,$9,$2,$3,0*
0 Add four circle primitives for the rounded corners*
1,1,$1+$1,$2,$3*
1,1,$1+$1,$4,$5*
1,1,$1+$1,$6,$7*
1,1,$1+$1,$8,$9*
0 Add four rect primitives between the rounded corners*
20,1,$1+$1,$2,$3,$4,$5,0*
20,1,$1+$1,$4,$5,$6,$7,0*
20,1,$1+$1,$6,$7,$8,$9,0*
20,1,$1+$1,$8,$9,$2,$3,0*%
G04 Aperture macros list end*
%TA.AperFunction,SMDPad,CuDef*%
%ADD10RoundRect,0.285750X-0.476250X-0.285750X0.476250X-0.285750X0.476250X0.285750X-0.476250X0.285750X0*%
%TD*%
%TA.AperFunction,SMDPad,CuDef*%
%ADD11RoundRect,0.285750X-0.285750X-0.476250X0.285750X-0.476250X0.285750X0.476250X-0.285750X0.476250X0*%
%TD*%
%TA.AperFunction,ComponentPad*%
%ADD12RoundRect,0.476250X0.476250X-0.730250X0.476250X0.730250X-0.476250X0.730250X-0.476250X-0.730250X0*%
%TD*%
%TA.AperFunction,ComponentPad*%
%ADD13O,1.905000X2.413000*%
%TD*%
%TA.AperFunction,ComponentPad*%
%ADD14RoundRect,0.476250X0.476250X-0.666750X0.476250X0.666750X-0.476250X0.666750X-0.476250X-0.666750X0*%
%TD*%
%TA.AperFunction,ComponentPad*%
%ADD15O,1.905000X2.286000*%
%TD*%
%TA.AperFunction,ViaPad*%
%ADD16C,1.778000*%
%TD*%
%TA.AperFunction,Conductor*%
%ADD17C,1.016000*%
%TD*%
%TA.AperFunction,Conductor*%
%ADD18C,1.905000*%
%TD*%
%TA.AperFunction,Conductor*%
%ADD19C,0.762000*%
%TD*%
G04 APERTURE END LIST*
D10*
%TO.P,U7,1,VCC*%
%TO.N,+5V*%
X57180000Y-32171600D03*
%TO.P,U7,2,OUT*%
%TO.N,/s7*%
X57180000Y-34071600D03*
D11*
%TO.P,U7,3,GND*%
%TO.N,GND*%
X59055000Y-33121600D03*
%TD*%
D10*
%TO.P,U11,1,VCC*%
%TO.N,+5V*%
X74960000Y-32171600D03*
%TO.P,U11,2,OUT*%
%TO.N,/s11*%
X74960000Y-34071600D03*
D11*
%TO.P,U11,3,GND*%
%TO.N,GND*%
X76835000Y-33121600D03*
%TD*%
D12*
%TO.P,J1,1,Pin_1*%
%TO.N,/s1*%
X45720000Y-41275000D03*
D13*
%TO.P,J1,2,Pin_2*%
%TO.N,/s2*%
X48260000Y-41275000D03*
%TO.P,J1,3,Pin_3*%
%TO.N,/s3*%
X50800000Y-41275000D03*
%TO.P,J1,4,Pin_4*%
%TO.N,/s4*%
X53340000Y-41275000D03*
%TO.P,J1,5,Pin_5*%
%TO.N,/s5*%
X55880000Y-41275000D03*
%TO.P,J1,6,Pin_6*%
%TO.N,/s6*%
X58420000Y-41275000D03*
%TO.P,J1,7,Pin_7*%
%TO.N,/s7*%
X60960000Y-41275000D03*
%TO.P,J1,8,Pin_8*%
%TO.N,/s8*%
X63500000Y-41275000D03*
%TO.P,J1,9,Pin_9*%
%TO.N,/s9*%
X66040000Y-41275000D03*
%TO.P,J1,10,Pin_10*%
%TO.N,/s10*%
X68580000Y-41275000D03*
%TO.P,J1,11,Pin_11*%
%TO.N,/s11*%
X71120000Y-41275000D03*
%TO.P,J1,12,Pin_12*%
%TO.N,/s12*%
X73660000Y-41275000D03*
%TO.P,J1,13,Pin_13*%
%TO.N,/s13*%
X76200000Y-41275000D03*
%TO.P,J1,14,Pin_14*%
%TO.N,/s14*%
X78740000Y-41275000D03*
%TO.P,J1,15,Pin_15*%
%TO.N,/s15*%
X81280000Y-41275000D03*
%TO.P,J1,16,Pin_16*%
%TO.N,/s16*%
X83820000Y-41275000D03*
%TD*%
D10*
%TO.P,U12,1,VCC*%
%TO.N,+5V*%
X79405000Y-32171600D03*
%TO.P,U12,2,OUT*%
%TO.N,/s12*%
X79405000Y-34071600D03*
D11*
%TO.P,U12,3,GND*%
%TO.N,GND*%
X81280000Y-33121600D03*
%TD*%
D10*
%TO.P,U10,1,VCC*%
%TO.N,+5V*%
X70515000Y-32171600D03*
%TO.P,U10,2,OUT*%
%TO.N,/s10*%
X70515000Y-34071600D03*
D11*
%TO.P,U10,3,GND*%
%TO.N,GND*%
X72390000Y-33121600D03*
%TD*%
D10*
%TO.P,U5,1,VCC*%
%TO.N,+5V*%
X48290000Y-32171600D03*
%TO.P,U5,2,OUT*%
%TO.N,/s5*%
X48290000Y-34071600D03*
D11*
%TO.P,U5,3,GND*%
%TO.N,GND*%
X50165000Y-33121600D03*
%TD*%
D10*
%TO.P,U2,1,VCC*%
%TO.N,+5V*%
X34955000Y-32171600D03*
%TO.P,U2,2,OUT*%
%TO.N,/s2*%
X34955000Y-34071600D03*
D11*
%TO.P,U2,3,GND*%
%TO.N,GND*%
X36830000Y-33121600D03*
%TD*%
D14*
%TO.P,J2,1,Pin_1*%
%TO.N,GND*%
X59065008Y-25400000D03*
D15*
%TO.P,J2,2,Pin_2*%
%TO.N,+5V*%
X61605008Y-25400000D03*
%TO.P,J2,3,Pin_3*%
X64145008Y-25400000D03*
%TO.P,J2,4,Pin_4*%
%TO.N,GND*%
X66685008Y-25400000D03*
%TD*%
D10*
%TO.P,U13,1,VCC*%
%TO.N,+5V*%
X83850000Y-32171600D03*
%TO.P,U13,2,OUT*%
%TO.N,/s13*%
X83850000Y-34071600D03*
D11*
%TO.P,U13,3,GND*%
%TO.N,GND*%
X85725000Y-33121600D03*
%TD*%
D10*
%TO.P,U4,1,VCC*%
%TO.N,+5V*%
X43845000Y-32171600D03*
%TO.P,U4,2,OUT*%
%TO.N,/s4*%
X43845000Y-34071600D03*
D11*
%TO.P,U4,3,GND*%
%TO.N,GND*%
X45720000Y-33121600D03*
%TD*%
D10*
%TO.P,U9,1,VCC*%
%TO.N,+5V*%
X66070000Y-32171600D03*
%TO.P,U9,2,OUT*%
%TO.N,/s9*%
X66070000Y-34071600D03*
D11*
%TO.P,U9,3,GND*%
%TO.N,GND*%
X67945000Y-33121600D03*
%TD*%
D10*
%TO.P,U15,1,VCC*%
%TO.N,+5V*%
X92740000Y-32171600D03*
%TO.P,U15,2,OUT*%
%TO.N,/s15*%
X92740000Y-34071600D03*
D11*
%TO.P,U15,3,GND*%
%TO.N,GND*%
X94615000Y-33121600D03*
%TD*%
D10*
%TO.P,U8,1,VCC*%
%TO.N,+5V*%
X61625000Y-32171600D03*
%TO.P,U8,2,OUT*%
%TO.N,/s8*%
X61625000Y-34071600D03*
D11*
%TO.P,U8,3,GND*%
%TO.N,GND*%
X63500000Y-33121600D03*
%TD*%
D10*
%TO.P,U1,1,VCC*%
%TO.N,+5V*%
X30480000Y-32171600D03*
%TO.P,U1,2,OUT*%
%TO.N,/s1*%
X30480000Y-34071600D03*
D11*
%TO.P,U1,3,GND*%
%TO.N,GND*%
X32355000Y-33121600D03*
%TD*%
D10*
%TO.P,U14,1,VCC*%
%TO.N,+5V*%
X88295000Y-32171600D03*
%TO.P,U14,2,OUT*%
%TO.N,/s14*%
X88295000Y-34071600D03*
D11*
%TO.P,U14,3,GND*%
%TO.N,GND*%
X90170000Y-33121600D03*
%TD*%
D10*
%TO.P,U6,1,VCC*%
%TO.N,+5V*%
X52735000Y-32171600D03*
%TO.P,U6,2,OUT*%
%TO.N,/s6*%
X52735000Y-34071600D03*
D11*
%TO.P,U6,3,GND*%
%TO.N,GND*%
X54610000Y-33121600D03*
%TD*%
D10*
%TO.P,U3,1,VCC*%
%TO.N,+5V*%
X39400000Y-32171600D03*
%TO.P,U3,2,OUT*%
%TO.N,/s3*%
X39400000Y-34071600D03*
D11*
%TO.P,U3,3,GND*%
%TO.N,GND*%
X41275000Y-33121600D03*
%TD*%
D10*
%TO.P,U16,1,VCC*%
%TO.N,+5V*%
X97185000Y-32171600D03*
%TO.P,U16,2,OUT*%
%TO.N,/s16*%
X97185000Y-34071600D03*
D11*
%TO.P,U16,3,GND*%
%TO.N,GND*%
X99060000Y-33121600D03*
%TD*%
D16*
%TO.N,+5V*%
X57150000Y-29210000D03*
X61595000Y-29210000D03*
X92710000Y-29210000D03*
X34925000Y-29210000D03*
X39370000Y-29210000D03*
X70485000Y-29210000D03*
X97118141Y-29171103D03*
X66040000Y-29210000D03*
X52705000Y-29210000D03*
X74930000Y-29210000D03*
X43815000Y-29210000D03*
X83820000Y-29210000D03*
X88265000Y-29210000D03*
X48260000Y-29210000D03*
X79375000Y-29210000D03*
X30480000Y-29210000D03*
%TD*%
D17*
%TO.N,+5V*%
X66070000Y-32171600D02*
X66070000Y-29240000D01*
X70515000Y-29240000D02*
X70485000Y-29210000D01*
X83850000Y-29240000D02*
X83820000Y-29210000D01*
D18*
X61605008Y-27950008D02*
X61605008Y-29199992D01*
D17*
X66070000Y-29240000D02*
X66040000Y-29210000D01*
D18*
X61605008Y-25400000D02*
X61605008Y-27950008D01*
D17*
X48290000Y-29240000D02*
X48260000Y-29210000D01*
X61625000Y-29240000D02*
X61595000Y-29210000D01*
X30480000Y-29210000D02*
X30480000Y-32171600D01*
X74960000Y-32171600D02*
X74960000Y-29240000D01*
D18*
X64145008Y-25410008D02*
X61605008Y-27950008D01*
D17*
X57180000Y-29240000D02*
X57150000Y-29210000D01*
X39400000Y-32171600D02*
X39400000Y-29240000D01*
X52735000Y-32171600D02*
X52735000Y-29240000D01*
X83850000Y-32171600D02*
X83850000Y-29240000D01*
X64145000Y-25400000D02*
X64145000Y-25410016D01*
X88295000Y-32171600D02*
X88295000Y-29240000D01*
X79405000Y-32171600D02*
X79405000Y-29240000D01*
X92740000Y-29240000D02*
X92710000Y-29210000D01*
X97185000Y-29237962D02*
X97118141Y-29171103D01*
X92740000Y-32171600D02*
X92740000Y-29240000D01*
X43845000Y-29240000D02*
X43815000Y-29210000D01*
X39400000Y-29240000D02*
X39370000Y-29210000D01*
X64145000Y-25400000D02*
X64135000Y-25400000D01*
X74960000Y-29240000D02*
X74930000Y-29210000D01*
X79405000Y-29240000D02*
X79375000Y-29210000D01*
X34955000Y-29240000D02*
X34925000Y-29210000D01*
X34955000Y-32171600D02*
X34955000Y-29240000D01*
X48290000Y-32171600D02*
X48290000Y-29240000D01*
X43845000Y-32171600D02*
X43845000Y-29240000D01*
X52735000Y-29240000D02*
X52705000Y-29210000D01*
X88295000Y-29240000D02*
X88265000Y-29210000D01*
X97185000Y-32171600D02*
X97185000Y-29237962D01*
X61625000Y-32171600D02*
X61625000Y-29240000D01*
X70515000Y-32171600D02*
X70515000Y-29240000D01*
D18*
X61605008Y-25400000D02*
X64145008Y-25400000D01*
D17*
X57180000Y-32171600D02*
X57180000Y-29240000D01*
D19*
%TO.N,/s16*%
X97185000Y-34071600D02*
X89981600Y-41275000D01*
X89981600Y-41275000D02*
X83820000Y-41275000D01*
%TO.N,/s1*%
X37683400Y-41275000D02*
X45720000Y-41275000D01*
X30480000Y-34071600D02*
X37683400Y-41275000D01*
%TO.N,/s2*%
X34955000Y-34071600D02*
X39618400Y-38735000D01*
X39618400Y-38735000D02*
X46990000Y-38735000D01*
X48260000Y-40005000D02*
X48260000Y-41275000D01*
X46990000Y-38735000D02*
X48260000Y-40005000D01*
%TO.N,/s3*%
X47625000Y-37465000D02*
X50800000Y-40640000D01*
X41910000Y-37465000D02*
X47625000Y-37465000D01*
X39400000Y-34955000D02*
X41910000Y-37465000D01*
X39400000Y-34071600D02*
X39400000Y-34955000D01*
X50800000Y-40640000D02*
X50800000Y-41275000D01*
%TO.N,/s4*%
X45085000Y-36195000D02*
X48895000Y-36195000D01*
X48895000Y-36195000D02*
X53340000Y-40640000D01*
X43845000Y-34071600D02*
X43845000Y-34955000D01*
X43845000Y-34955000D02*
X45085000Y-36195000D01*
X53340000Y-40640000D02*
X53340000Y-41275000D01*
%TO.N,/s5*%
X50165000Y-34925000D02*
X55880000Y-40640000D01*
X48895000Y-34925000D02*
X50165000Y-34925000D01*
X55880000Y-40640000D02*
X55880000Y-41275000D01*
X48290000Y-34320000D02*
X48895000Y-34925000D01*
X48290000Y-34071600D02*
X48290000Y-34320000D01*
%TO.N,/s6*%
X52735000Y-34071600D02*
X52735000Y-34320000D01*
X52735000Y-34320000D02*
X58420000Y-40005000D01*
X58420000Y-40005000D02*
X58420000Y-41275000D01*
%TO.N,/s7*%
X60960000Y-39370000D02*
X60960000Y-41275000D01*
X57180000Y-35590000D02*
X60960000Y-39370000D01*
X57180000Y-34071600D02*
X57180000Y-35590000D01*
%TO.N,/s8*%
X61625000Y-35590000D02*
X63500000Y-37465000D01*
X63500000Y-37465000D02*
X63500000Y-41275000D01*
X61625000Y-34071600D02*
X61625000Y-35590000D01*
%TO.N,/s9*%
X66070000Y-34071600D02*
X66070000Y-41245000D01*
X66070000Y-41245000D02*
X66040000Y-41275000D01*
%TO.N,/s10*%
X68580000Y-36195000D02*
X68580000Y-41275000D01*
X70515000Y-34260000D02*
X68580000Y-36195000D01*
X70515000Y-34071600D02*
X70515000Y-34260000D01*
%TO.N,/s11*%
X71120000Y-39370000D02*
X71120000Y-41275000D01*
X74960000Y-34071600D02*
X74960000Y-35530000D01*
X74960000Y-35530000D02*
X71120000Y-39370000D01*
%TO.N,/s12*%
X79405000Y-34071600D02*
X79405000Y-34895000D01*
X79405000Y-34895000D02*
X73660000Y-40640000D01*
X73660000Y-40640000D02*
X73660000Y-41275000D01*
%TO.N,/s13*%
X76200000Y-40005000D02*
X76200000Y-41275000D01*
X82550000Y-36195000D02*
X80010000Y-36195000D01*
X80010000Y-36195000D02*
X76200000Y-40005000D01*
X83850000Y-34071600D02*
X83850000Y-34895000D01*
X83850000Y-34895000D02*
X82550000Y-36195000D01*
%TO.N,/s14*%
X88295000Y-36800000D02*
X87630000Y-37465000D01*
X87630000Y-37465000D02*
X81280000Y-37465000D01*
X81280000Y-37465000D02*
X78740000Y-40005000D01*
X88295000Y-34071600D02*
X88295000Y-36800000D01*
X78740000Y-40005000D02*
X78740000Y-41275000D01*
%TO.N,/s15*%
X89535000Y-38735000D02*
X82550000Y-38735000D01*
X82550000Y-38735000D02*
X81280000Y-40005000D01*
X92710000Y-35560000D02*
X89535000Y-38735000D01*
X92710000Y-34101600D02*
X92710000Y-35560000D01*
X81280000Y-40005000D02*
X81280000Y-41275000D01*
X92740000Y-34071600D02*
X92710000Y-34101600D01*
%TD*%
%TA.AperFunction,Conductor*%
%TO.N,GND*%
G36*
X100037181Y-23388502D02*
G01*
X100083674Y-23442158D01*
X100093778Y-23512432D01*
X100064284Y-23577012D01*
X100052137Y-23589232D01*
X99982827Y-23650015D01*
X99982820Y-23650022D01*
X99979731Y-23652731D01*
X99977022Y-23655820D01*
X99784823Y-23874980D01*
X99784819Y-23874986D01*
X99782105Y-23878080D01*
X99615584Y-24127297D01*
X99483017Y-24396117D01*
X99481692Y-24400022D01*
X99481691Y-24400023D01*
X99443545Y-24512399D01*
X99386672Y-24679940D01*
X99385868Y-24683984D01*
X99385866Y-24683990D01*
X99329961Y-24965044D01*
X99328197Y-24973911D01*
X99327928Y-24978016D01*
X99327927Y-24978023D01*
X99316578Y-25151187D01*
X99308594Y-25273000D01*
X99308864Y-25277119D01*
X99324857Y-25521122D01*
X99328197Y-25572089D01*
X99328999Y-25576122D01*
X99329000Y-25576128D01*
X99385866Y-25862010D01*
X99386672Y-25866060D01*
X99387999Y-25869969D01*
X99388000Y-25869973D01*
X99464967Y-26096710D01*
X99483017Y-26149883D01*
X99615584Y-26418703D01*
X99782105Y-26667920D01*
X99784819Y-26671014D01*
X99784823Y-26671020D01*
X99922417Y-26827915D01*
X99979731Y-26893269D01*
X99982820Y-26895978D01*
X100201980Y-27088177D01*
X100201986Y-27088181D01*
X100205080Y-27090895D01*
X100454297Y-27257416D01*
X100457996Y-27259240D01*
X100458001Y-27259243D01*
X100595905Y-27327249D01*
X100723117Y-27389983D01*
X100727022Y-27391308D01*
X100727023Y-27391309D01*
X101003027Y-27485000D01*
X101003031Y-27485001D01*
X101006940Y-27486328D01*
X101010984Y-27487132D01*
X101010990Y-27487134D01*
X101296872Y-27544000D01*
X101296878Y-27544001D01*
X101300911Y-27544803D01*
X101305016Y-27545072D01*
X101305023Y-27545073D01*
X101595881Y-27564136D01*
X101600000Y-27564406D01*
X101604119Y-27564136D01*
X101894977Y-27545073D01*
X101894984Y-27545072D01*
X101899089Y-27544803D01*
X101903122Y-27544001D01*
X101903128Y-27544000D01*
X102189010Y-27487134D01*
X102189016Y-27487132D01*
X102193060Y-27486328D01*
X102196969Y-27485001D01*
X102196973Y-27485000D01*
X102472977Y-27391309D01*
X102472978Y-27391308D01*
X102476883Y-27389983D01*
X102604095Y-27327249D01*
X102741999Y-27259243D01*
X102742004Y-27259240D01*
X102745703Y-27257416D01*
X102994920Y-27090895D01*
X102998014Y-27088181D01*
X102998020Y-27088177D01*
X103217180Y-26895978D01*
X103220269Y-26893269D01*
X103404636Y-26683039D01*
X103410768Y-26676047D01*
X103470722Y-26638020D01*
X103541717Y-26638442D01*
X103601214Y-26677181D01*
X103630322Y-26741936D01*
X103631500Y-26759125D01*
X103631500Y-39280875D01*
X103611498Y-39348996D01*
X103557842Y-39395489D01*
X103487568Y-39405593D01*
X103422988Y-39376099D01*
X103410768Y-39363953D01*
X103222978Y-39149820D01*
X103220269Y-39146731D01*
X103183050Y-39114091D01*
X102998020Y-38951823D01*
X102998014Y-38951819D01*
X102994920Y-38949105D01*
X102745703Y-38782584D01*
X102742004Y-38780760D01*
X102741999Y-38780757D01*
X102546830Y-38684511D01*
X102476883Y-38650017D01*
X102472977Y-38648691D01*
X102196973Y-38555000D01*
X102196969Y-38554999D01*
X102193060Y-38553672D01*
X102189016Y-38552868D01*
X102189010Y-38552866D01*
X101903128Y-38496000D01*
X101903122Y-38495999D01*
X101899089Y-38495197D01*
X101894984Y-38494928D01*
X101894977Y-38494927D01*
X101604119Y-38475864D01*
X101600000Y-38475594D01*
X101595881Y-38475864D01*
X101305023Y-38494927D01*
X101305016Y-38494928D01*
X101300911Y-38495197D01*
X101296878Y-38495999D01*
X101296872Y-38496000D01*
X101010990Y-38552866D01*
X101010984Y-38552868D01*
X101006940Y-38553672D01*
X101003031Y-38554999D01*
X101003027Y-38555000D01*
X100727023Y-38648691D01*
X100723117Y-38650017D01*
X100653170Y-38684511D01*
X100458001Y-38780757D01*
X100457996Y-38780760D01*
X100454297Y-38782584D01*
X100205080Y-38949105D01*
X100201986Y-38951819D01*
X100201980Y-38951823D01*
X100016950Y-39114091D01*
X99979731Y-39146731D01*
X99977022Y-39149820D01*
X99784823Y-39368980D01*
X99784819Y-39368986D01*
X99782105Y-39372080D01*
X99615584Y-39621297D01*
X99613760Y-39624996D01*
X99613757Y-39625001D01*
X99568500Y-39716774D01*
X99483017Y-39890117D01*
X99481692Y-39894022D01*
X99481691Y-39894023D01*
X99400624Y-40132840D01*
X99386672Y-40173940D01*
X99385868Y-40177984D01*
X99385866Y-40177990D01*
X99337816Y-40419554D01*
X99328197Y-40467911D01*
X99327928Y-40472016D01*
X99327927Y-40472023D01*
X99317188Y-40635881D01*
X99308594Y-40767000D01*
X99308864Y-40771119D01*
X99323043Y-40987446D01*
X99328197Y-41066089D01*
X99328999Y-41070122D01*
X99329000Y-41070128D01*
X99385866Y-41356010D01*
X99386672Y-41360060D01*
X99387999Y-41363969D01*
X99388000Y-41363973D01*
X99481691Y-41639977D01*
X99483017Y-41643883D01*
X99484841Y-41647581D01*
X99598414Y-41877885D01*
X99615584Y-41912703D01*
X99782105Y-42161920D01*
X99784819Y-42165014D01*
X99784823Y-42165020D01*
X99957066Y-42361425D01*
X99979731Y-42387269D01*
X99982820Y-42389978D01*
X99982827Y-42389985D01*
X100052137Y-42450768D01*
X100090165Y-42510721D01*
X100089743Y-42581717D01*
X100051005Y-42641214D01*
X99986250Y-42670322D01*
X99969060Y-42671500D01*
X85043838Y-42671500D01*
X84975717Y-42651498D01*
X84929224Y-42597842D01*
X84919120Y-42527568D01*
X84952746Y-42458448D01*
X84959301Y-42451588D01*
X85094686Y-42253122D01*
X85101961Y-42237450D01*
X85148785Y-42184083D01*
X85216249Y-42164500D01*
X89901675Y-42164500D01*
X89921386Y-42166051D01*
X89928273Y-42167142D01*
X89928275Y-42167142D01*
X89934790Y-42168174D01*
X89941378Y-42167829D01*
X89941382Y-42167829D01*
X90001599Y-42164673D01*
X90008193Y-42164500D01*
X90028220Y-42164500D01*
X90031491Y-42164156D01*
X90031495Y-42164156D01*
X90048139Y-42162407D01*
X90054713Y-42161890D01*
X90114916Y-42158735D01*
X90114918Y-42158735D01*
X90121515Y-42158389D01*
X90134628Y-42154875D01*
X90154070Y-42151272D01*
X90155312Y-42151142D01*
X90160985Y-42150546D01*
X90160989Y-42150545D01*
X90167556Y-42149855D01*
X90231181Y-42129182D01*
X90237506Y-42127309D01*
X90244959Y-42125312D01*
X90302124Y-42109994D01*
X90314216Y-42103833D01*
X90332475Y-42096270D01*
X90345385Y-42092075D01*
X90403324Y-42058624D01*
X90409120Y-42055477D01*
X90433515Y-42043047D01*
X90468725Y-42025107D01*
X90479270Y-42016568D01*
X90495555Y-42005375D01*
X90501602Y-42001884D01*
X90501605Y-42001881D01*
X90507315Y-41998585D01*
X90512215Y-41994173D01*
X90512219Y-41994170D01*
X90557025Y-41953825D01*
X90562046Y-41949537D01*
X90575041Y-41939014D01*
X90577606Y-41936937D01*
X90591753Y-41922790D01*
X90596537Y-41918249D01*
X90641366Y-41877885D01*
X90641367Y-41877883D01*
X90646269Y-41873470D01*
X90654252Y-41862482D01*
X90667089Y-41847454D01*
X97326039Y-35188504D01*
X97388351Y-35154478D01*
X97415134Y-35151599D01*
X97748416Y-35151599D01*
X97753117Y-35151329D01*
X97926738Y-35111245D01*
X98000552Y-35075562D01*
X98080821Y-35036759D01*
X98080822Y-35036758D01*
X98087165Y-35033692D01*
X98121892Y-35005970D01*
X98220920Y-34926916D01*
X98226423Y-34922523D01*
X98337592Y-34783265D01*
X98349707Y-34758205D01*
X98412079Y-34629180D01*
X98415145Y-34622838D01*
X98455229Y-34449217D01*
X98455500Y-34444517D01*
X98455499Y-33698684D01*
X98455229Y-33693983D01*
X98415145Y-33520362D01*
X98337592Y-33359935D01*
X98226423Y-33220677D01*
X98220920Y-33216284D01*
X98215937Y-33211301D01*
X98218039Y-33209199D01*
X98184902Y-33161931D01*
X98182047Y-33090992D01*
X98216448Y-33032410D01*
X98215937Y-33031899D01*
X98217903Y-33029933D01*
X98217998Y-33029771D01*
X98218500Y-33029336D01*
X98220920Y-33026916D01*
X98226423Y-33022523D01*
X98337592Y-32883265D01*
X98415145Y-32722838D01*
X98455229Y-32549217D01*
X98455500Y-32544517D01*
X98455499Y-31798684D01*
X98455229Y-31793983D01*
X98415145Y-31620362D01*
X98337592Y-31459935D01*
X98229029Y-31323941D01*
X98202161Y-31258224D01*
X98201500Y-31245332D01*
X98201500Y-30099015D01*
X98225177Y-30025489D01*
X98317120Y-29897536D01*
X98320138Y-29893336D01*
X98322767Y-29888018D01*
X98405181Y-29721263D01*
X98421957Y-29687320D01*
X98441105Y-29624297D01*
X98487258Y-29472394D01*
X98487259Y-29472388D01*
X98488762Y-29467442D01*
X98514070Y-29275207D01*
X98518320Y-29242926D01*
X98518320Y-29242922D01*
X98518757Y-29239605D01*
X98519398Y-29213365D01*
X98520349Y-29174468D01*
X98520349Y-29174464D01*
X98520431Y-29171103D01*
X98514199Y-29095297D01*
X98502025Y-28947224D01*
X98502024Y-28947218D01*
X98501601Y-28942073D01*
X98445618Y-28719193D01*
X98353984Y-28508450D01*
X98351178Y-28504112D01*
X98231971Y-28319846D01*
X98231969Y-28319843D01*
X98229161Y-28315503D01*
X98113372Y-28188252D01*
X98077978Y-28149355D01*
X98077976Y-28149354D01*
X98074500Y-28145533D01*
X98070449Y-28142334D01*
X98070445Y-28142330D01*
X97923774Y-28026497D01*
X97894156Y-28003106D01*
X97692972Y-27892046D01*
X97567153Y-27847491D01*
X97481225Y-27817062D01*
X97481221Y-27817061D01*
X97476350Y-27815336D01*
X97471257Y-27814429D01*
X97471254Y-27814428D01*
X97255197Y-27775942D01*
X97255191Y-27775941D01*
X97250108Y-27775036D01*
X97176925Y-27774142D01*
X97025492Y-27772292D01*
X97025490Y-27772292D01*
X97020322Y-27772229D01*
X96868751Y-27795422D01*
X96798272Y-27806207D01*
X96798269Y-27806208D01*
X96793163Y-27806989D01*
X96767626Y-27815336D01*
X96579645Y-27876778D01*
X96579643Y-27876779D01*
X96574732Y-27878384D01*
X96370894Y-27984495D01*
X96366761Y-27987598D01*
X96366758Y-27987600D01*
X96191259Y-28119368D01*
X96187124Y-28122473D01*
X96028357Y-28288613D01*
X95898857Y-28478453D01*
X95802102Y-28686895D01*
X95740689Y-28908340D01*
X95716270Y-29136842D01*
X95729498Y-29366264D01*
X95730633Y-29371301D01*
X95730634Y-29371307D01*
X95759909Y-29501210D01*
X95780019Y-29590445D01*
X95866477Y-29803364D01*
X95869174Y-29807765D01*
X95869175Y-29807767D01*
X95943089Y-29928383D01*
X95986549Y-29999303D01*
X96068984Y-30094469D01*
X96137010Y-30173001D01*
X96135301Y-30174481D01*
X96165335Y-30228148D01*
X96168500Y-30256211D01*
X96168500Y-31245332D01*
X96148498Y-31313453D01*
X96140971Y-31323941D01*
X96032408Y-31459935D01*
X95954855Y-31620362D01*
X95914771Y-31793983D01*
X95914500Y-31798683D01*
X95914501Y-32544516D01*
X95914771Y-32549217D01*
X95954855Y-32722838D01*
X96032408Y-32883265D01*
X96143577Y-33022523D01*
X96149080Y-33026916D01*
X96154063Y-33031899D01*
X96151961Y-33034001D01*
X96185098Y-33081269D01*
X96187953Y-33152208D01*
X96153552Y-33210790D01*
X96154063Y-33211301D01*
X96152097Y-33213267D01*
X96152002Y-33213429D01*
X96151500Y-33213864D01*
X96149080Y-33216284D01*
X96143577Y-33220677D01*
X96032408Y-33359935D01*
X95954855Y-33520362D01*
X95914771Y-33693983D01*
X95914500Y-33698683D01*
X95914500Y-33700507D01*
X95914501Y-34031966D01*
X95894499Y-34100086D01*
X95877596Y-34121061D01*
X89650062Y-40348595D01*
X89587750Y-40382621D01*
X89560967Y-40385500D01*
X85217597Y-40385500D01*
X85149476Y-40365498D01*
X85111805Y-40327940D01*
X84984310Y-40130863D01*
X84984308Y-40130860D01*
X84981502Y-40126523D01*
X84819814Y-39948830D01*
X84716138Y-39866952D01*
X84693891Y-39849382D01*
X84652828Y-39791465D01*
X84649596Y-39720542D01*
X84685221Y-39659130D01*
X84748393Y-39626728D01*
X84771983Y-39624500D01*
X89455075Y-39624500D01*
X89474786Y-39626051D01*
X89481673Y-39627142D01*
X89481675Y-39627142D01*
X89488190Y-39628174D01*
X89494778Y-39627829D01*
X89494782Y-39627829D01*
X89554999Y-39624673D01*
X89561593Y-39624500D01*
X89581620Y-39624500D01*
X89584891Y-39624156D01*
X89584895Y-39624156D01*
X89601539Y-39622407D01*
X89608113Y-39621890D01*
X89668316Y-39618735D01*
X89668318Y-39618735D01*
X89674915Y-39618389D01*
X89688028Y-39614875D01*
X89707470Y-39611272D01*
X89708712Y-39611142D01*
X89714385Y-39610546D01*
X89714389Y-39610545D01*
X89720956Y-39609855D01*
X89784581Y-39589182D01*
X89790906Y-39587309D01*
X89805912Y-39583288D01*
X89855524Y-39569994D01*
X89867616Y-39563833D01*
X89885875Y-39556270D01*
X89898785Y-39552075D01*
X89956724Y-39518624D01*
X89962520Y-39515477D01*
X89967878Y-39512747D01*
X90022125Y-39485107D01*
X90032670Y-39476568D01*
X90048955Y-39465375D01*
X90055002Y-39461884D01*
X90055005Y-39461881D01*
X90060715Y-39458585D01*
X90065615Y-39454173D01*
X90065619Y-39454170D01*
X90110425Y-39413825D01*
X90115446Y-39409537D01*
X90128441Y-39399014D01*
X90131006Y-39396937D01*
X90145153Y-39382790D01*
X90149937Y-39378249D01*
X90194766Y-39337885D01*
X90194767Y-39337883D01*
X90199669Y-39333470D01*
X90207652Y-39322482D01*
X90220489Y-39307454D01*
X93282454Y-36245489D01*
X93297482Y-36232652D01*
X93308470Y-36224669D01*
X93330545Y-36200153D01*
X93353249Y-36174937D01*
X93357790Y-36170153D01*
X93371937Y-36156006D01*
X93384537Y-36140446D01*
X93388825Y-36135425D01*
X93429170Y-36090619D01*
X93429173Y-36090615D01*
X93433585Y-36085715D01*
X93436881Y-36080005D01*
X93436884Y-36080002D01*
X93440375Y-36073955D01*
X93451568Y-36057670D01*
X93455950Y-36052258D01*
X93460107Y-36047125D01*
X93490477Y-35987520D01*
X93493624Y-35981724D01*
X93507598Y-35957520D01*
X93527075Y-35923785D01*
X93531270Y-35910875D01*
X93538833Y-35892616D01*
X93544994Y-35880524D01*
X93562320Y-35815862D01*
X93564172Y-35809614D01*
X93584855Y-35745956D01*
X93586273Y-35732463D01*
X93589877Y-35713020D01*
X93591679Y-35706295D01*
X93591680Y-35706290D01*
X93593388Y-35699915D01*
X93593928Y-35689624D01*
X93596889Y-35633120D01*
X93597406Y-35626546D01*
X93599156Y-35609893D01*
X93599500Y-35606620D01*
X93599500Y-35586586D01*
X93599673Y-35579992D01*
X93602829Y-35519782D01*
X93602829Y-35519777D01*
X93603174Y-35513190D01*
X93601051Y-35499785D01*
X93599500Y-35480075D01*
X93599500Y-35128390D01*
X93619502Y-35060269D01*
X93646891Y-35029919D01*
X93655569Y-35022992D01*
X93781423Y-34922523D01*
X93892592Y-34783265D01*
X93904707Y-34758205D01*
X93967079Y-34629180D01*
X93970145Y-34622838D01*
X94010229Y-34449217D01*
X94010500Y-34444517D01*
X94010499Y-33698684D01*
X94010229Y-33693983D01*
X93970145Y-33520362D01*
X93892592Y-33359935D01*
X93781423Y-33220677D01*
X93775920Y-33216284D01*
X93770937Y-33211301D01*
X93773039Y-33209199D01*
X93739902Y-33161931D01*
X93737047Y-33090992D01*
X93771448Y-33032410D01*
X93770937Y-33031899D01*
X93772903Y-33029933D01*
X93772998Y-33029771D01*
X93773500Y-33029336D01*
X93775920Y-33026916D01*
X93781423Y-33022523D01*
X93892592Y-32883265D01*
X93970145Y-32722838D01*
X94010229Y-32549217D01*
X94010500Y-32544517D01*
X94010499Y-31798684D01*
X94010229Y-31793983D01*
X93970145Y-31620362D01*
X93892592Y-31459935D01*
X93784029Y-31323941D01*
X93757161Y-31258224D01*
X93756500Y-31245332D01*
X93756500Y-30189206D01*
X93780177Y-30115680D01*
X93795419Y-30094469D01*
X93911997Y-29932233D01*
X94013816Y-29726217D01*
X94031679Y-29667424D01*
X94079117Y-29511291D01*
X94079118Y-29511285D01*
X94080621Y-29506339D01*
X94110616Y-29278502D01*
X94111110Y-29258305D01*
X94112208Y-29213365D01*
X94112208Y-29213361D01*
X94112290Y-29210000D01*
X94105853Y-29131709D01*
X94093884Y-28986121D01*
X94093883Y-28986115D01*
X94093460Y-28980970D01*
X94037477Y-28758090D01*
X93945843Y-28547347D01*
X93943037Y-28543009D01*
X93823830Y-28358743D01*
X93823828Y-28358740D01*
X93821020Y-28354400D01*
X93789579Y-28319846D01*
X93669837Y-28188252D01*
X93669835Y-28188251D01*
X93666359Y-28184430D01*
X93662308Y-28181231D01*
X93662304Y-28181227D01*
X93490073Y-28045208D01*
X93486015Y-28042003D01*
X93284831Y-27930943D01*
X93143156Y-27880773D01*
X93073084Y-27855959D01*
X93073080Y-27855958D01*
X93068209Y-27854233D01*
X93063116Y-27853326D01*
X93063113Y-27853325D01*
X92847056Y-27814839D01*
X92847050Y-27814838D01*
X92841967Y-27813933D01*
X92768784Y-27813039D01*
X92617351Y-27811189D01*
X92617349Y-27811189D01*
X92612181Y-27811126D01*
X92460610Y-27834319D01*
X92390131Y-27845104D01*
X92390128Y-27845105D01*
X92385022Y-27845886D01*
X92380110Y-27847491D01*
X92380112Y-27847491D01*
X92171504Y-27915675D01*
X92171502Y-27915676D01*
X92166591Y-27917281D01*
X92135538Y-27933446D01*
X92006525Y-28000606D01*
X91962753Y-28023392D01*
X91958620Y-28026495D01*
X91958617Y-28026497D01*
X91783118Y-28158265D01*
X91778983Y-28161370D01*
X91620216Y-28327510D01*
X91490716Y-28517350D01*
X91473159Y-28555174D01*
X91414196Y-28682200D01*
X91393961Y-28725792D01*
X91332548Y-28947237D01*
X91308129Y-29175739D01*
X91321357Y-29405161D01*
X91322492Y-29410198D01*
X91322493Y-29410204D01*
X91370741Y-29624297D01*
X91371878Y-29629342D01*
X91458336Y-29842261D01*
X91461033Y-29846662D01*
X91461034Y-29846664D01*
X91570619Y-30025489D01*
X91578408Y-30038200D01*
X91692738Y-30170187D01*
X91722220Y-30234773D01*
X91723500Y-30252684D01*
X91723500Y-31245332D01*
X91703498Y-31313453D01*
X91695971Y-31323941D01*
X91587408Y-31459935D01*
X91509855Y-31620362D01*
X91469771Y-31793983D01*
X91469500Y-31798683D01*
X91469501Y-32544516D01*
X91469771Y-32549217D01*
X91509855Y-32722838D01*
X91587408Y-32883265D01*
X91698577Y-33022523D01*
X91704080Y-33026916D01*
X91709063Y-33031899D01*
X91706961Y-33034001D01*
X91740098Y-33081269D01*
X91742953Y-33152208D01*
X91708552Y-33210790D01*
X91709063Y-33211301D01*
X91707097Y-33213267D01*
X91707002Y-33213429D01*
X91706500Y-33213864D01*
X91704080Y-33216284D01*
X91698577Y-33220677D01*
X91587408Y-33359935D01*
X91509855Y-33520362D01*
X91469771Y-33693983D01*
X91469500Y-33698683D01*
X91469501Y-34444516D01*
X91469771Y-34449217D01*
X91509855Y-34622838D01*
X91512921Y-34629180D01*
X91575294Y-34758205D01*
X91587408Y-34783265D01*
X91698577Y-34922523D01*
X91773111Y-34982023D01*
X91813868Y-35040153D01*
X91820500Y-35080493D01*
X91820500Y-35139367D01*
X91800498Y-35207488D01*
X91783595Y-35228462D01*
X89203462Y-37808595D01*
X89141150Y-37842621D01*
X89114367Y-37845500D01*
X88811633Y-37845500D01*
X88743512Y-37825498D01*
X88697019Y-37771842D01*
X88686915Y-37701568D01*
X88716409Y-37636988D01*
X88722538Y-37630405D01*
X88867454Y-37485489D01*
X88882482Y-37472652D01*
X88893470Y-37464669D01*
X88938249Y-37414937D01*
X88942790Y-37410153D01*
X88956937Y-37396006D01*
X88969537Y-37380446D01*
X88973825Y-37375425D01*
X89014170Y-37330619D01*
X89014173Y-37330615D01*
X89018585Y-37325715D01*
X89021881Y-37320005D01*
X89021884Y-37320002D01*
X89025375Y-37313955D01*
X89036568Y-37297670D01*
X89045107Y-37287125D01*
X89075477Y-37227520D01*
X89078624Y-37221724D01*
X89085910Y-37209104D01*
X89112075Y-37163785D01*
X89116270Y-37150875D01*
X89123833Y-37132616D01*
X89129994Y-37120524D01*
X89147320Y-37055862D01*
X89149172Y-37049614D01*
X89169855Y-36985956D01*
X89171273Y-36972463D01*
X89174877Y-36953020D01*
X89176679Y-36946295D01*
X89176680Y-36946290D01*
X89178388Y-36939915D01*
X89181889Y-36873120D01*
X89182406Y-36866546D01*
X89184156Y-36849893D01*
X89184500Y-36846620D01*
X89184500Y-36826586D01*
X89184673Y-36819992D01*
X89187829Y-36759782D01*
X89187829Y-36759777D01*
X89188174Y-36753190D01*
X89186051Y-36739785D01*
X89184500Y-36720075D01*
X89184500Y-35104441D01*
X89204502Y-35036320D01*
X89231891Y-35005970D01*
X89330920Y-34926916D01*
X89336423Y-34922523D01*
X89447592Y-34783265D01*
X89459707Y-34758205D01*
X89522079Y-34629180D01*
X89525145Y-34622838D01*
X89565229Y-34449217D01*
X89565500Y-34444517D01*
X89565499Y-33698684D01*
X89565229Y-33693983D01*
X89525145Y-33520362D01*
X89447592Y-33359935D01*
X89336423Y-33220677D01*
X89330920Y-33216284D01*
X89325937Y-33211301D01*
X89328039Y-33209199D01*
X89294902Y-33161931D01*
X89292047Y-33090992D01*
X89326448Y-33032410D01*
X89325937Y-33031899D01*
X89327903Y-33029933D01*
X89327998Y-33029771D01*
X89328500Y-33029336D01*
X89330920Y-33026916D01*
X89336423Y-33022523D01*
X89447592Y-32883265D01*
X89525145Y-32722838D01*
X89565229Y-32549217D01*
X89565500Y-32544517D01*
X89565499Y-31798684D01*
X89565229Y-31793983D01*
X89525145Y-31620362D01*
X89447592Y-31459935D01*
X89339029Y-31323941D01*
X89312161Y-31258224D01*
X89311500Y-31245332D01*
X89311500Y-30189206D01*
X89335177Y-30115680D01*
X89350419Y-30094469D01*
X89466997Y-29932233D01*
X89568816Y-29726217D01*
X89586679Y-29667424D01*
X89634117Y-29511291D01*
X89634118Y-29511285D01*
X89635621Y-29506339D01*
X89665616Y-29278502D01*
X89666110Y-29258305D01*
X89667208Y-29213365D01*
X89667208Y-29213361D01*
X89667290Y-29210000D01*
X89660853Y-29131709D01*
X89648884Y-28986121D01*
X89648883Y-28986115D01*
X89648460Y-28980970D01*
X89592477Y-28758090D01*
X89500843Y-28547347D01*
X89498037Y-28543009D01*
X89378830Y-28358743D01*
X89378828Y-28358740D01*
X89376020Y-28354400D01*
X89344579Y-28319846D01*
X89224837Y-28188252D01*
X89224835Y-28188251D01*
X89221359Y-28184430D01*
X89217308Y-28181231D01*
X89217304Y-28181227D01*
X89045073Y-28045208D01*
X89041015Y-28042003D01*
X88839831Y-27930943D01*
X88698156Y-27880773D01*
X88628084Y-27855959D01*
X88628080Y-27855958D01*
X88623209Y-27854233D01*
X88618116Y-27853326D01*
X88618113Y-27853325D01*
X88402056Y-27814839D01*
X88402050Y-27814838D01*
X88396967Y-27813933D01*
X88323784Y-27813039D01*
X88172351Y-27811189D01*
X88172349Y-27811189D01*
X88167181Y-27811126D01*
X88015610Y-27834319D01*
X87945131Y-27845104D01*
X87945128Y-27845105D01*
X87940022Y-27845886D01*
X87935110Y-27847491D01*
X87935112Y-27847491D01*
X87726504Y-27915675D01*
X87726502Y-27915676D01*
X87721591Y-27917281D01*
X87690538Y-27933446D01*
X87561525Y-28000606D01*
X87517753Y-28023392D01*
X87513620Y-28026495D01*
X87513617Y-28026497D01*
X87338118Y-28158265D01*
X87333983Y-28161370D01*
X87175216Y-28327510D01*
X87045716Y-28517350D01*
X87028159Y-28555174D01*
X86969196Y-28682200D01*
X86948961Y-28725792D01*
X86887548Y-28947237D01*
X86863129Y-29175739D01*
X86876357Y-29405161D01*
X86877492Y-29410198D01*
X86877493Y-29410204D01*
X86925741Y-29624297D01*
X86926878Y-29629342D01*
X87013336Y-29842261D01*
X87016033Y-29846662D01*
X87016034Y-29846664D01*
X87125619Y-30025489D01*
X87133408Y-30038200D01*
X87247738Y-30170187D01*
X87277220Y-30234773D01*
X87278500Y-30252684D01*
X87278500Y-31245332D01*
X87258498Y-31313453D01*
X87250971Y-31323941D01*
X87142408Y-31459935D01*
X87064855Y-31620362D01*
X87024771Y-31793983D01*
X87024500Y-31798683D01*
X87024501Y-32544516D01*
X87024771Y-32549217D01*
X87064855Y-32722838D01*
X87142408Y-32883265D01*
X87253577Y-33022523D01*
X87259080Y-33026916D01*
X87264063Y-33031899D01*
X87261961Y-33034001D01*
X87295098Y-33081269D01*
X87297953Y-33152208D01*
X87263552Y-33210790D01*
X87264063Y-33211301D01*
X87262097Y-33213267D01*
X87262002Y-33213429D01*
X87261500Y-33213864D01*
X87259080Y-33216284D01*
X87253577Y-33220677D01*
X87142408Y-33359935D01*
X87064855Y-33520362D01*
X87024771Y-33693983D01*
X87024500Y-33698683D01*
X87024501Y-34444516D01*
X87024771Y-34449217D01*
X87064855Y-34622838D01*
X87067921Y-34629180D01*
X87130294Y-34758205D01*
X87142408Y-34783265D01*
X87253577Y-34922523D01*
X87259080Y-34926916D01*
X87358109Y-35005970D01*
X87398868Y-35064101D01*
X87405500Y-35104441D01*
X87405500Y-36379367D01*
X87385498Y-36447488D01*
X87368595Y-36468462D01*
X87298462Y-36538595D01*
X87236150Y-36572621D01*
X87209367Y-36575500D01*
X83731633Y-36575500D01*
X83663512Y-36555498D01*
X83617019Y-36501842D01*
X83606915Y-36431568D01*
X83636409Y-36366988D01*
X83642538Y-36360405D01*
X84422454Y-35580489D01*
X84437482Y-35567652D01*
X84448470Y-35559669D01*
X84456271Y-35551006D01*
X84493249Y-35509937D01*
X84497790Y-35505153D01*
X84511937Y-35491006D01*
X84520270Y-35480715D01*
X84524537Y-35475446D01*
X84528825Y-35470425D01*
X84529401Y-35469786D01*
X84554307Y-35442125D01*
X84569170Y-35425619D01*
X84569173Y-35425615D01*
X84573585Y-35420715D01*
X84576881Y-35415005D01*
X84576884Y-35415002D01*
X84580375Y-35408955D01*
X84591568Y-35392670D01*
X84595950Y-35387258D01*
X84600107Y-35382125D01*
X84630477Y-35322520D01*
X84633624Y-35316724D01*
X84651652Y-35285498D01*
X84667075Y-35258785D01*
X84671270Y-35245875D01*
X84678833Y-35227616D01*
X84684994Y-35215524D01*
X84702309Y-35150906D01*
X84704182Y-35144582D01*
X84724345Y-35082527D01*
X84765569Y-35022992D01*
X84885920Y-34926916D01*
X84891423Y-34922523D01*
X85002592Y-34783265D01*
X85014707Y-34758205D01*
X85077079Y-34629180D01*
X85080145Y-34622838D01*
X85120229Y-34449217D01*
X85120500Y-34444517D01*
X85120499Y-33698684D01*
X85120229Y-33693983D01*
X85080145Y-33520362D01*
X85002592Y-33359935D01*
X84891423Y-33220677D01*
X84885920Y-33216284D01*
X84880937Y-33211301D01*
X84883039Y-33209199D01*
X84849902Y-33161931D01*
X84847047Y-33090992D01*
X84881448Y-33032410D01*
X84880937Y-33031899D01*
X84882903Y-33029933D01*
X84882998Y-33029771D01*
X84883500Y-33029336D01*
X84885920Y-33026916D01*
X84891423Y-33022523D01*
X85002592Y-32883265D01*
X85080145Y-32722838D01*
X85120229Y-32549217D01*
X85120500Y-32544517D01*
X85120499Y-31798684D01*
X85120229Y-31793983D01*
X85080145Y-31620362D01*
X85002592Y-31459935D01*
X84894029Y-31323941D01*
X84867161Y-31258224D01*
X84866500Y-31245332D01*
X84866500Y-30189206D01*
X84890177Y-30115680D01*
X84905419Y-30094469D01*
X85021997Y-29932233D01*
X85123816Y-29726217D01*
X85141679Y-29667424D01*
X85189117Y-29511291D01*
X85189118Y-29511285D01*
X85190621Y-29506339D01*
X85220616Y-29278502D01*
X85221110Y-29258305D01*
X85222208Y-29213365D01*
X85222208Y-29213361D01*
X85222290Y-29210000D01*
X85215853Y-29131709D01*
X85203884Y-28986121D01*
X85203883Y-28986115D01*
X85203460Y-28980970D01*
X85147477Y-28758090D01*
X85055843Y-28547347D01*
X85053037Y-28543009D01*
X84933830Y-28358743D01*
X84933828Y-28358740D01*
X84931020Y-28354400D01*
X84899579Y-28319846D01*
X84779837Y-28188252D01*
X84779835Y-28188251D01*
X84776359Y-28184430D01*
X84772308Y-28181231D01*
X84772304Y-28181227D01*
X84600073Y-28045208D01*
X84596015Y-28042003D01*
X84394831Y-27930943D01*
X84253156Y-27880773D01*
X84183084Y-27855959D01*
X84183080Y-27855958D01*
X84178209Y-27854233D01*
X84173116Y-27853326D01*
X84173113Y-27853325D01*
X83957056Y-27814839D01*
X83957050Y-27814838D01*
X83951967Y-27813933D01*
X83878784Y-27813039D01*
X83727351Y-27811189D01*
X83727349Y-27811189D01*
X83722181Y-27811126D01*
X83570610Y-27834319D01*
X83500131Y-27845104D01*
X83500128Y-27845105D01*
X83495022Y-27845886D01*
X83490110Y-27847491D01*
X83490112Y-27847491D01*
X83281504Y-27915675D01*
X83281502Y-27915676D01*
X83276591Y-27917281D01*
X83245538Y-27933446D01*
X83116525Y-28000606D01*
X83072753Y-28023392D01*
X83068620Y-28026495D01*
X83068617Y-28026497D01*
X82893118Y-28158265D01*
X82888983Y-28161370D01*
X82730216Y-28327510D01*
X82600716Y-28517350D01*
X82583159Y-28555174D01*
X82524196Y-28682200D01*
X82503961Y-28725792D01*
X82442548Y-28947237D01*
X82418129Y-29175739D01*
X82431357Y-29405161D01*
X82432492Y-29410198D01*
X82432493Y-29410204D01*
X82480741Y-29624297D01*
X82481878Y-29629342D01*
X82568336Y-29842261D01*
X82571033Y-29846662D01*
X82571034Y-29846664D01*
X82680619Y-30025489D01*
X82688408Y-30038200D01*
X82802738Y-30170187D01*
X82832220Y-30234773D01*
X82833500Y-30252684D01*
X82833500Y-31245332D01*
X82813498Y-31313453D01*
X82805971Y-31323941D01*
X82697408Y-31459935D01*
X82619855Y-31620362D01*
X82579771Y-31793983D01*
X82579500Y-31798683D01*
X82579501Y-32544516D01*
X82579771Y-32549217D01*
X82619855Y-32722838D01*
X82697408Y-32883265D01*
X82808577Y-33022523D01*
X82814080Y-33026916D01*
X82819063Y-33031899D01*
X82816961Y-33034001D01*
X82850098Y-33081269D01*
X82852953Y-33152208D01*
X82818552Y-33210790D01*
X82819063Y-33211301D01*
X82817097Y-33213267D01*
X82817002Y-33213429D01*
X82816500Y-33213864D01*
X82814080Y-33216284D01*
X82808577Y-33220677D01*
X82697408Y-33359935D01*
X82619855Y-33520362D01*
X82579771Y-33693983D01*
X82579500Y-33698683D01*
X82579501Y-34444516D01*
X82579771Y-34449217D01*
X82619855Y-34622838D01*
X82622921Y-34629180D01*
X82660517Y-34706951D01*
X82672157Y-34776987D01*
X82644085Y-34842198D01*
X82636172Y-34850885D01*
X82218462Y-35268595D01*
X82156150Y-35302621D01*
X82129367Y-35305500D01*
X80380320Y-35305500D01*
X80312199Y-35285498D01*
X80265706Y-35231842D01*
X80255602Y-35161568D01*
X80260485Y-35140572D01*
X80279345Y-35082526D01*
X80320569Y-35022992D01*
X80440920Y-34926916D01*
X80446423Y-34922523D01*
X80557592Y-34783265D01*
X80569707Y-34758205D01*
X80632079Y-34629180D01*
X80635145Y-34622838D01*
X80675229Y-34449217D01*
X80675500Y-34444517D01*
X80675499Y-33698684D01*
X80675229Y-33693983D01*
X80635145Y-33520362D01*
X80557592Y-33359935D01*
X80446423Y-33220677D01*
X80440920Y-33216284D01*
X80435937Y-33211301D01*
X80438039Y-33209199D01*
X80404902Y-33161931D01*
X80402047Y-33090992D01*
X80436448Y-33032410D01*
X80435937Y-33031899D01*
X80437903Y-33029933D01*
X80437998Y-33029771D01*
X80438500Y-33029336D01*
X80440920Y-33026916D01*
X80446423Y-33022523D01*
X80557592Y-32883265D01*
X80635145Y-32722838D01*
X80675229Y-32549217D01*
X80675500Y-32544517D01*
X80675499Y-31798684D01*
X80675229Y-31793983D01*
X80635145Y-31620362D01*
X80557592Y-31459935D01*
X80449029Y-31323941D01*
X80422161Y-31258224D01*
X80421500Y-31245332D01*
X80421500Y-30189206D01*
X80445177Y-30115680D01*
X80460419Y-30094469D01*
X80576997Y-29932233D01*
X80678816Y-29726217D01*
X80696679Y-29667424D01*
X80744117Y-29511291D01*
X80744118Y-29511285D01*
X80745621Y-29506339D01*
X80775616Y-29278502D01*
X80776110Y-29258305D01*
X80777208Y-29213365D01*
X80777208Y-29213361D01*
X80777290Y-29210000D01*
X80770853Y-29131709D01*
X80758884Y-28986121D01*
X80758883Y-28986115D01*
X80758460Y-28980970D01*
X80702477Y-28758090D01*
X80610843Y-28547347D01*
X80608037Y-28543009D01*
X80488830Y-28358743D01*
X80488828Y-28358740D01*
X80486020Y-28354400D01*
X80454579Y-28319846D01*
X80334837Y-28188252D01*
X80334835Y-28188251D01*
X80331359Y-28184430D01*
X80327308Y-28181231D01*
X80327304Y-28181227D01*
X80155073Y-28045208D01*
X80151015Y-28042003D01*
X79949831Y-27930943D01*
X79808156Y-27880773D01*
X79738084Y-27855959D01*
X79738080Y-27855958D01*
X79733209Y-27854233D01*
X79728116Y-27853326D01*
X79728113Y-27853325D01*
X79512056Y-27814839D01*
X79512050Y-27814838D01*
X79506967Y-27813933D01*
X79433784Y-27813039D01*
X79282351Y-27811189D01*
X79282349Y-27811189D01*
X79277181Y-27811126D01*
X79125610Y-27834319D01*
X79055131Y-27845104D01*
X79055128Y-27845105D01*
X79050022Y-27845886D01*
X79045110Y-27847491D01*
X79045112Y-27847491D01*
X78836504Y-27915675D01*
X78836502Y-27915676D01*
X78831591Y-27917281D01*
X78800538Y-27933446D01*
X78671525Y-28000606D01*
X78627753Y-28023392D01*
X78623620Y-28026495D01*
X78623617Y-28026497D01*
X78448118Y-28158265D01*
X78443983Y-28161370D01*
X78285216Y-28327510D01*
X78155716Y-28517350D01*
X78138159Y-28555174D01*
X78079196Y-28682200D01*
X78058961Y-28725792D01*
X77997548Y-28947237D01*
X77973129Y-29175739D01*
X77986357Y-29405161D01*
X77987492Y-29410198D01*
X77987493Y-29410204D01*
X78035741Y-29624297D01*
X78036878Y-29629342D01*
X78123336Y-29842261D01*
X78126033Y-29846662D01*
X78126034Y-29846664D01*
X78235619Y-30025489D01*
X78243408Y-30038200D01*
X78357738Y-30170187D01*
X78387220Y-30234773D01*
X78388500Y-30252684D01*
X78388500Y-31245332D01*
X78368498Y-31313453D01*
X78360971Y-31323941D01*
X78252408Y-31459935D01*
X78174855Y-31620362D01*
X78134771Y-31793983D01*
X78134500Y-31798683D01*
X78134501Y-32544516D01*
X78134771Y-32549217D01*
X78174855Y-32722838D01*
X78252408Y-32883265D01*
X78363577Y-33022523D01*
X78369080Y-33026916D01*
X78374063Y-33031899D01*
X78371961Y-33034001D01*
X78405098Y-33081269D01*
X78407953Y-33152208D01*
X78373552Y-33210790D01*
X78374063Y-33211301D01*
X78372097Y-33213267D01*
X78372002Y-33213429D01*
X78371500Y-33213864D01*
X78369080Y-33216284D01*
X78363577Y-33220677D01*
X78252408Y-33359935D01*
X78174855Y-33520362D01*
X78134771Y-33693983D01*
X78134500Y-33698683D01*
X78134501Y-34444516D01*
X78134771Y-34449217D01*
X78174855Y-34622838D01*
X78177921Y-34629180D01*
X78215517Y-34706951D01*
X78227157Y-34776987D01*
X78199085Y-34842198D01*
X78191172Y-34850885D01*
X73499286Y-39542771D01*
X73436974Y-39576797D01*
X73429254Y-39578225D01*
X73400852Y-39582571D01*
X73325370Y-39594121D01*
X73325365Y-39594122D01*
X73320256Y-39594904D01*
X73224961Y-39626051D01*
X73096817Y-39667934D01*
X73096811Y-39667937D01*
X73091899Y-39669542D01*
X73087313Y-39671929D01*
X73087309Y-39671931D01*
X72883393Y-39778084D01*
X72878800Y-39780475D01*
X72874657Y-39783585D01*
X72874658Y-39783585D01*
X72732771Y-39890117D01*
X72686680Y-39924723D01*
X72520699Y-40098412D01*
X72495465Y-40135403D01*
X72440556Y-40180404D01*
X72370032Y-40188575D01*
X72306284Y-40157321D01*
X72285589Y-40132840D01*
X72284311Y-40130865D01*
X72281502Y-40126523D01*
X72119814Y-39948830D01*
X72057407Y-39899544D01*
X72016345Y-39841628D01*
X72009500Y-39800663D01*
X72009500Y-39790633D01*
X72029502Y-39722512D01*
X72046405Y-39701538D01*
X75532454Y-36215489D01*
X75547482Y-36202652D01*
X75558470Y-36194669D01*
X75566271Y-36186006D01*
X75603249Y-36144937D01*
X75607790Y-36140153D01*
X75621937Y-36126006D01*
X75634537Y-36110446D01*
X75638825Y-36105425D01*
X75647874Y-36095376D01*
X75664307Y-36077125D01*
X75679170Y-36060619D01*
X75679173Y-36060615D01*
X75683585Y-36055715D01*
X75686881Y-36050005D01*
X75686884Y-36050002D01*
X75690375Y-36043955D01*
X75701568Y-36027670D01*
X75705950Y-36022258D01*
X75710107Y-36017125D01*
X75740477Y-35957520D01*
X75743624Y-35951724D01*
X75747265Y-35945418D01*
X75777075Y-35893785D01*
X75781270Y-35880875D01*
X75788833Y-35862616D01*
X75794994Y-35850524D01*
X75812320Y-35785862D01*
X75814172Y-35779614D01*
X75834855Y-35715956D01*
X75836273Y-35702463D01*
X75839877Y-35683020D01*
X75841679Y-35676295D01*
X75841680Y-35676290D01*
X75843388Y-35669915D01*
X75844931Y-35640489D01*
X75846889Y-35603120D01*
X75847406Y-35596546D01*
X75849156Y-35579893D01*
X75849500Y-35576620D01*
X75849500Y-35556586D01*
X75849673Y-35549992D01*
X75852829Y-35489782D01*
X75852829Y-35489777D01*
X75853174Y-35483190D01*
X75851948Y-35475446D01*
X75851051Y-35469786D01*
X75849500Y-35450075D01*
X75849500Y-35104441D01*
X75869502Y-35036320D01*
X75896891Y-35005970D01*
X75995920Y-34926916D01*
X76001423Y-34922523D01*
X76112592Y-34783265D01*
X76124707Y-34758205D01*
X76187079Y-34629180D01*
X76190145Y-34622838D01*
X76230229Y-34449217D01*
X76230500Y-34444517D01*
X76230499Y-33698684D01*
X76230229Y-33693983D01*
X76190145Y-33520362D01*
X76112592Y-33359935D01*
X76001423Y-33220677D01*
X75995920Y-33216284D01*
X75990937Y-33211301D01*
X75993039Y-33209199D01*
X75959902Y-33161931D01*
X75957047Y-33090992D01*
X75991448Y-33032410D01*
X75990937Y-33031899D01*
X75992903Y-33029933D01*
X75992998Y-33029771D01*
X75993500Y-33029336D01*
X75995920Y-33026916D01*
X76001423Y-33022523D01*
X76112592Y-32883265D01*
X76190145Y-32722838D01*
X76230229Y-32549217D01*
X76230500Y-32544517D01*
X76230499Y-31798684D01*
X76230229Y-31793983D01*
X76190145Y-31620362D01*
X76112592Y-31459935D01*
X76004029Y-31323941D01*
X75977161Y-31258224D01*
X75976500Y-31245332D01*
X75976500Y-30189206D01*
X76000177Y-30115680D01*
X76015419Y-30094469D01*
X76131997Y-29932233D01*
X76233816Y-29726217D01*
X76251679Y-29667424D01*
X76299117Y-29511291D01*
X76299118Y-29511285D01*
X76300621Y-29506339D01*
X76330616Y-29278502D01*
X76331110Y-29258305D01*
X76332208Y-29213365D01*
X76332208Y-29213361D01*
X76332290Y-29210000D01*
X76325853Y-29131709D01*
X76313884Y-28986121D01*
X76313883Y-28986115D01*
X76313460Y-28980970D01*
X76257477Y-28758090D01*
X76165843Y-28547347D01*
X76163037Y-28543009D01*
X76043830Y-28358743D01*
X76043828Y-28358740D01*
X76041020Y-28354400D01*
X76009579Y-28319846D01*
X75889837Y-28188252D01*
X75889835Y-28188251D01*
X75886359Y-28184430D01*
X75882308Y-28181231D01*
X75882304Y-28181227D01*
X75710073Y-28045208D01*
X75706015Y-28042003D01*
X75504831Y-27930943D01*
X75363156Y-27880773D01*
X75293084Y-27855959D01*
X75293080Y-27855958D01*
X75288209Y-27854233D01*
X75283116Y-27853326D01*
X75283113Y-27853325D01*
X75067056Y-27814839D01*
X75067050Y-27814838D01*
X75061967Y-27813933D01*
X74988784Y-27813039D01*
X74837351Y-27811189D01*
X74837349Y-27811189D01*
X74832181Y-27811126D01*
X74680610Y-27834319D01*
X74610131Y-27845104D01*
X74610128Y-27845105D01*
X74605022Y-27845886D01*
X74600110Y-27847491D01*
X74600112Y-27847491D01*
X74391504Y-27915675D01*
X74391502Y-27915676D01*
X74386591Y-27917281D01*
X74355538Y-27933446D01*
X74226525Y-28000606D01*
X74182753Y-28023392D01*
X74178620Y-28026495D01*
X74178617Y-28026497D01*
X74003118Y-28158265D01*
X73998983Y-28161370D01*
X73840216Y-28327510D01*
X73710716Y-28517350D01*
X73693159Y-28555174D01*
X73634196Y-28682200D01*
X73613961Y-28725792D01*
X73552548Y-28947237D01*
X73528129Y-29175739D01*
X73541357Y-29405161D01*
X73542492Y-29410198D01*
X73542493Y-29410204D01*
X73590741Y-29624297D01*
X73591878Y-29629342D01*
X73678336Y-29842261D01*
X73681033Y-29846662D01*
X73681034Y-29846664D01*
X73790619Y-30025489D01*
X73798408Y-30038200D01*
X73912738Y-30170187D01*
X73942220Y-30234773D01*
X73943500Y-30252684D01*
X73943500Y-31245332D01*
X73923498Y-31313453D01*
X73915971Y-31323941D01*
X73807408Y-31459935D01*
X73729855Y-31620362D01*
X73689771Y-31793983D01*
X73689500Y-31798683D01*
X73689501Y-32544516D01*
X73689771Y-32549217D01*
X73729855Y-32722838D01*
X73807408Y-32883265D01*
X73918577Y-33022523D01*
X73924080Y-33026916D01*
X73929063Y-33031899D01*
X73926961Y-33034001D01*
X73960098Y-33081269D01*
X73962953Y-33152208D01*
X73928552Y-33210790D01*
X73929063Y-33211301D01*
X73927097Y-33213267D01*
X73927002Y-33213429D01*
X73926500Y-33213864D01*
X73924080Y-33216284D01*
X73918577Y-33220677D01*
X73807408Y-33359935D01*
X73729855Y-33520362D01*
X73689771Y-33693983D01*
X73689500Y-33698683D01*
X73689501Y-34444516D01*
X73689771Y-34449217D01*
X73729855Y-34622838D01*
X73732921Y-34629180D01*
X73795294Y-34758205D01*
X73807408Y-34783265D01*
X73918577Y-34922523D01*
X73924080Y-34926916D01*
X74023109Y-35005970D01*
X74063868Y-35064101D01*
X74070500Y-35104441D01*
X74070500Y-35109367D01*
X74050498Y-35177488D01*
X74033595Y-35198462D01*
X70547546Y-38684511D01*
X70532518Y-38697348D01*
X70521530Y-38705331D01*
X70517117Y-38710233D01*
X70517115Y-38710234D01*
X70476751Y-38755063D01*
X70472210Y-38759847D01*
X70458063Y-38773994D01*
X70455986Y-38776559D01*
X70445463Y-38789554D01*
X70441175Y-38794575D01*
X70400830Y-38839381D01*
X70400827Y-38839385D01*
X70396415Y-38844285D01*
X70393119Y-38849995D01*
X70393116Y-38849998D01*
X70389625Y-38856045D01*
X70378433Y-38872329D01*
X70369893Y-38882875D01*
X70339523Y-38942480D01*
X70336376Y-38948276D01*
X70302925Y-39006215D01*
X70298731Y-39019123D01*
X70291167Y-39037384D01*
X70285006Y-39049476D01*
X70283296Y-39055859D01*
X70267691Y-39114094D01*
X70265818Y-39120418D01*
X70245145Y-39184044D01*
X70244455Y-39190611D01*
X70244454Y-39190615D01*
X70243728Y-39197529D01*
X70240125Y-39216972D01*
X70236611Y-39230085D01*
X70236265Y-39236681D01*
X70236265Y-39236684D01*
X70233110Y-39296887D01*
X70232593Y-39303461D01*
X70230844Y-39320105D01*
X70230500Y-39323380D01*
X70230500Y-39343407D01*
X70230327Y-39350001D01*
X70227236Y-39408994D01*
X70226826Y-39416810D01*
X70227858Y-39423325D01*
X70227858Y-39423327D01*
X70228949Y-39430214D01*
X70230500Y-39449925D01*
X70230500Y-39798831D01*
X70210498Y-39866952D01*
X70180154Y-39899590D01*
X70146680Y-39924723D01*
X69980699Y-40098412D01*
X69955465Y-40135403D01*
X69900556Y-40180404D01*
X69830032Y-40188575D01*
X69766284Y-40157321D01*
X69745589Y-40132840D01*
X69744311Y-40130865D01*
X69741502Y-40126523D01*
X69579814Y-39948830D01*
X69517407Y-39899544D01*
X69476345Y-39841628D01*
X69469500Y-39800663D01*
X69469500Y-36615633D01*
X69489502Y-36547512D01*
X69506405Y-36526538D01*
X70844439Y-35188504D01*
X70906751Y-35154478D01*
X70933534Y-35151599D01*
X71078416Y-35151599D01*
X71083117Y-35151329D01*
X71256738Y-35111245D01*
X71330552Y-35075562D01*
X71410821Y-35036759D01*
X71410822Y-35036758D01*
X71417165Y-35033692D01*
X71451892Y-35005970D01*
X71550920Y-34926916D01*
X71556423Y-34922523D01*
X71667592Y-34783265D01*
X71679707Y-34758205D01*
X71742079Y-34629180D01*
X71745145Y-34622838D01*
X71785229Y-34449217D01*
X71785500Y-34444517D01*
X71785499Y-33698684D01*
X71785229Y-33693983D01*
X71745145Y-33520362D01*
X71667592Y-33359935D01*
X71556423Y-33220677D01*
X71550920Y-33216284D01*
X71545937Y-33211301D01*
X71548039Y-33209199D01*
X71514902Y-33161931D01*
X71512047Y-33090992D01*
X71546448Y-33032410D01*
X71545937Y-33031899D01*
X71547903Y-33029933D01*
X71547998Y-33029771D01*
X71548500Y-33029336D01*
X71550920Y-33026916D01*
X71556423Y-33022523D01*
X71667592Y-32883265D01*
X71745145Y-32722838D01*
X71785229Y-32549217D01*
X71785500Y-32544517D01*
X71785499Y-31798684D01*
X71785229Y-31793983D01*
X71745145Y-31620362D01*
X71667592Y-31459935D01*
X71559029Y-31323941D01*
X71532161Y-31258224D01*
X71531500Y-31245332D01*
X71531500Y-30189206D01*
X71555177Y-30115680D01*
X71570419Y-30094469D01*
X71686997Y-29932233D01*
X71788816Y-29726217D01*
X71806679Y-29667424D01*
X71854117Y-29511291D01*
X71854118Y-29511285D01*
X71855621Y-29506339D01*
X71885616Y-29278502D01*
X71886110Y-29258305D01*
X71887208Y-29213365D01*
X71887208Y-29213361D01*
X71887290Y-29210000D01*
X71880853Y-29131709D01*
X71868884Y-28986121D01*
X71868883Y-28986115D01*
X71868460Y-28980970D01*
X71812477Y-28758090D01*
X71720843Y-28547347D01*
X71718037Y-28543009D01*
X71598830Y-28358743D01*
X71598828Y-28358740D01*
X71596020Y-28354400D01*
X71564579Y-28319846D01*
X71444837Y-28188252D01*
X71444835Y-28188251D01*
X71441359Y-28184430D01*
X71437308Y-28181231D01*
X71437304Y-28181227D01*
X71265073Y-28045208D01*
X71261015Y-28042003D01*
X71059831Y-27930943D01*
X70918156Y-27880773D01*
X70848084Y-27855959D01*
X70848080Y-27855958D01*
X70843209Y-27854233D01*
X70838116Y-27853326D01*
X70838113Y-27853325D01*
X70622056Y-27814839D01*
X70622050Y-27814838D01*
X70616967Y-27813933D01*
X70543784Y-27813039D01*
X70392351Y-27811189D01*
X70392349Y-27811189D01*
X70387181Y-27811126D01*
X70235610Y-27834319D01*
X70165131Y-27845104D01*
X70165128Y-27845105D01*
X70160022Y-27845886D01*
X70155110Y-27847491D01*
X70155112Y-27847491D01*
X69946504Y-27915675D01*
X69946502Y-27915676D01*
X69941591Y-27917281D01*
X69910538Y-27933446D01*
X69781525Y-28000606D01*
X69737753Y-28023392D01*
X69733620Y-28026495D01*
X69733617Y-28026497D01*
X69558118Y-28158265D01*
X69553983Y-28161370D01*
X69395216Y-28327510D01*
X69265716Y-28517350D01*
X69248159Y-28555174D01*
X69189196Y-28682200D01*
X69168961Y-28725792D01*
X69107548Y-28947237D01*
X69083129Y-29175739D01*
X69096357Y-29405161D01*
X69097492Y-29410198D01*
X69097493Y-29410204D01*
X69145741Y-29624297D01*
X69146878Y-29629342D01*
X69233336Y-29842261D01*
X69236033Y-29846662D01*
X69236034Y-29846664D01*
X69345619Y-30025489D01*
X69353408Y-30038200D01*
X69467738Y-30170187D01*
X69497220Y-30234773D01*
X69498500Y-30252684D01*
X69498500Y-31245332D01*
X69478498Y-31313453D01*
X69470971Y-31323941D01*
X69362408Y-31459935D01*
X69284855Y-31620362D01*
X69244771Y-31793983D01*
X69244500Y-31798683D01*
X69244501Y-32544516D01*
X69244771Y-32549217D01*
X69284855Y-32722838D01*
X69362408Y-32883265D01*
X69473577Y-33022523D01*
X69479080Y-33026916D01*
X69484063Y-33031899D01*
X69481961Y-33034001D01*
X69515098Y-33081269D01*
X69517953Y-33152208D01*
X69483552Y-33210790D01*
X69484063Y-33211301D01*
X69482097Y-33213267D01*
X69482002Y-33213429D01*
X69481500Y-33213864D01*
X69479080Y-33216284D01*
X69473577Y-33220677D01*
X69362408Y-33359935D01*
X69284855Y-33520362D01*
X69244771Y-33693983D01*
X69244500Y-33698683D01*
X69244501Y-33961842D01*
X69244501Y-34220366D01*
X69224499Y-34288487D01*
X69207596Y-34309461D01*
X68007546Y-35509511D01*
X67992518Y-35522348D01*
X67981530Y-35530331D01*
X67977117Y-35535233D01*
X67977115Y-35535234D01*
X67936751Y-35580063D01*
X67932210Y-35584847D01*
X67918063Y-35598994D01*
X67915986Y-35601559D01*
X67905463Y-35614554D01*
X67901175Y-35619575D01*
X67860830Y-35664381D01*
X67860827Y-35664385D01*
X67856415Y-35669285D01*
X67853119Y-35674995D01*
X67853116Y-35674998D01*
X67849625Y-35681045D01*
X67838432Y-35697330D01*
X67829893Y-35707875D01*
X67810490Y-35745956D01*
X67799523Y-35767480D01*
X67796376Y-35773276D01*
X67762925Y-35831215D01*
X67758731Y-35844123D01*
X67751167Y-35862384D01*
X67745006Y-35874476D01*
X67733477Y-35917503D01*
X67727691Y-35939094D01*
X67725818Y-35945418D01*
X67705145Y-36009044D01*
X67704455Y-36015611D01*
X67704454Y-36015615D01*
X67703728Y-36022529D01*
X67700125Y-36041972D01*
X67696611Y-36055085D01*
X67696265Y-36061682D01*
X67696265Y-36061684D01*
X67693110Y-36121887D01*
X67692593Y-36128461D01*
X67691334Y-36140446D01*
X67690500Y-36148380D01*
X67690500Y-36168407D01*
X67690327Y-36175001D01*
X67686826Y-36241810D01*
X67687858Y-36248325D01*
X67687858Y-36248327D01*
X67688949Y-36255214D01*
X67690500Y-36274925D01*
X67690500Y-39798831D01*
X67670498Y-39866952D01*
X67640154Y-39899590D01*
X67606680Y-39924723D01*
X67440699Y-40098412D01*
X67415465Y-40135403D01*
X67360556Y-40180404D01*
X67290032Y-40188575D01*
X67226284Y-40157321D01*
X67205589Y-40132840D01*
X67204311Y-40130865D01*
X67201502Y-40126523D01*
X67039814Y-39948830D01*
X67034943Y-39944983D01*
X67007407Y-39923236D01*
X66966345Y-39865319D01*
X66959500Y-39824355D01*
X66959500Y-35104441D01*
X66979502Y-35036320D01*
X67006891Y-35005970D01*
X67105920Y-34926916D01*
X67111423Y-34922523D01*
X67222592Y-34783265D01*
X67234707Y-34758205D01*
X67297079Y-34629180D01*
X67300145Y-34622838D01*
X67340229Y-34449217D01*
X67340500Y-34444517D01*
X67340499Y-33698684D01*
X67340229Y-33693983D01*
X67300145Y-33520362D01*
X67222592Y-33359935D01*
X67111423Y-33220677D01*
X67105920Y-33216284D01*
X67100937Y-33211301D01*
X67103039Y-33209199D01*
X67069902Y-33161931D01*
X67067047Y-33090992D01*
X67101448Y-33032410D01*
X67100937Y-33031899D01*
X67102903Y-33029933D01*
X67102998Y-33029771D01*
X67103500Y-33029336D01*
X67105920Y-33026916D01*
X67111423Y-33022523D01*
X67222592Y-32883265D01*
X67300145Y-32722838D01*
X67340229Y-32549217D01*
X67340500Y-32544517D01*
X67340499Y-31798684D01*
X67340229Y-31793983D01*
X67300145Y-31620362D01*
X67222592Y-31459935D01*
X67114029Y-31323941D01*
X67087161Y-31258224D01*
X67086500Y-31245332D01*
X67086500Y-30189206D01*
X67110177Y-30115680D01*
X67125419Y-30094469D01*
X67241997Y-29932233D01*
X67343816Y-29726217D01*
X67361679Y-29667424D01*
X67409117Y-29511291D01*
X67409118Y-29511285D01*
X67410621Y-29506339D01*
X67440616Y-29278502D01*
X67441110Y-29258305D01*
X67442208Y-29213365D01*
X67442208Y-29213361D01*
X67442290Y-29210000D01*
X67435853Y-29131709D01*
X67423884Y-28986121D01*
X67423883Y-28986115D01*
X67423460Y-28980970D01*
X67367477Y-28758090D01*
X67275843Y-28547347D01*
X67273037Y-28543009D01*
X67153830Y-28358743D01*
X67153828Y-28358740D01*
X67151020Y-28354400D01*
X67119579Y-28319846D01*
X66999837Y-28188252D01*
X66999835Y-28188251D01*
X66996359Y-28184430D01*
X66992308Y-28181231D01*
X66992304Y-28181227D01*
X66820073Y-28045208D01*
X66816015Y-28042003D01*
X66614831Y-27930943D01*
X66473156Y-27880773D01*
X66403084Y-27855959D01*
X66403080Y-27855958D01*
X66398209Y-27854233D01*
X66393116Y-27853326D01*
X66393113Y-27853325D01*
X66177056Y-27814839D01*
X66177050Y-27814838D01*
X66171967Y-27813933D01*
X66098784Y-27813039D01*
X65947351Y-27811189D01*
X65947349Y-27811189D01*
X65942181Y-27811126D01*
X65790610Y-27834319D01*
X65720131Y-27845104D01*
X65720128Y-27845105D01*
X65715022Y-27845886D01*
X65710110Y-27847491D01*
X65710112Y-27847491D01*
X65501504Y-27915675D01*
X65501502Y-27915676D01*
X65496591Y-27917281D01*
X65465538Y-27933446D01*
X65336525Y-28000606D01*
X65292753Y-28023392D01*
X65288620Y-28026495D01*
X65288617Y-28026497D01*
X65113118Y-28158265D01*
X65108983Y-28161370D01*
X64950216Y-28327510D01*
X64820716Y-28517350D01*
X64803159Y-28555174D01*
X64744196Y-28682200D01*
X64723961Y-28725792D01*
X64662548Y-28947237D01*
X64638129Y-29175739D01*
X64651357Y-29405161D01*
X64652492Y-29410198D01*
X64652493Y-29410204D01*
X64700741Y-29624297D01*
X64701878Y-29629342D01*
X64788336Y-29842261D01*
X64791033Y-29846662D01*
X64791034Y-29846664D01*
X64900619Y-30025489D01*
X64908408Y-30038200D01*
X65022738Y-30170187D01*
X65052220Y-30234773D01*
X65053500Y-30252684D01*
X65053500Y-31245332D01*
X65033498Y-31313453D01*
X65025971Y-31323941D01*
X64917408Y-31459935D01*
X64839855Y-31620362D01*
X64799771Y-31793983D01*
X64799500Y-31798683D01*
X64799501Y-32544516D01*
X64799771Y-32549217D01*
X64839855Y-32722838D01*
X64917408Y-32883265D01*
X65028577Y-33022523D01*
X65034080Y-33026916D01*
X65039063Y-33031899D01*
X65036961Y-33034001D01*
X65070098Y-33081269D01*
X65072953Y-33152208D01*
X65038552Y-33210790D01*
X65039063Y-33211301D01*
X65037097Y-33213267D01*
X65037002Y-33213429D01*
X65036500Y-33213864D01*
X65034080Y-33216284D01*
X65028577Y-33220677D01*
X64917408Y-33359935D01*
X64839855Y-33520362D01*
X64799771Y-33693983D01*
X64799500Y-33698683D01*
X64799501Y-34444516D01*
X64799771Y-34449217D01*
X64839855Y-34622838D01*
X64842921Y-34629180D01*
X64905294Y-34758205D01*
X64917408Y-34783265D01*
X65028577Y-34922523D01*
X65034080Y-34926916D01*
X65133109Y-35005970D01*
X65173868Y-35064101D01*
X65180500Y-35104441D01*
X65180500Y-39776306D01*
X65160498Y-39844427D01*
X65130154Y-39877065D01*
X65066680Y-39924723D01*
X64900699Y-40098412D01*
X64875465Y-40135403D01*
X64820556Y-40180404D01*
X64750032Y-40188575D01*
X64686284Y-40157321D01*
X64665589Y-40132840D01*
X64664311Y-40130865D01*
X64661502Y-40126523D01*
X64499814Y-39948830D01*
X64437407Y-39899544D01*
X64396345Y-39841628D01*
X64389500Y-39800663D01*
X64389500Y-37544924D01*
X64391051Y-37525213D01*
X64392142Y-37518326D01*
X64392142Y-37518324D01*
X64393174Y-37511809D01*
X64390704Y-37464669D01*
X64389673Y-37445007D01*
X64389500Y-37438413D01*
X64389500Y-37418380D01*
X64387406Y-37398455D01*
X64386889Y-37391881D01*
X64383734Y-37331680D01*
X64383734Y-37331677D01*
X64383388Y-37325084D01*
X64379876Y-37311976D01*
X64376275Y-37292543D01*
X64375547Y-37285618D01*
X64375545Y-37285609D01*
X64374855Y-37279044D01*
X64354180Y-37215412D01*
X64352311Y-37209104D01*
X64340168Y-37163785D01*
X64334994Y-37144475D01*
X64331998Y-37138595D01*
X64331996Y-37138590D01*
X64328834Y-37132385D01*
X64321269Y-37114121D01*
X64319119Y-37107504D01*
X64319117Y-37107499D01*
X64317075Y-37101215D01*
X64283624Y-37043276D01*
X64280478Y-37037481D01*
X64253106Y-36983762D01*
X64253104Y-36983759D01*
X64250106Y-36977875D01*
X64245948Y-36972740D01*
X64241567Y-36967329D01*
X64230372Y-36951041D01*
X64227632Y-36946295D01*
X64223585Y-36939285D01*
X64178803Y-36889550D01*
X64174529Y-36884546D01*
X64161936Y-36868994D01*
X64147799Y-36854857D01*
X64143258Y-36850073D01*
X64102885Y-36805234D01*
X64102883Y-36805233D01*
X64098470Y-36800331D01*
X64087484Y-36792349D01*
X64072451Y-36779509D01*
X62551405Y-35258462D01*
X62517379Y-35196150D01*
X62514500Y-35169367D01*
X62514500Y-35104441D01*
X62534502Y-35036320D01*
X62561891Y-35005970D01*
X62660920Y-34926916D01*
X62666423Y-34922523D01*
X62777592Y-34783265D01*
X62789707Y-34758205D01*
X62852079Y-34629180D01*
X62855145Y-34622838D01*
X62895229Y-34449217D01*
X62895500Y-34444517D01*
X62895499Y-33698684D01*
X62895229Y-33693983D01*
X62855145Y-33520362D01*
X62777592Y-33359935D01*
X62666423Y-33220677D01*
X62660920Y-33216284D01*
X62655937Y-33211301D01*
X62658039Y-33209199D01*
X62624902Y-33161931D01*
X62622047Y-33090992D01*
X62656448Y-33032410D01*
X62655937Y-33031899D01*
X62657903Y-33029933D01*
X62657998Y-33029771D01*
X62658500Y-33029336D01*
X62660920Y-33026916D01*
X62666423Y-33022523D01*
X62777592Y-32883265D01*
X62855145Y-32722838D01*
X62895229Y-32549217D01*
X62895500Y-32544517D01*
X62895499Y-31798684D01*
X62895229Y-31793983D01*
X62855145Y-31620362D01*
X62777592Y-31459935D01*
X62669029Y-31323941D01*
X62642161Y-31258224D01*
X62641500Y-31245332D01*
X62641500Y-30280687D01*
X62661502Y-30212566D01*
X62676406Y-30193636D01*
X62680640Y-30189206D01*
X62744309Y-30122580D01*
X62879694Y-29924114D01*
X62894251Y-29892755D01*
X62978666Y-29710897D01*
X62978667Y-29710893D01*
X62980845Y-29706202D01*
X63045048Y-29474694D01*
X63066008Y-29278564D01*
X63066008Y-28607364D01*
X63086010Y-28539243D01*
X63102913Y-28518269D01*
X64641462Y-26979720D01*
X64691410Y-26949051D01*
X64708186Y-26943568D01*
X64708196Y-26943564D01*
X64713109Y-26941958D01*
X64717695Y-26939571D01*
X64717699Y-26939569D01*
X64921615Y-26833416D01*
X64926208Y-26831025D01*
X65044863Y-26741936D01*
X65114193Y-26689882D01*
X65114196Y-26689880D01*
X65118328Y-26686777D01*
X65284309Y-26513088D01*
X65419694Y-26314622D01*
X65451783Y-26245493D01*
X65518666Y-26101405D01*
X65518667Y-26101401D01*
X65520845Y-26096710D01*
X65585048Y-25865202D01*
X65606008Y-25669072D01*
X65606008Y-25449043D01*
X65606148Y-25443107D01*
X65606334Y-25439173D01*
X65610122Y-25358845D01*
X65607970Y-25340530D01*
X65607119Y-25324304D01*
X65607444Y-25297737D01*
X65606662Y-25292624D01*
X65606315Y-25287671D01*
X65606008Y-25278878D01*
X65606008Y-25148598D01*
X65604832Y-25134285D01*
X65591754Y-24975224D01*
X65591330Y-24970063D01*
X65532802Y-24737056D01*
X65437005Y-24516737D01*
X65306510Y-24315023D01*
X65144822Y-24137330D01*
X65067991Y-24076653D01*
X64960338Y-23991633D01*
X64960333Y-23991630D01*
X64956284Y-23988432D01*
X64951768Y-23985939D01*
X64951765Y-23985937D01*
X64750482Y-23874823D01*
X64750478Y-23874821D01*
X64745958Y-23872326D01*
X64741089Y-23870602D01*
X64741085Y-23870600D01*
X64524368Y-23793856D01*
X64524364Y-23793855D01*
X64519493Y-23792130D01*
X64514400Y-23791223D01*
X64514397Y-23791222D01*
X64288060Y-23750905D01*
X64288054Y-23750904D01*
X64282971Y-23749999D01*
X64195608Y-23748932D01*
X64047915Y-23747127D01*
X64047913Y-23747127D01*
X64042745Y-23747064D01*
X63805264Y-23783404D01*
X63693011Y-23820094D01*
X63581825Y-23856434D01*
X63581819Y-23856437D01*
X63576907Y-23858042D01*
X63572321Y-23860429D01*
X63572317Y-23860431D01*
X63448738Y-23924763D01*
X63390557Y-23939000D01*
X62359207Y-23939000D01*
X62298314Y-23923309D01*
X62258787Y-23901489D01*
X62205958Y-23872326D01*
X62201089Y-23870602D01*
X62201085Y-23870600D01*
X61984368Y-23793856D01*
X61984364Y-23793855D01*
X61979493Y-23792130D01*
X61974400Y-23791223D01*
X61974397Y-23791222D01*
X61748060Y-23750905D01*
X61748054Y-23750904D01*
X61742971Y-23749999D01*
X61655608Y-23748932D01*
X61507915Y-23747127D01*
X61507913Y-23747127D01*
X61502745Y-23747064D01*
X61265264Y-23783404D01*
X61153011Y-23820094D01*
X61041825Y-23856434D01*
X61041819Y-23856437D01*
X61036907Y-23858042D01*
X61032321Y-23860429D01*
X61032317Y-23860431D01*
X60934037Y-23911593D01*
X60823808Y-23968975D01*
X60631688Y-24113223D01*
X60465707Y-24286912D01*
X60330322Y-24485378D01*
X60328148Y-24490061D01*
X60328146Y-24490065D01*
X60231350Y-24698595D01*
X60229171Y-24703290D01*
X60164968Y-24934798D01*
X60164419Y-24939935D01*
X60152384Y-25052554D01*
X60144008Y-25130928D01*
X60144008Y-25383926D01*
X60143999Y-25385464D01*
X60142572Y-25502263D01*
X60143354Y-25507376D01*
X60143701Y-25512329D01*
X60144008Y-25521122D01*
X60144008Y-27910967D01*
X60143868Y-27916901D01*
X60139894Y-28001171D01*
X60142869Y-28026497D01*
X60143147Y-28028862D01*
X60144008Y-28043563D01*
X60144008Y-29260894D01*
X60144220Y-29263467D01*
X60144220Y-29263478D01*
X60145735Y-29281899D01*
X60158686Y-29439429D01*
X60217214Y-29672436D01*
X60313011Y-29892755D01*
X60443506Y-30094469D01*
X60446980Y-30098287D01*
X60446987Y-30098296D01*
X60575694Y-30239743D01*
X60606746Y-30303588D01*
X60608500Y-30324542D01*
X60608500Y-31245332D01*
X60588498Y-31313453D01*
X60580971Y-31323941D01*
X60472408Y-31459935D01*
X60394855Y-31620362D01*
X60354771Y-31793983D01*
X60354500Y-31798683D01*
X60354501Y-32544516D01*
X60354771Y-32549217D01*
X60394855Y-32722838D01*
X60472408Y-32883265D01*
X60583577Y-33022523D01*
X60589080Y-33026916D01*
X60594063Y-33031899D01*
X60591961Y-33034001D01*
X60625098Y-33081269D01*
X60627953Y-33152208D01*
X60593552Y-33210790D01*
X60594063Y-33211301D01*
X60592097Y-33213267D01*
X60592002Y-33213429D01*
X60591500Y-33213864D01*
X60589080Y-33216284D01*
X60583577Y-33220677D01*
X60472408Y-33359935D01*
X60394855Y-33520362D01*
X60354771Y-33693983D01*
X60354500Y-33698683D01*
X60354501Y-34444516D01*
X60354771Y-34449217D01*
X60394855Y-34622838D01*
X60397921Y-34629180D01*
X60460294Y-34758205D01*
X60472408Y-34783265D01*
X60583577Y-34922523D01*
X60589080Y-34926916D01*
X60688109Y-35005970D01*
X60728868Y-35064101D01*
X60735500Y-35104441D01*
X60735500Y-35510075D01*
X60733949Y-35529786D01*
X60733053Y-35535446D01*
X60731826Y-35543190D01*
X60732171Y-35549778D01*
X60732171Y-35549782D01*
X60735327Y-35609999D01*
X60735500Y-35616593D01*
X60735500Y-35636620D01*
X60735844Y-35639891D01*
X60735844Y-35639895D01*
X60737593Y-35656539D01*
X60738110Y-35663113D01*
X60741265Y-35723316D01*
X60741611Y-35729915D01*
X60743320Y-35736292D01*
X60743320Y-35736293D01*
X60745124Y-35743023D01*
X60748728Y-35762470D01*
X60750145Y-35775956D01*
X60753379Y-35785908D01*
X60770818Y-35839582D01*
X60772691Y-35845906D01*
X60790006Y-35910524D01*
X60796167Y-35922616D01*
X60803730Y-35940875D01*
X60807925Y-35953785D01*
X60827402Y-35987520D01*
X60841376Y-36011724D01*
X60844523Y-36017520D01*
X60874893Y-36077125D01*
X60879050Y-36082258D01*
X60883432Y-36087670D01*
X60894625Y-36103955D01*
X60898116Y-36110002D01*
X60898119Y-36110005D01*
X60901415Y-36115715D01*
X60905827Y-36120615D01*
X60905830Y-36120619D01*
X60946175Y-36165425D01*
X60950463Y-36170446D01*
X60952124Y-36172497D01*
X60963063Y-36186006D01*
X60977210Y-36200153D01*
X60981751Y-36204937D01*
X61020820Y-36248327D01*
X61026530Y-36254669D01*
X61037518Y-36262652D01*
X61052546Y-36275489D01*
X61826641Y-37049583D01*
X62573595Y-37796537D01*
X62607620Y-37858849D01*
X62610500Y-37885632D01*
X62610500Y-39798831D01*
X62590498Y-39866952D01*
X62560154Y-39899590D01*
X62526680Y-39924723D01*
X62360699Y-40098412D01*
X62335465Y-40135403D01*
X62280556Y-40180404D01*
X62210032Y-40188575D01*
X62146284Y-40157321D01*
X62125589Y-40132840D01*
X62124311Y-40130865D01*
X62121502Y-40126523D01*
X61959814Y-39948830D01*
X61897407Y-39899544D01*
X61856345Y-39841628D01*
X61849500Y-39800663D01*
X61849500Y-39449925D01*
X61851051Y-39430214D01*
X61852142Y-39423327D01*
X61852142Y-39423325D01*
X61853174Y-39416810D01*
X61852765Y-39408994D01*
X61849673Y-39350008D01*
X61849500Y-39343414D01*
X61849500Y-39323380D01*
X61847406Y-39303454D01*
X61846889Y-39296880D01*
X61843734Y-39236681D01*
X61843734Y-39236678D01*
X61843388Y-39230085D01*
X61839876Y-39216977D01*
X61836275Y-39197544D01*
X61835546Y-39190614D01*
X61835545Y-39190610D01*
X61834855Y-39184044D01*
X61814178Y-39120408D01*
X61812307Y-39114091D01*
X61794994Y-39049475D01*
X61791994Y-39043587D01*
X61788834Y-39037385D01*
X61781269Y-39019121D01*
X61779119Y-39012504D01*
X61779116Y-39012497D01*
X61777075Y-39006215D01*
X61743624Y-38948276D01*
X61740478Y-38942481D01*
X61713106Y-38888762D01*
X61713104Y-38888759D01*
X61710106Y-38882875D01*
X61705948Y-38877740D01*
X61701567Y-38872329D01*
X61690372Y-38856041D01*
X61683585Y-38844285D01*
X61666062Y-38824823D01*
X61638827Y-38794576D01*
X61634543Y-38789561D01*
X61624012Y-38776556D01*
X61624009Y-38776552D01*
X61621937Y-38773994D01*
X61607790Y-38759847D01*
X61603249Y-38755063D01*
X61562885Y-38710234D01*
X61562883Y-38710233D01*
X61558470Y-38705331D01*
X61547482Y-38697348D01*
X61532454Y-38684511D01*
X58106405Y-35258462D01*
X58072379Y-35196150D01*
X58069500Y-35169367D01*
X58069500Y-35104441D01*
X58089502Y-35036320D01*
X58116891Y-35005970D01*
X58215920Y-34926916D01*
X58221423Y-34922523D01*
X58332592Y-34783265D01*
X58344707Y-34758205D01*
X58407079Y-34629180D01*
X58410145Y-34622838D01*
X58450229Y-34449217D01*
X58450500Y-34444517D01*
X58450499Y-33698684D01*
X58450229Y-33693983D01*
X58410145Y-33520362D01*
X58332592Y-33359935D01*
X58221423Y-33220677D01*
X58215920Y-33216284D01*
X58210937Y-33211301D01*
X58213039Y-33209199D01*
X58179902Y-33161931D01*
X58177047Y-33090992D01*
X58211448Y-33032410D01*
X58210937Y-33031899D01*
X58212903Y-33029933D01*
X58212998Y-33029771D01*
X58213500Y-33029336D01*
X58215920Y-33026916D01*
X58221423Y-33022523D01*
X58332592Y-32883265D01*
X58410145Y-32722838D01*
X58450229Y-32549217D01*
X58450500Y-32544517D01*
X58450499Y-31798684D01*
X58450229Y-31793983D01*
X58410145Y-31620362D01*
X58332592Y-31459935D01*
X58224029Y-31323941D01*
X58197161Y-31258224D01*
X58196500Y-31245332D01*
X58196500Y-30189206D01*
X58220177Y-30115680D01*
X58235419Y-30094469D01*
X58351997Y-29932233D01*
X58453816Y-29726217D01*
X58471679Y-29667424D01*
X58519117Y-29511291D01*
X58519118Y-29511285D01*
X58520621Y-29506339D01*
X58550616Y-29278502D01*
X58551110Y-29258305D01*
X58552208Y-29213365D01*
X58552208Y-29213361D01*
X58552290Y-29210000D01*
X58545853Y-29131709D01*
X58533884Y-28986121D01*
X58533883Y-28986115D01*
X58533460Y-28980970D01*
X58477477Y-28758090D01*
X58385843Y-28547347D01*
X58383037Y-28543009D01*
X58263830Y-28358743D01*
X58263828Y-28358740D01*
X58261020Y-28354400D01*
X58229579Y-28319846D01*
X58109837Y-28188252D01*
X58109835Y-28188251D01*
X58106359Y-28184430D01*
X58102308Y-28181231D01*
X58102304Y-28181227D01*
X57930073Y-28045208D01*
X57926015Y-28042003D01*
X57724831Y-27930943D01*
X57583156Y-27880773D01*
X57513084Y-27855959D01*
X57513080Y-27855958D01*
X57508209Y-27854233D01*
X57503116Y-27853326D01*
X57503113Y-27853325D01*
X57287056Y-27814839D01*
X57287050Y-27814838D01*
X57281967Y-27813933D01*
X57208784Y-27813039D01*
X57057351Y-27811189D01*
X57057349Y-27811189D01*
X57052181Y-27811126D01*
X56900610Y-27834319D01*
X56830131Y-27845104D01*
X56830128Y-27845105D01*
X56825022Y-27845886D01*
X56820110Y-27847491D01*
X56820112Y-27847491D01*
X56611504Y-27915675D01*
X56611502Y-27915676D01*
X56606591Y-27917281D01*
X56575538Y-27933446D01*
X56446525Y-28000606D01*
X56402753Y-28023392D01*
X56398620Y-28026495D01*
X56398617Y-28026497D01*
X56223118Y-28158265D01*
X56218983Y-28161370D01*
X56060216Y-28327510D01*
X55930716Y-28517350D01*
X55913159Y-28555174D01*
X55854196Y-28682200D01*
X55833961Y-28725792D01*
X55772548Y-28947237D01*
X55748129Y-29175739D01*
X55761357Y-29405161D01*
X55762492Y-29410198D01*
X55762493Y-29410204D01*
X55810741Y-29624297D01*
X55811878Y-29629342D01*
X55898336Y-29842261D01*
X55901033Y-29846662D01*
X55901034Y-29846664D01*
X56010619Y-30025489D01*
X56018408Y-30038200D01*
X56132738Y-30170187D01*
X56162220Y-30234773D01*
X56163500Y-30252684D01*
X56163500Y-31245332D01*
X56143498Y-31313453D01*
X56135971Y-31323941D01*
X56027408Y-31459935D01*
X55949855Y-31620362D01*
X55909771Y-31793983D01*
X55909500Y-31798683D01*
X55909501Y-32544516D01*
X55909771Y-32549217D01*
X55949855Y-32722838D01*
X56027408Y-32883265D01*
X56138577Y-33022523D01*
X56144080Y-33026916D01*
X56149063Y-33031899D01*
X56146961Y-33034001D01*
X56180098Y-33081269D01*
X56182953Y-33152208D01*
X56148552Y-33210790D01*
X56149063Y-33211301D01*
X56147097Y-33213267D01*
X56147002Y-33213429D01*
X56146500Y-33213864D01*
X56144080Y-33216284D01*
X56138577Y-33220677D01*
X56027408Y-33359935D01*
X55949855Y-33520362D01*
X55909771Y-33693983D01*
X55909500Y-33698683D01*
X55909501Y-34444516D01*
X55909771Y-34449217D01*
X55949855Y-34622838D01*
X55952921Y-34629180D01*
X56015294Y-34758205D01*
X56027408Y-34783265D01*
X56138577Y-34922523D01*
X56144080Y-34926916D01*
X56243109Y-35005970D01*
X56283868Y-35064101D01*
X56290500Y-35104441D01*
X56290500Y-35510075D01*
X56288949Y-35529786D01*
X56288053Y-35535446D01*
X56286826Y-35543190D01*
X56287171Y-35549778D01*
X56287171Y-35549782D01*
X56290327Y-35609999D01*
X56290500Y-35616593D01*
X56290500Y-35636620D01*
X56290844Y-35639891D01*
X56290844Y-35639895D01*
X56292593Y-35656539D01*
X56293110Y-35663113D01*
X56296265Y-35723316D01*
X56296611Y-35729915D01*
X56298320Y-35736292D01*
X56298320Y-35736293D01*
X56300124Y-35743023D01*
X56303728Y-35762470D01*
X56305145Y-35775956D01*
X56308379Y-35785908D01*
X56325818Y-35839582D01*
X56327691Y-35845906D01*
X56345006Y-35910524D01*
X56351167Y-35922616D01*
X56358730Y-35940875D01*
X56362925Y-35953785D01*
X56382402Y-35987520D01*
X56396376Y-36011724D01*
X56399523Y-36017520D01*
X56429893Y-36077125D01*
X56434050Y-36082258D01*
X56438432Y-36087670D01*
X56449625Y-36103955D01*
X56453116Y-36110002D01*
X56453119Y-36110005D01*
X56456415Y-36115715D01*
X56460827Y-36120615D01*
X56460830Y-36120619D01*
X56501175Y-36165425D01*
X56505463Y-36170446D01*
X56507124Y-36172497D01*
X56518063Y-36186006D01*
X56532210Y-36200153D01*
X56536751Y-36204937D01*
X56575820Y-36248327D01*
X56581530Y-36254669D01*
X56592518Y-36262652D01*
X56607546Y-36275489D01*
X60033595Y-39701538D01*
X60067621Y-39763850D01*
X60070500Y-39790633D01*
X60070500Y-39798831D01*
X60050498Y-39866952D01*
X60020154Y-39899590D01*
X59986680Y-39924723D01*
X59820699Y-40098412D01*
X59795465Y-40135403D01*
X59740556Y-40180404D01*
X59670032Y-40188575D01*
X59606284Y-40157321D01*
X59585589Y-40132840D01*
X59584311Y-40130865D01*
X59581502Y-40126523D01*
X59419814Y-39948830D01*
X59337647Y-39883939D01*
X59296585Y-39826024D01*
X59294979Y-39820227D01*
X59294855Y-39819044D01*
X59274178Y-39755408D01*
X59272307Y-39749091D01*
X59256703Y-39690852D01*
X59256702Y-39690849D01*
X59254994Y-39684475D01*
X59251998Y-39678595D01*
X59251995Y-39678587D01*
X59248832Y-39672379D01*
X59241269Y-39654122D01*
X59239116Y-39647496D01*
X59239116Y-39647495D01*
X59237075Y-39641215D01*
X59203629Y-39583285D01*
X59200483Y-39577491D01*
X59170107Y-39517875D01*
X59161568Y-39507330D01*
X59150375Y-39491045D01*
X59146884Y-39484998D01*
X59146881Y-39484995D01*
X59143585Y-39479285D01*
X59139173Y-39474385D01*
X59139170Y-39474381D01*
X59108218Y-39440007D01*
X59098819Y-39429568D01*
X59094537Y-39424554D01*
X59084014Y-39411559D01*
X59081937Y-39408994D01*
X59067790Y-39394847D01*
X59063249Y-39390063D01*
X59022885Y-39345234D01*
X59022883Y-39345233D01*
X59018470Y-39340331D01*
X59007482Y-39332348D01*
X58992454Y-39319511D01*
X54042405Y-34369462D01*
X54008379Y-34307150D01*
X54005500Y-34280367D01*
X54005499Y-33700477D01*
X54005499Y-33698684D01*
X54005229Y-33693983D01*
X53965145Y-33520362D01*
X53887592Y-33359935D01*
X53776423Y-33220677D01*
X53770920Y-33216284D01*
X53765937Y-33211301D01*
X53768039Y-33209199D01*
X53734902Y-33161931D01*
X53732047Y-33090992D01*
X53766448Y-33032410D01*
X53765937Y-33031899D01*
X53767903Y-33029933D01*
X53767998Y-33029771D01*
X53768500Y-33029336D01*
X53770920Y-33026916D01*
X53776423Y-33022523D01*
X53887592Y-32883265D01*
X53965145Y-32722838D01*
X54005229Y-32549217D01*
X54005500Y-32544517D01*
X54005499Y-31798684D01*
X54005229Y-31793983D01*
X53965145Y-31620362D01*
X53887592Y-31459935D01*
X53779029Y-31323941D01*
X53752161Y-31258224D01*
X53751500Y-31245332D01*
X53751500Y-30189206D01*
X53775177Y-30115680D01*
X53790419Y-30094469D01*
X53906997Y-29932233D01*
X54008816Y-29726217D01*
X54026679Y-29667424D01*
X54074117Y-29511291D01*
X54074118Y-29511285D01*
X54075621Y-29506339D01*
X54105616Y-29278502D01*
X54106110Y-29258305D01*
X54107208Y-29213365D01*
X54107208Y-29213361D01*
X54107290Y-29210000D01*
X54100853Y-29131709D01*
X54088884Y-28986121D01*
X54088883Y-28986115D01*
X54088460Y-28980970D01*
X54032477Y-28758090D01*
X53940843Y-28547347D01*
X53938037Y-28543009D01*
X53818830Y-28358743D01*
X53818828Y-28358740D01*
X53816020Y-28354400D01*
X53784579Y-28319846D01*
X53664837Y-28188252D01*
X53664835Y-28188251D01*
X53661359Y-28184430D01*
X53657308Y-28181231D01*
X53657304Y-28181227D01*
X53485073Y-28045208D01*
X53481015Y-28042003D01*
X53279831Y-27930943D01*
X53138156Y-27880773D01*
X53068084Y-27855959D01*
X53068080Y-27855958D01*
X53063209Y-27854233D01*
X53058116Y-27853326D01*
X53058113Y-27853325D01*
X52842056Y-27814839D01*
X52842050Y-27814838D01*
X52836967Y-27813933D01*
X52763784Y-27813039D01*
X52612351Y-27811189D01*
X52612349Y-27811189D01*
X52607181Y-27811126D01*
X52455610Y-27834319D01*
X52385131Y-27845104D01*
X52385128Y-27845105D01*
X52380022Y-27845886D01*
X52375110Y-27847491D01*
X52375112Y-27847491D01*
X52166504Y-27915675D01*
X52166502Y-27915676D01*
X52161591Y-27917281D01*
X52130538Y-27933446D01*
X52001525Y-28000606D01*
X51957753Y-28023392D01*
X51953620Y-28026495D01*
X51953617Y-28026497D01*
X51778118Y-28158265D01*
X51773983Y-28161370D01*
X51615216Y-28327510D01*
X51485716Y-28517350D01*
X51468159Y-28555174D01*
X51409196Y-28682200D01*
X51388961Y-28725792D01*
X51327548Y-28947237D01*
X51303129Y-29175739D01*
X51316357Y-29405161D01*
X51317492Y-29410198D01*
X51317493Y-29410204D01*
X51365741Y-29624297D01*
X51366878Y-29629342D01*
X51453336Y-29842261D01*
X51456033Y-29846662D01*
X51456034Y-29846664D01*
X51565619Y-30025489D01*
X51573408Y-30038200D01*
X51687738Y-30170187D01*
X51717220Y-30234773D01*
X51718500Y-30252684D01*
X51718500Y-31245332D01*
X51698498Y-31313453D01*
X51690971Y-31323941D01*
X51582408Y-31459935D01*
X51504855Y-31620362D01*
X51464771Y-31793983D01*
X51464500Y-31798683D01*
X51464501Y-32544516D01*
X51464771Y-32549217D01*
X51504855Y-32722838D01*
X51582408Y-32883265D01*
X51693577Y-33022523D01*
X51699080Y-33026916D01*
X51704063Y-33031899D01*
X51701961Y-33034001D01*
X51735098Y-33081269D01*
X51737953Y-33152208D01*
X51703552Y-33210790D01*
X51704063Y-33211301D01*
X51702097Y-33213267D01*
X51702002Y-33213429D01*
X51701500Y-33213864D01*
X51699080Y-33216284D01*
X51693577Y-33220677D01*
X51582408Y-33359935D01*
X51504855Y-33520362D01*
X51464771Y-33693983D01*
X51464500Y-33698683D01*
X51464501Y-34444516D01*
X51464771Y-34449217D01*
X51504855Y-34622838D01*
X51507921Y-34629180D01*
X51540046Y-34695634D01*
X51551686Y-34765670D01*
X51523614Y-34830881D01*
X51464743Y-34870563D01*
X51393763Y-34872117D01*
X51337511Y-34839568D01*
X50850489Y-34352546D01*
X50837652Y-34337518D01*
X50829669Y-34326530D01*
X50808146Y-34307150D01*
X50779937Y-34281751D01*
X50775153Y-34277210D01*
X50761006Y-34263063D01*
X50745446Y-34250463D01*
X50740425Y-34246175D01*
X50695619Y-34205830D01*
X50695615Y-34205827D01*
X50690715Y-34201415D01*
X50685005Y-34198119D01*
X50685002Y-34198116D01*
X50678955Y-34194625D01*
X50662670Y-34183432D01*
X50652125Y-34174893D01*
X50592520Y-34144523D01*
X50586724Y-34141376D01*
X50580975Y-34138057D01*
X50528785Y-34107925D01*
X50515875Y-34103730D01*
X50497616Y-34096167D01*
X50485524Y-34090006D01*
X50420906Y-34072691D01*
X50414582Y-34070818D01*
X50405981Y-34068023D01*
X50350956Y-34050145D01*
X50344389Y-34049455D01*
X50344385Y-34049454D01*
X50338712Y-34048858D01*
X50337470Y-34048728D01*
X50318028Y-34045125D01*
X50304915Y-34041611D01*
X50298318Y-34041265D01*
X50298316Y-34041265D01*
X50238113Y-34038110D01*
X50231539Y-34037593D01*
X50214895Y-34035844D01*
X50214891Y-34035844D01*
X50211620Y-34035500D01*
X50191593Y-34035500D01*
X50184999Y-34035327D01*
X50124782Y-34032171D01*
X50124778Y-34032171D01*
X50118190Y-34031826D01*
X50111675Y-34032858D01*
X50111673Y-34032858D01*
X50104786Y-34033949D01*
X50085075Y-34035500D01*
X49686499Y-34035500D01*
X49618378Y-34015498D01*
X49571885Y-33961842D01*
X49560499Y-33909500D01*
X49560499Y-33698684D01*
X49560229Y-33693983D01*
X49520145Y-33520362D01*
X49442592Y-33359935D01*
X49331423Y-33220677D01*
X49325920Y-33216284D01*
X49320937Y-33211301D01*
X49323039Y-33209199D01*
X49289902Y-33161931D01*
X49287047Y-33090992D01*
X49321448Y-33032410D01*
X49320937Y-33031899D01*
X49322903Y-33029933D01*
X49322998Y-33029771D01*
X49323500Y-33029336D01*
X49325920Y-33026916D01*
X49331423Y-33022523D01*
X49442592Y-32883265D01*
X49520145Y-32722838D01*
X49560229Y-32549217D01*
X49560500Y-32544517D01*
X49560499Y-31798684D01*
X49560229Y-31793983D01*
X49520145Y-31620362D01*
X49442592Y-31459935D01*
X49334029Y-31323941D01*
X49307161Y-31258224D01*
X49306500Y-31245332D01*
X49306500Y-30189206D01*
X49330177Y-30115680D01*
X49345419Y-30094469D01*
X49461997Y-29932233D01*
X49563816Y-29726217D01*
X49581679Y-29667424D01*
X49629117Y-29511291D01*
X49629118Y-29511285D01*
X49630621Y-29506339D01*
X49660616Y-29278502D01*
X49661110Y-29258305D01*
X49662208Y-29213365D01*
X49662208Y-29213361D01*
X49662290Y-29210000D01*
X49655853Y-29131709D01*
X49643884Y-28986121D01*
X49643883Y-28986115D01*
X49643460Y-28980970D01*
X49587477Y-28758090D01*
X49495843Y-28547347D01*
X49493037Y-28543009D01*
X49373830Y-28358743D01*
X49373828Y-28358740D01*
X49371020Y-28354400D01*
X49339579Y-28319846D01*
X49219837Y-28188252D01*
X49219835Y-28188251D01*
X49216359Y-28184430D01*
X49212308Y-28181231D01*
X49212304Y-28181227D01*
X49040073Y-28045208D01*
X49036015Y-28042003D01*
X48834831Y-27930943D01*
X48693156Y-27880773D01*
X48623084Y-27855959D01*
X48623080Y-27855958D01*
X48618209Y-27854233D01*
X48613116Y-27853326D01*
X48613113Y-27853325D01*
X48397056Y-27814839D01*
X48397050Y-27814838D01*
X48391967Y-27813933D01*
X48318784Y-27813039D01*
X48167351Y-27811189D01*
X48167349Y-27811189D01*
X48162181Y-27811126D01*
X48010610Y-27834319D01*
X47940131Y-27845104D01*
X47940128Y-27845105D01*
X47935022Y-27845886D01*
X47930110Y-27847491D01*
X47930112Y-27847491D01*
X47721504Y-27915675D01*
X47721502Y-27915676D01*
X47716591Y-27917281D01*
X47685538Y-27933446D01*
X47556525Y-28000606D01*
X47512753Y-28023392D01*
X47508620Y-28026495D01*
X47508617Y-28026497D01*
X47333118Y-28158265D01*
X47328983Y-28161370D01*
X47170216Y-28327510D01*
X47040716Y-28517350D01*
X47023159Y-28555174D01*
X46964196Y-28682200D01*
X46943961Y-28725792D01*
X46882548Y-28947237D01*
X46858129Y-29175739D01*
X46871357Y-29405161D01*
X46872492Y-29410198D01*
X46872493Y-29410204D01*
X46920741Y-29624297D01*
X46921878Y-29629342D01*
X47008336Y-29842261D01*
X47011033Y-29846662D01*
X47011034Y-29846664D01*
X47120619Y-30025489D01*
X47128408Y-30038200D01*
X47242738Y-30170187D01*
X47272220Y-30234773D01*
X47273500Y-30252684D01*
X47273500Y-31245332D01*
X47253498Y-31313453D01*
X47245971Y-31323941D01*
X47137408Y-31459935D01*
X47059855Y-31620362D01*
X47019771Y-31793983D01*
X47019500Y-31798683D01*
X47019501Y-32544516D01*
X47019771Y-32549217D01*
X47059855Y-32722838D01*
X47137408Y-32883265D01*
X47248577Y-33022523D01*
X47254080Y-33026916D01*
X47259063Y-33031899D01*
X47256961Y-33034001D01*
X47290098Y-33081269D01*
X47292953Y-33152208D01*
X47258552Y-33210790D01*
X47259063Y-33211301D01*
X47257097Y-33213267D01*
X47257002Y-33213429D01*
X47256500Y-33213864D01*
X47254080Y-33216284D01*
X47248577Y-33220677D01*
X47137408Y-33359935D01*
X47059855Y-33520362D01*
X47019771Y-33693983D01*
X47019500Y-33698683D01*
X47019501Y-34444516D01*
X47019771Y-34449217D01*
X47059855Y-34622838D01*
X47062921Y-34629180D01*
X47125294Y-34758205D01*
X47137408Y-34783265D01*
X47248577Y-34922523D01*
X47254080Y-34926916D01*
X47353109Y-35005970D01*
X47387835Y-35033692D01*
X47394178Y-35036758D01*
X47394179Y-35036759D01*
X47409028Y-35043937D01*
X47450740Y-35064101D01*
X47454792Y-35066060D01*
X47507417Y-35113716D01*
X47525923Y-35182258D01*
X47504434Y-35249925D01*
X47449774Y-35295232D01*
X47399953Y-35305500D01*
X45505633Y-35305500D01*
X45437512Y-35285498D01*
X45416538Y-35268595D01*
X45039275Y-34891332D01*
X45005249Y-34829020D01*
X45010314Y-34758205D01*
X45014925Y-34747410D01*
X45075145Y-34622838D01*
X45115229Y-34449217D01*
X45115500Y-34444517D01*
X45115499Y-33698684D01*
X45115229Y-33693983D01*
X45075145Y-33520362D01*
X44997592Y-33359935D01*
X44886423Y-33220677D01*
X44880920Y-33216284D01*
X44875937Y-33211301D01*
X44878039Y-33209199D01*
X44844902Y-33161931D01*
X44842047Y-33090992D01*
X44876448Y-33032410D01*
X44875937Y-33031899D01*
X44877903Y-33029933D01*
X44877998Y-33029771D01*
X44878500Y-33029336D01*
X44880920Y-33026916D01*
X44886423Y-33022523D01*
X44997592Y-32883265D01*
X45075145Y-32722838D01*
X45115229Y-32549217D01*
X45115500Y-32544517D01*
X45115499Y-31798684D01*
X45115229Y-31793983D01*
X45075145Y-31620362D01*
X44997592Y-31459935D01*
X44889029Y-31323941D01*
X44862161Y-31258224D01*
X44861500Y-31245332D01*
X44861500Y-30189206D01*
X44885177Y-30115680D01*
X44900419Y-30094469D01*
X45016997Y-29932233D01*
X45118816Y-29726217D01*
X45136679Y-29667424D01*
X45184117Y-29511291D01*
X45184118Y-29511285D01*
X45185621Y-29506339D01*
X45215616Y-29278502D01*
X45216110Y-29258305D01*
X45217208Y-29213365D01*
X45217208Y-29213361D01*
X45217290Y-29210000D01*
X45210853Y-29131709D01*
X45198884Y-28986121D01*
X45198883Y-28986115D01*
X45198460Y-28980970D01*
X45142477Y-28758090D01*
X45050843Y-28547347D01*
X45048037Y-28543009D01*
X44928830Y-28358743D01*
X44928828Y-28358740D01*
X44926020Y-28354400D01*
X44894579Y-28319846D01*
X44774837Y-28188252D01*
X44774835Y-28188251D01*
X44771359Y-28184430D01*
X44767308Y-28181231D01*
X44767304Y-28181227D01*
X44595073Y-28045208D01*
X44591015Y-28042003D01*
X44389831Y-27930943D01*
X44248156Y-27880773D01*
X44178084Y-27855959D01*
X44178080Y-27855958D01*
X44173209Y-27854233D01*
X44168116Y-27853326D01*
X44168113Y-27853325D01*
X43952056Y-27814839D01*
X43952050Y-27814838D01*
X43946967Y-27813933D01*
X43873784Y-27813039D01*
X43722351Y-27811189D01*
X43722349Y-27811189D01*
X43717181Y-27811126D01*
X43565610Y-27834319D01*
X43495131Y-27845104D01*
X43495128Y-27845105D01*
X43490022Y-27845886D01*
X43485110Y-27847491D01*
X43485112Y-27847491D01*
X43276504Y-27915675D01*
X43276502Y-27915676D01*
X43271591Y-27917281D01*
X43240538Y-27933446D01*
X43111525Y-28000606D01*
X43067753Y-28023392D01*
X43063620Y-28026495D01*
X43063617Y-28026497D01*
X42888118Y-28158265D01*
X42883983Y-28161370D01*
X42725216Y-28327510D01*
X42595716Y-28517350D01*
X42578159Y-28555174D01*
X42519196Y-28682200D01*
X42498961Y-28725792D01*
X42437548Y-28947237D01*
X42413129Y-29175739D01*
X42426357Y-29405161D01*
X42427492Y-29410198D01*
X42427493Y-29410204D01*
X42475741Y-29624297D01*
X42476878Y-29629342D01*
X42563336Y-29842261D01*
X42566033Y-29846662D01*
X42566034Y-29846664D01*
X42675619Y-30025489D01*
X42683408Y-30038200D01*
X42797738Y-30170187D01*
X42827220Y-30234773D01*
X42828500Y-30252684D01*
X42828500Y-31245332D01*
X42808498Y-31313453D01*
X42800971Y-31323941D01*
X42692408Y-31459935D01*
X42614855Y-31620362D01*
X42574771Y-31793983D01*
X42574500Y-31798683D01*
X42574501Y-32544516D01*
X42574771Y-32549217D01*
X42614855Y-32722838D01*
X42692408Y-32883265D01*
X42803577Y-33022523D01*
X42809080Y-33026916D01*
X42814063Y-33031899D01*
X42811961Y-33034001D01*
X42845098Y-33081269D01*
X42847953Y-33152208D01*
X42813552Y-33210790D01*
X42814063Y-33211301D01*
X42812097Y-33213267D01*
X42812002Y-33213429D01*
X42811500Y-33213864D01*
X42809080Y-33216284D01*
X42803577Y-33220677D01*
X42692408Y-33359935D01*
X42614855Y-33520362D01*
X42574771Y-33693983D01*
X42574500Y-33698683D01*
X42574501Y-34444516D01*
X42574771Y-34449217D01*
X42614855Y-34622838D01*
X42617921Y-34629180D01*
X42680294Y-34758205D01*
X42692408Y-34783265D01*
X42803577Y-34922523D01*
X42809080Y-34926916D01*
X42915834Y-35012137D01*
X42956593Y-35070268D01*
X42961326Y-35089486D01*
X42961611Y-35094915D01*
X42964164Y-35104441D01*
X42965124Y-35108023D01*
X42968728Y-35127470D01*
X42970145Y-35140956D01*
X42974539Y-35154478D01*
X42990818Y-35204582D01*
X42992691Y-35210906D01*
X43010006Y-35275524D01*
X43016167Y-35287616D01*
X43023730Y-35305875D01*
X43027925Y-35318785D01*
X43058057Y-35370975D01*
X43061376Y-35376724D01*
X43064523Y-35382520D01*
X43094893Y-35442125D01*
X43099050Y-35447258D01*
X43103432Y-35452670D01*
X43114625Y-35468955D01*
X43118116Y-35475002D01*
X43118119Y-35475005D01*
X43121415Y-35480715D01*
X43125827Y-35485615D01*
X43125830Y-35485619D01*
X43143419Y-35505153D01*
X43165600Y-35529786D01*
X43166175Y-35530425D01*
X43170463Y-35535446D01*
X43183063Y-35551006D01*
X43197210Y-35565153D01*
X43201751Y-35569937D01*
X43237728Y-35609893D01*
X43246530Y-35619669D01*
X43257518Y-35627652D01*
X43272546Y-35640489D01*
X43992462Y-36360405D01*
X44026488Y-36422717D01*
X44021423Y-36493532D01*
X43978876Y-36550368D01*
X43912356Y-36575179D01*
X43903367Y-36575500D01*
X42330633Y-36575500D01*
X42262512Y-36555498D01*
X42241538Y-36538595D01*
X40594275Y-34891332D01*
X40560249Y-34829020D01*
X40565314Y-34758205D01*
X40569925Y-34747410D01*
X40630145Y-34622838D01*
X40670229Y-34449217D01*
X40670500Y-34444517D01*
X40670499Y-33698684D01*
X40670229Y-33693983D01*
X40630145Y-33520362D01*
X40552592Y-33359935D01*
X40441423Y-33220677D01*
X40435920Y-33216284D01*
X40430937Y-33211301D01*
X40433039Y-33209199D01*
X40399902Y-33161931D01*
X40397047Y-33090992D01*
X40431448Y-33032410D01*
X40430937Y-33031899D01*
X40432903Y-33029933D01*
X40432998Y-33029771D01*
X40433500Y-33029336D01*
X40435920Y-33026916D01*
X40441423Y-33022523D01*
X40552592Y-32883265D01*
X40630145Y-32722838D01*
X40670229Y-32549217D01*
X40670500Y-32544517D01*
X40670499Y-31798684D01*
X40670229Y-31793983D01*
X40630145Y-31620362D01*
X40552592Y-31459935D01*
X40444029Y-31323941D01*
X40417161Y-31258224D01*
X40416500Y-31245332D01*
X40416500Y-30189206D01*
X40440177Y-30115680D01*
X40455419Y-30094469D01*
X40571997Y-29932233D01*
X40673816Y-29726217D01*
X40691679Y-29667424D01*
X40739117Y-29511291D01*
X40739118Y-29511285D01*
X40740621Y-29506339D01*
X40770616Y-29278502D01*
X40771110Y-29258305D01*
X40772208Y-29213365D01*
X40772208Y-29213361D01*
X40772290Y-29210000D01*
X40765853Y-29131709D01*
X40753884Y-28986121D01*
X40753883Y-28986115D01*
X40753460Y-28980970D01*
X40697477Y-28758090D01*
X40605843Y-28547347D01*
X40603037Y-28543009D01*
X40483830Y-28358743D01*
X40483828Y-28358740D01*
X40481020Y-28354400D01*
X40449579Y-28319846D01*
X40329837Y-28188252D01*
X40329835Y-28188251D01*
X40326359Y-28184430D01*
X40322308Y-28181231D01*
X40322304Y-28181227D01*
X40150073Y-28045208D01*
X40146015Y-28042003D01*
X39944831Y-27930943D01*
X39803156Y-27880773D01*
X39733084Y-27855959D01*
X39733080Y-27855958D01*
X39728209Y-27854233D01*
X39723116Y-27853326D01*
X39723113Y-27853325D01*
X39507056Y-27814839D01*
X39507050Y-27814838D01*
X39501967Y-27813933D01*
X39428784Y-27813039D01*
X39277351Y-27811189D01*
X39277349Y-27811189D01*
X39272181Y-27811126D01*
X39120610Y-27834319D01*
X39050131Y-27845104D01*
X39050128Y-27845105D01*
X39045022Y-27845886D01*
X39040110Y-27847491D01*
X39040112Y-27847491D01*
X38831504Y-27915675D01*
X38831502Y-27915676D01*
X38826591Y-27917281D01*
X38795538Y-27933446D01*
X38666525Y-28000606D01*
X38622753Y-28023392D01*
X38618620Y-28026495D01*
X38618617Y-28026497D01*
X38443118Y-28158265D01*
X38438983Y-28161370D01*
X38280216Y-28327510D01*
X38150716Y-28517350D01*
X38133159Y-28555174D01*
X38074196Y-28682200D01*
X38053961Y-28725792D01*
X37992548Y-28947237D01*
X37968129Y-29175739D01*
X37981357Y-29405161D01*
X37982492Y-29410198D01*
X37982493Y-29410204D01*
X38030741Y-29624297D01*
X38031878Y-29629342D01*
X38118336Y-29842261D01*
X38121033Y-29846662D01*
X38121034Y-29846664D01*
X38230619Y-30025489D01*
X38238408Y-30038200D01*
X38352738Y-30170187D01*
X38382220Y-30234773D01*
X38383500Y-30252684D01*
X38383500Y-31245332D01*
X38363498Y-31313453D01*
X38355971Y-31323941D01*
X38247408Y-31459935D01*
X38169855Y-31620362D01*
X38129771Y-31793983D01*
X38129500Y-31798683D01*
X38129501Y-32544516D01*
X38129771Y-32549217D01*
X38169855Y-32722838D01*
X38247408Y-32883265D01*
X38358577Y-33022523D01*
X38364080Y-33026916D01*
X38369063Y-33031899D01*
X38366961Y-33034001D01*
X38400098Y-33081269D01*
X38402953Y-33152208D01*
X38368552Y-33210790D01*
X38369063Y-33211301D01*
X38367097Y-33213267D01*
X38367002Y-33213429D01*
X38366500Y-33213864D01*
X38364080Y-33216284D01*
X38358577Y-33220677D01*
X38247408Y-33359935D01*
X38169855Y-33520362D01*
X38129771Y-33693983D01*
X38129500Y-33698683D01*
X38129501Y-34444516D01*
X38129771Y-34449217D01*
X38169855Y-34622838D01*
X38172921Y-34629180D01*
X38235294Y-34758205D01*
X38247408Y-34783265D01*
X38358577Y-34922523D01*
X38364080Y-34926916D01*
X38470834Y-35012137D01*
X38511593Y-35070268D01*
X38516326Y-35089486D01*
X38516611Y-35094915D01*
X38519164Y-35104441D01*
X38520124Y-35108023D01*
X38523728Y-35127470D01*
X38525145Y-35140956D01*
X38529539Y-35154478D01*
X38545818Y-35204582D01*
X38547691Y-35210906D01*
X38565006Y-35275524D01*
X38571167Y-35287616D01*
X38578730Y-35305875D01*
X38582925Y-35318785D01*
X38613057Y-35370975D01*
X38616376Y-35376724D01*
X38619523Y-35382520D01*
X38649893Y-35442125D01*
X38654050Y-35447258D01*
X38658432Y-35452670D01*
X38669625Y-35468955D01*
X38673116Y-35475002D01*
X38673119Y-35475005D01*
X38676415Y-35480715D01*
X38680827Y-35485615D01*
X38680830Y-35485619D01*
X38698419Y-35505153D01*
X38720600Y-35529786D01*
X38721175Y-35530425D01*
X38725463Y-35535446D01*
X38738063Y-35551006D01*
X38752210Y-35565153D01*
X38756751Y-35569937D01*
X38792728Y-35609893D01*
X38801530Y-35619669D01*
X38812518Y-35627652D01*
X38827546Y-35640489D01*
X40817462Y-37630405D01*
X40851488Y-37692717D01*
X40846423Y-37763532D01*
X40803876Y-37820368D01*
X40737356Y-37845179D01*
X40728367Y-37845500D01*
X40039033Y-37845500D01*
X39970912Y-37825498D01*
X39949938Y-37808595D01*
X36262405Y-34121062D01*
X36228379Y-34058750D01*
X36225500Y-34031967D01*
X36225499Y-33700477D01*
X36225499Y-33698684D01*
X36225229Y-33693983D01*
X36185145Y-33520362D01*
X36107592Y-33359935D01*
X35996423Y-33220677D01*
X35990920Y-33216284D01*
X35985937Y-33211301D01*
X35988039Y-33209199D01*
X35954902Y-33161931D01*
X35952047Y-33090992D01*
X35986448Y-33032410D01*
X35985937Y-33031899D01*
X35987903Y-33029933D01*
X35987998Y-33029771D01*
X35988500Y-33029336D01*
X35990920Y-33026916D01*
X35996423Y-33022523D01*
X36107592Y-32883265D01*
X36185145Y-32722838D01*
X36225229Y-32549217D01*
X36225500Y-32544517D01*
X36225499Y-31798684D01*
X36225229Y-31793983D01*
X36185145Y-31620362D01*
X36107592Y-31459935D01*
X35999029Y-31323941D01*
X35972161Y-31258224D01*
X35971500Y-31245332D01*
X35971500Y-30189206D01*
X35995177Y-30115680D01*
X36010419Y-30094469D01*
X36126997Y-29932233D01*
X36228816Y-29726217D01*
X36246679Y-29667424D01*
X36294117Y-29511291D01*
X36294118Y-29511285D01*
X36295621Y-29506339D01*
X36325616Y-29278502D01*
X36326110Y-29258305D01*
X36327208Y-29213365D01*
X36327208Y-29213361D01*
X36327290Y-29210000D01*
X36320853Y-29131709D01*
X36308884Y-28986121D01*
X36308883Y-28986115D01*
X36308460Y-28980970D01*
X36252477Y-28758090D01*
X36160843Y-28547347D01*
X36158037Y-28543009D01*
X36038830Y-28358743D01*
X36038828Y-28358740D01*
X36036020Y-28354400D01*
X36004579Y-28319846D01*
X35884837Y-28188252D01*
X35884835Y-28188251D01*
X35881359Y-28184430D01*
X35877308Y-28181231D01*
X35877304Y-28181227D01*
X35705073Y-28045208D01*
X35701015Y-28042003D01*
X35499831Y-27930943D01*
X35358156Y-27880773D01*
X35288084Y-27855959D01*
X35288080Y-27855958D01*
X35283209Y-27854233D01*
X35278116Y-27853326D01*
X35278113Y-27853325D01*
X35062056Y-27814839D01*
X35062050Y-27814838D01*
X35056967Y-27813933D01*
X34983784Y-27813039D01*
X34832351Y-27811189D01*
X34832349Y-27811189D01*
X34827181Y-27811126D01*
X34675610Y-27834319D01*
X34605131Y-27845104D01*
X34605128Y-27845105D01*
X34600022Y-27845886D01*
X34595110Y-27847491D01*
X34595112Y-27847491D01*
X34386504Y-27915675D01*
X34386502Y-27915676D01*
X34381591Y-27917281D01*
X34350538Y-27933446D01*
X34221525Y-28000606D01*
X34177753Y-28023392D01*
X34173620Y-28026495D01*
X34173617Y-28026497D01*
X33998118Y-28158265D01*
X33993983Y-28161370D01*
X33835216Y-28327510D01*
X33705716Y-28517350D01*
X33688159Y-28555174D01*
X33629196Y-28682200D01*
X33608961Y-28725792D01*
X33547548Y-28947237D01*
X33523129Y-29175739D01*
X33536357Y-29405161D01*
X33537492Y-29410198D01*
X33537493Y-29410204D01*
X33585741Y-29624297D01*
X33586878Y-29629342D01*
X33673336Y-29842261D01*
X33676033Y-29846662D01*
X33676034Y-29846664D01*
X33785619Y-30025489D01*
X33793408Y-30038200D01*
X33907738Y-30170187D01*
X33937220Y-30234773D01*
X33938500Y-30252684D01*
X33938500Y-31245332D01*
X33918498Y-31313453D01*
X33910971Y-31323941D01*
X33802408Y-31459935D01*
X33724855Y-31620362D01*
X33684771Y-31793983D01*
X33684500Y-31798683D01*
X33684501Y-32544516D01*
X33684771Y-32549217D01*
X33724855Y-32722838D01*
X33802408Y-32883265D01*
X33913577Y-33022523D01*
X33919080Y-33026916D01*
X33924063Y-33031899D01*
X33921961Y-33034001D01*
X33955098Y-33081269D01*
X33957953Y-33152208D01*
X33923552Y-33210790D01*
X33924063Y-33211301D01*
X33922097Y-33213267D01*
X33922002Y-33213429D01*
X33921500Y-33213864D01*
X33919080Y-33216284D01*
X33913577Y-33220677D01*
X33802408Y-33359935D01*
X33724855Y-33520362D01*
X33684771Y-33693983D01*
X33684500Y-33698683D01*
X33684501Y-34444516D01*
X33684771Y-34449217D01*
X33724855Y-34622838D01*
X33727921Y-34629180D01*
X33790294Y-34758205D01*
X33802408Y-34783265D01*
X33913577Y-34922523D01*
X33919080Y-34926916D01*
X34018109Y-35005970D01*
X34052835Y-35033692D01*
X34059178Y-35036758D01*
X34059179Y-35036759D01*
X34139448Y-35075562D01*
X34213262Y-35111245D01*
X34220123Y-35112829D01*
X34361471Y-35145462D01*
X34386883Y-35151329D01*
X34391583Y-35151600D01*
X34724867Y-35151600D01*
X34792988Y-35171602D01*
X34813962Y-35188505D01*
X38932911Y-39307454D01*
X38945748Y-39322482D01*
X38953731Y-39333470D01*
X38958633Y-39337883D01*
X38958634Y-39337885D01*
X39003463Y-39378249D01*
X39008247Y-39382790D01*
X39022394Y-39396937D01*
X39024959Y-39399014D01*
X39037954Y-39409537D01*
X39042975Y-39413825D01*
X39087781Y-39454170D01*
X39087785Y-39454173D01*
X39092685Y-39458585D01*
X39098395Y-39461881D01*
X39098398Y-39461884D01*
X39104445Y-39465375D01*
X39120730Y-39476568D01*
X39131275Y-39485107D01*
X39185522Y-39512747D01*
X39190880Y-39515477D01*
X39196676Y-39518624D01*
X39254615Y-39552075D01*
X39267525Y-39556270D01*
X39285784Y-39563833D01*
X39297876Y-39569994D01*
X39347488Y-39583288D01*
X39362494Y-39587309D01*
X39368819Y-39589182D01*
X39432444Y-39609855D01*
X39439011Y-39610545D01*
X39439015Y-39610546D01*
X39444688Y-39611142D01*
X39445930Y-39611272D01*
X39465372Y-39614875D01*
X39478485Y-39618389D01*
X39485082Y-39618735D01*
X39485084Y-39618735D01*
X39545287Y-39621890D01*
X39551861Y-39622407D01*
X39568505Y-39624156D01*
X39568509Y-39624156D01*
X39571780Y-39624500D01*
X39591807Y-39624500D01*
X39598401Y-39624673D01*
X39658618Y-39627829D01*
X39658622Y-39627829D01*
X39665210Y-39628174D01*
X39671725Y-39627142D01*
X39671727Y-39627142D01*
X39678614Y-39626051D01*
X39698325Y-39624500D01*
X44460893Y-39624500D01*
X44529014Y-39644502D01*
X44575507Y-39698158D01*
X44585611Y-39768432D01*
X44556117Y-39833012D01*
X44549988Y-39839595D01*
X44548776Y-39840807D01*
X44543836Y-39844836D01*
X44539807Y-39849776D01*
X44461634Y-39945626D01*
X44417394Y-39999869D01*
X44324709Y-40177160D01*
X44291761Y-40292066D01*
X44291140Y-40294230D01*
X44253136Y-40354199D01*
X44188744Y-40384101D01*
X44170021Y-40385500D01*
X38104033Y-40385500D01*
X38035912Y-40365498D01*
X38014938Y-40348595D01*
X31787405Y-34121062D01*
X31753379Y-34058750D01*
X31750500Y-34031967D01*
X31750499Y-33700477D01*
X31750499Y-33698684D01*
X31750229Y-33693983D01*
X31710145Y-33520362D01*
X31632592Y-33359935D01*
X31521423Y-33220677D01*
X31515920Y-33216284D01*
X31510937Y-33211301D01*
X31513039Y-33209199D01*
X31479902Y-33161931D01*
X31477047Y-33090992D01*
X31511448Y-33032410D01*
X31510937Y-33031899D01*
X31512903Y-33029933D01*
X31512998Y-33029771D01*
X31513500Y-33029336D01*
X31515920Y-33026916D01*
X31521423Y-33022523D01*
X31632592Y-32883265D01*
X31710145Y-32722838D01*
X31750229Y-32549217D01*
X31750500Y-32544517D01*
X31750499Y-31798684D01*
X31750229Y-31793983D01*
X31710145Y-31620362D01*
X31632592Y-31459935D01*
X31524029Y-31323941D01*
X31497161Y-31258224D01*
X31496500Y-31245332D01*
X31496500Y-30222391D01*
X31516502Y-30154270D01*
X31533560Y-30133140D01*
X31544237Y-30122500D01*
X31547898Y-30118852D01*
X31681997Y-29932233D01*
X31783816Y-29726217D01*
X31801679Y-29667424D01*
X31849117Y-29511291D01*
X31849118Y-29511285D01*
X31850621Y-29506339D01*
X31880616Y-29278502D01*
X31881110Y-29258305D01*
X31882208Y-29213365D01*
X31882208Y-29213361D01*
X31882290Y-29210000D01*
X31875853Y-29131709D01*
X31863884Y-28986121D01*
X31863883Y-28986115D01*
X31863460Y-28980970D01*
X31807477Y-28758090D01*
X31715843Y-28547347D01*
X31713037Y-28543009D01*
X31593830Y-28358743D01*
X31593828Y-28358740D01*
X31591020Y-28354400D01*
X31559579Y-28319846D01*
X31439837Y-28188252D01*
X31439835Y-28188251D01*
X31436359Y-28184430D01*
X31432308Y-28181231D01*
X31432304Y-28181227D01*
X31260073Y-28045208D01*
X31256015Y-28042003D01*
X31054831Y-27930943D01*
X30913156Y-27880773D01*
X30843084Y-27855959D01*
X30843080Y-27855958D01*
X30838209Y-27854233D01*
X30833116Y-27853326D01*
X30833113Y-27853325D01*
X30617056Y-27814839D01*
X30617050Y-27814838D01*
X30611967Y-27813933D01*
X30538784Y-27813039D01*
X30387351Y-27811189D01*
X30387349Y-27811189D01*
X30382181Y-27811126D01*
X30230610Y-27834319D01*
X30160131Y-27845104D01*
X30160128Y-27845105D01*
X30155022Y-27845886D01*
X30150110Y-27847491D01*
X30150112Y-27847491D01*
X29941504Y-27915675D01*
X29941502Y-27915676D01*
X29936591Y-27917281D01*
X29905538Y-27933446D01*
X29776525Y-28000606D01*
X29732753Y-28023392D01*
X29728620Y-28026495D01*
X29728617Y-28026497D01*
X29553118Y-28158265D01*
X29548983Y-28161370D01*
X29390216Y-28327510D01*
X29260716Y-28517350D01*
X29243159Y-28555174D01*
X29184196Y-28682200D01*
X29163961Y-28725792D01*
X29102548Y-28947237D01*
X29078129Y-29175739D01*
X29091357Y-29405161D01*
X29092492Y-29410198D01*
X29092493Y-29410204D01*
X29140741Y-29624297D01*
X29141878Y-29629342D01*
X29228336Y-29842261D01*
X29231033Y-29846662D01*
X29231034Y-29846664D01*
X29340619Y-30025489D01*
X29348408Y-30038200D01*
X29393390Y-30090129D01*
X29432738Y-30135554D01*
X29462220Y-30200140D01*
X29463500Y-30218051D01*
X29463500Y-31245332D01*
X29443498Y-31313453D01*
X29435971Y-31323941D01*
X29327408Y-31459935D01*
X29249855Y-31620362D01*
X29209771Y-31793983D01*
X29209500Y-31798683D01*
X29209501Y-32544516D01*
X29209771Y-32549217D01*
X29249855Y-32722838D01*
X29327408Y-32883265D01*
X29438577Y-33022523D01*
X29444080Y-33026916D01*
X29449063Y-33031899D01*
X29446961Y-33034001D01*
X29480098Y-33081269D01*
X29482953Y-33152208D01*
X29448552Y-33210790D01*
X29449063Y-33211301D01*
X29447097Y-33213267D01*
X29447002Y-33213429D01*
X29446500Y-33213864D01*
X29444080Y-33216284D01*
X29438577Y-33220677D01*
X29327408Y-33359935D01*
X29249855Y-33520362D01*
X29209771Y-33693983D01*
X29209500Y-33698683D01*
X29209501Y-34444516D01*
X29209771Y-34449217D01*
X29249855Y-34622838D01*
X29252921Y-34629180D01*
X29315294Y-34758205D01*
X29327408Y-34783265D01*
X29438577Y-34922523D01*
X29444080Y-34926916D01*
X29543109Y-35005970D01*
X29577835Y-35033692D01*
X29584178Y-35036758D01*
X29584179Y-35036759D01*
X29664448Y-35075562D01*
X29738262Y-35111245D01*
X29745123Y-35112829D01*
X29886471Y-35145462D01*
X29911883Y-35151329D01*
X29916583Y-35151600D01*
X30249867Y-35151600D01*
X30317988Y-35171602D01*
X30338962Y-35188505D01*
X36997911Y-41847454D01*
X37010748Y-41862482D01*
X37018731Y-41873470D01*
X37023633Y-41877883D01*
X37023634Y-41877885D01*
X37068463Y-41918249D01*
X37073247Y-41922790D01*
X37087394Y-41936937D01*
X37089959Y-41939014D01*
X37102954Y-41949537D01*
X37107975Y-41953825D01*
X37152781Y-41994170D01*
X37152785Y-41994173D01*
X37157685Y-41998585D01*
X37163395Y-42001881D01*
X37163398Y-42001884D01*
X37169445Y-42005375D01*
X37185730Y-42016568D01*
X37196275Y-42025107D01*
X37231485Y-42043047D01*
X37255880Y-42055477D01*
X37261676Y-42058624D01*
X37319615Y-42092075D01*
X37332525Y-42096270D01*
X37350784Y-42103833D01*
X37362876Y-42109994D01*
X37420041Y-42125312D01*
X37427494Y-42127309D01*
X37433819Y-42129182D01*
X37497444Y-42149855D01*
X37504011Y-42150545D01*
X37504015Y-42150546D01*
X37509688Y-42151142D01*
X37510930Y-42151272D01*
X37530372Y-42154875D01*
X37543485Y-42158389D01*
X37550082Y-42158735D01*
X37550084Y-42158735D01*
X37610287Y-42161890D01*
X37616861Y-42162407D01*
X37633505Y-42164156D01*
X37633509Y-42164156D01*
X37636780Y-42164500D01*
X37656807Y-42164500D01*
X37663401Y-42164673D01*
X37723618Y-42167829D01*
X37723622Y-42167829D01*
X37730210Y-42168174D01*
X37736725Y-42167142D01*
X37736727Y-42167142D01*
X37743614Y-42166051D01*
X37763325Y-42164500D01*
X44170021Y-42164500D01*
X44238142Y-42184502D01*
X44284635Y-42238158D01*
X44291139Y-42255768D01*
X44324709Y-42372840D01*
X44327667Y-42378498D01*
X44384455Y-42487125D01*
X44398289Y-42556761D01*
X44372279Y-42622822D01*
X44314682Y-42664333D01*
X44272793Y-42671500D01*
X29426125Y-42671500D01*
X29358004Y-42651498D01*
X29311511Y-42597842D01*
X29301407Y-42527568D01*
X29330901Y-42462988D01*
X29343047Y-42450768D01*
X29557180Y-42262978D01*
X29560269Y-42260269D01*
X29580281Y-42237450D01*
X29755177Y-42038020D01*
X29755181Y-42038014D01*
X29757895Y-42034920D01*
X29924416Y-41785703D01*
X30056983Y-41516883D01*
X30077644Y-41456019D01*
X30152000Y-41236973D01*
X30152001Y-41236969D01*
X30153328Y-41233060D01*
X30154134Y-41229010D01*
X30211000Y-40943128D01*
X30211001Y-40943122D01*
X30211803Y-40939089D01*
X30216958Y-40860446D01*
X30231136Y-40644119D01*
X30231406Y-40640000D01*
X30225281Y-40546554D01*
X30212073Y-40345023D01*
X30212072Y-40345016D01*
X30211803Y-40340911D01*
X30202518Y-40294230D01*
X30154134Y-40050990D01*
X30154132Y-40050984D01*
X30153328Y-40046940D01*
X30135672Y-39994925D01*
X30058309Y-39767023D01*
X30058308Y-39767022D01*
X30056983Y-39763117D01*
X29985352Y-39617864D01*
X29926243Y-39498001D01*
X29926240Y-39497996D01*
X29924416Y-39494297D01*
X29757895Y-39245080D01*
X29755181Y-39241986D01*
X29755177Y-39241980D01*
X29562978Y-39022820D01*
X29560269Y-39019731D01*
X29479736Y-38949105D01*
X29338020Y-38824823D01*
X29338014Y-38824819D01*
X29334920Y-38822105D01*
X29085703Y-38655584D01*
X29082004Y-38653760D01*
X29081999Y-38653757D01*
X28877411Y-38552866D01*
X28816883Y-38523017D01*
X28677975Y-38475864D01*
X28536973Y-38428000D01*
X28536969Y-38427999D01*
X28533060Y-38426672D01*
X28529016Y-38425868D01*
X28529010Y-38425866D01*
X28243128Y-38369000D01*
X28243122Y-38368999D01*
X28239089Y-38368197D01*
X28234984Y-38367928D01*
X28234977Y-38367927D01*
X27944119Y-38348864D01*
X27940000Y-38348594D01*
X27935881Y-38348864D01*
X27645023Y-38367927D01*
X27645016Y-38367928D01*
X27640911Y-38368197D01*
X27636878Y-38368999D01*
X27636872Y-38369000D01*
X27350990Y-38425866D01*
X27350984Y-38425868D01*
X27346940Y-38426672D01*
X27343031Y-38427999D01*
X27343027Y-38428000D01*
X27202025Y-38475864D01*
X27063117Y-38523017D01*
X27002589Y-38552866D01*
X26798001Y-38653757D01*
X26797996Y-38653760D01*
X26794297Y-38655584D01*
X26545080Y-38822105D01*
X26541986Y-38824819D01*
X26541980Y-38824823D01*
X26400264Y-38949105D01*
X26319731Y-39019731D01*
X26317022Y-39022820D01*
X26129232Y-39236953D01*
X26069278Y-39274980D01*
X25998283Y-39274558D01*
X25938786Y-39235819D01*
X25909678Y-39171064D01*
X25908500Y-39153875D01*
X25908500Y-26759125D01*
X25928502Y-26691004D01*
X25982158Y-26644511D01*
X26052432Y-26634407D01*
X26117012Y-26663901D01*
X26129232Y-26676047D01*
X26135364Y-26683039D01*
X26319731Y-26893269D01*
X26322820Y-26895978D01*
X26541980Y-27088177D01*
X26541986Y-27088181D01*
X26545080Y-27090895D01*
X26794297Y-27257416D01*
X26797996Y-27259240D01*
X26798001Y-27259243D01*
X26935905Y-27327249D01*
X27063117Y-27389983D01*
X27067022Y-27391308D01*
X27067023Y-27391309D01*
X27343027Y-27485000D01*
X27343031Y-27485001D01*
X27346940Y-27486328D01*
X27350984Y-27487132D01*
X27350990Y-27487134D01*
X27636872Y-27544000D01*
X27636878Y-27544001D01*
X27640911Y-27544803D01*
X27645016Y-27545072D01*
X27645023Y-27545073D01*
X27935881Y-27564136D01*
X27940000Y-27564406D01*
X27944119Y-27564136D01*
X28234977Y-27545073D01*
X28234984Y-27545072D01*
X28239089Y-27544803D01*
X28243122Y-27544001D01*
X28243128Y-27544000D01*
X28529010Y-27487134D01*
X28529016Y-27487132D01*
X28533060Y-27486328D01*
X28536969Y-27485001D01*
X28536973Y-27485000D01*
X28812977Y-27391309D01*
X28812978Y-27391308D01*
X28816883Y-27389983D01*
X28944095Y-27327249D01*
X29081999Y-27259243D01*
X29082004Y-27259240D01*
X29085703Y-27257416D01*
X29334920Y-27090895D01*
X29338014Y-27088181D01*
X29338020Y-27088177D01*
X29557180Y-26895978D01*
X29560269Y-26893269D01*
X29617583Y-26827915D01*
X29755177Y-26671020D01*
X29755181Y-26671014D01*
X29757895Y-26667920D01*
X29924416Y-26418703D01*
X30056983Y-26149883D01*
X30075033Y-26096710D01*
X30152000Y-25869973D01*
X30152001Y-25869969D01*
X30153328Y-25866060D01*
X30154134Y-25862010D01*
X30211000Y-25576128D01*
X30211001Y-25576122D01*
X30211803Y-25572089D01*
X30215144Y-25521122D01*
X30231136Y-25277119D01*
X30231406Y-25273000D01*
X30223422Y-25151187D01*
X30212073Y-24978023D01*
X30212072Y-24978016D01*
X30211803Y-24973911D01*
X30210040Y-24965044D01*
X30154134Y-24683990D01*
X30154132Y-24683984D01*
X30153328Y-24679940D01*
X30096456Y-24512399D01*
X30058309Y-24400023D01*
X30058308Y-24400022D01*
X30056983Y-24396117D01*
X29924416Y-24127297D01*
X29757895Y-23878080D01*
X29755181Y-23874986D01*
X29755177Y-23874980D01*
X29562978Y-23655820D01*
X29560269Y-23652731D01*
X29557180Y-23650022D01*
X29557173Y-23650015D01*
X29487863Y-23589232D01*
X29449835Y-23529279D01*
X29450257Y-23458283D01*
X29488995Y-23398786D01*
X29553750Y-23369678D01*
X29570940Y-23368500D01*
X99969060Y-23368500D01*
X100037181Y-23388502D01*
G37*
%TD.AperFunction*%
%TD*%
M02*
