M48
; DRILL file {KiCad (6.0.4)} date Mon Sep 19 09:41:38 2022
; FORMAT={-:-/ absolute / inch / decimal}
; #@! TF.CreationDate,2022-09-19T09:41:38-03:00
; #@! TF.GenerationSoftware,Kicad,Pcbnew,(6.0.4)
; #@! TF.FileFunction,Plated,1,2,PTH
FMAT,2
INCH
; #@! TA.AperFunction,Plated,PTH,ViaDrill
T1C0.0350
; #@! TA.AperFunction,Plated,PTH,ComponentDrill
T2C0.0394
%
G90
G05
T1
X1.25Y-1.2161
X1.375Y-1.2161
X1.55Y-1.2161
X1.725Y-1.2161
X1.9Y-1.2161
X2.075Y-1.2161
X2.25Y-1.2161
X2.425Y-1.2161
X2.6Y-1.2161
X2.775Y-1.2161
X2.95Y-1.2161
X3.125Y-1.2161
T2
X1.6248Y-1.625
X1.7248Y-1.625
X1.8248Y-1.625
X1.9248Y-1.625
X2.0248Y-1.625
X2.0496Y-1.075
X2.1248Y-1.625
X2.1496Y-1.075
X2.2248Y-1.625
X2.2496Y-1.075
X2.3248Y-1.625
X2.3496Y-1.075
X2.4248Y-1.625
X2.5248Y-1.625
X2.6248Y-1.625
X2.7248Y-1.625
T0
M30
