%TF.GenerationSoftware,KiCad,Pcbnew,(6.0.4)*%
%TF.CreationDate,2022-09-19T09:41:04-03:00*%
%TF.ProjectId,Placa de sensores 12,506c6163-6120-4646-9520-73656e736f72,rev?*%
%TF.SameCoordinates,Original*%
%TF.FileFunction,Copper,L2,Bot*%
%TF.FilePolarity,Positive*%
%FSLAX46Y46*%
G04 Gerber Fmt 4.6, Leading zero omitted, Abs format (unit mm)*
G04 Created by KiCad (PCBNEW (6.0.4)) date 2022-09-19 09:41:04*
%MOMM*%
%LPD*%
G01*
G04 APERTURE LIST*
G04 Aperture macros list*
%AMRoundRect*
0 Rectangle with rounded corners*
0 $1 Rounding radius*
0 $2 $3 $4 $5 $6 $7 $8 $9 X,Y pos of 4 corners*
0 Add a 4 corners polygon primitive as box body*
4,1,4,$2,$3,$4,$5,$6,$7,$8,$9,$2,$3,0*
0 Add four circle primitives for the rounded corners*
1,1,$1+$1,$2,$3*
1,1,$1+$1,$4,$5*
1,1,$1+$1,$6,$7*
1,1,$1+$1,$8,$9*
0 Add four rect primitives between the rounded corners*
20,1,$1+$1,$2,$3,$4,$5,0*
20,1,$1+$1,$4,$5,$6,$7,0*
20,1,$1+$1,$6,$7,$8,$9,0*
20,1,$1+$1,$8,$9,$2,$3,0*%
G04 Aperture macros list end*
%TA.AperFunction,ComponentPad*%
%ADD10RoundRect,0.476250X0.476250X-0.666750X0.476250X0.666750X-0.476250X0.666750X-0.476250X-0.666750X0*%
%TD*%
%TA.AperFunction,ComponentPad*%
%ADD11O,1.905000X2.286000*%
%TD*%
%TA.AperFunction,ComponentPad*%
%ADD12RoundRect,0.476250X-0.476250X0.666750X-0.476250X-0.666750X0.476250X-0.666750X0.476250X0.666750X0*%
%TD*%
%TA.AperFunction,ViaPad*%
%ADD13C,1.778000*%
%TD*%
%TA.AperFunction,Conductor*%
%ADD14C,1.016000*%
%TD*%
%TA.AperFunction,Conductor*%
%ADD15C,1.778000*%
%TD*%
%TA.AperFunction,Conductor*%
%ADD16C,3.048000*%
%TD*%
G04 APERTURE END LIST*
D10*
%TO.P,J1,1,Pin_1*%
%TO.N,/s1*%
X41269996Y-41275000D03*
D11*
%TO.P,J1,2,Pin_2*%
%TO.N,/s2*%
X43809996Y-41275000D03*
%TO.P,J1,3,Pin_3*%
%TO.N,/s3*%
X46349996Y-41275000D03*
%TO.P,J1,4,Pin_4*%
%TO.N,/s4*%
X48889996Y-41275000D03*
%TO.P,J1,5,Pin_5*%
%TO.N,/s5*%
X51429996Y-41275000D03*
%TO.P,J1,6,Pin_6*%
%TO.N,/s6*%
X53969996Y-41275000D03*
%TO.P,J1,7,Pin_7*%
%TO.N,/s7*%
X56509996Y-41275000D03*
%TO.P,J1,8,Pin_8*%
%TO.N,/s8*%
X59049996Y-41275000D03*
%TO.P,J1,9,Pin_9*%
%TO.N,/s9*%
X61589996Y-41275000D03*
%TO.P,J1,10,Pin_10*%
%TO.N,/s10*%
X64129996Y-41275000D03*
%TO.P,J1,11,Pin_11*%
%TO.N,/s11*%
X66669996Y-41275000D03*
%TO.P,J1,12,Pin_12*%
%TO.N,/s12*%
X69209996Y-41275000D03*
%TD*%
D12*
%TO.P,J2,1,Pin_1*%
%TO.N,GND*%
X59679992Y-27305000D03*
D11*
%TO.P,J2,2,Pin_2*%
%TO.N,+5V*%
X57139992Y-27305000D03*
%TO.P,J2,3,Pin_3*%
X54599992Y-27305000D03*
%TO.P,J2,4,Pin_4*%
%TO.N,GND*%
X52059992Y-27305000D03*
%TD*%
D13*
%TO.N,+5V*%
X57150000Y-30889200D03*
X61595000Y-30889200D03*
X34925000Y-30889200D03*
X39370000Y-30889200D03*
X70485000Y-30889200D03*
X66040000Y-30889200D03*
X52705000Y-30889200D03*
X74930000Y-30889200D03*
X43815000Y-30889200D03*
X48260000Y-30889200D03*
X79375000Y-30889200D03*
X31750000Y-30889200D03*
%TD*%
D14*
%TO.N,+5V*%
X61595000Y-30889200D02*
X59464200Y-30889200D01*
X59464200Y-30889200D02*
X57140000Y-28565000D01*
D15*
X57140000Y-27305000D02*
X57140000Y-28565000D01*
X54600000Y-28994200D02*
X52705000Y-30889200D01*
X54600000Y-27305000D02*
X54600000Y-28339200D01*
X54600000Y-28339200D02*
X57150000Y-30889200D01*
D14*
X61605000Y-30879200D02*
X61595000Y-30889200D01*
D15*
X57140000Y-27305000D02*
X57140000Y-27950000D01*
X54600000Y-27305000D02*
X54600000Y-28994200D01*
X57140000Y-28565000D02*
X57140000Y-30879200D01*
X57140000Y-27950000D02*
X54200806Y-30889194D01*
X57140000Y-30879200D02*
X57150000Y-30889200D01*
D16*
X79375000Y-30889194D02*
X31750000Y-30889194D01*
%TD*%
%TA.AperFunction,Conductor*%
%TO.N,GND*%
G36*
X53504957Y-25928502D02*
G01*
X53551450Y-25982158D01*
X53561554Y-26052432D01*
X53527929Y-26121551D01*
X53460691Y-26191912D01*
X53441515Y-26220023D01*
X53328589Y-26385566D01*
X53325306Y-26390378D01*
X53323132Y-26395061D01*
X53323130Y-26395065D01*
X53226334Y-26603595D01*
X53224155Y-26608290D01*
X53159952Y-26839798D01*
X53138992Y-27035928D01*
X53138992Y-27556402D01*
X53139204Y-27558975D01*
X53139204Y-27558986D01*
X53140719Y-27577407D01*
X53153670Y-27734937D01*
X53154931Y-27739956D01*
X53198704Y-27914223D01*
X53202500Y-27944919D01*
X53202500Y-28284901D01*
X53202185Y-28293800D01*
X53197584Y-28358783D01*
X53198110Y-28364100D01*
X53198133Y-28365743D01*
X53179084Y-28434136D01*
X53161240Y-28456597D01*
X52798048Y-28819789D01*
X52735736Y-28853815D01*
X52708953Y-28856694D01*
X31679024Y-28856694D01*
X31676839Y-28856847D01*
X31676833Y-28856847D01*
X31470825Y-28871252D01*
X31470820Y-28871253D01*
X31466440Y-28871559D01*
X31188399Y-28930659D01*
X31184268Y-28932163D01*
X31184263Y-28932164D01*
X31070988Y-28973393D01*
X30921289Y-29027879D01*
X30844896Y-29068498D01*
X30674201Y-29159257D01*
X30674195Y-29159261D01*
X30670309Y-29161327D01*
X30666749Y-29163913D01*
X30666745Y-29163916D01*
X30556960Y-29243680D01*
X30440344Y-29328407D01*
X30437180Y-29331463D01*
X30437177Y-29331465D01*
X30239032Y-29522811D01*
X30239029Y-29522815D01*
X30235870Y-29525865D01*
X30060867Y-29749859D01*
X29918740Y-29996029D01*
X29917090Y-30000113D01*
X29917087Y-30000119D01*
X29831562Y-30211803D01*
X29812258Y-30259583D01*
X29743491Y-30535392D01*
X29713778Y-30818088D01*
X29713931Y-30822476D01*
X29713931Y-30822482D01*
X29718897Y-30964669D01*
X29723698Y-31102167D01*
X29773058Y-31382101D01*
X29774413Y-31386272D01*
X29774415Y-31386279D01*
X29816088Y-31514534D01*
X29860897Y-31652441D01*
X29985505Y-31907925D01*
X29987960Y-31911564D01*
X29987963Y-31911570D01*
X30141997Y-32139935D01*
X30142002Y-32139942D01*
X30144457Y-32143581D01*
X30147401Y-32146850D01*
X30147402Y-32146852D01*
X30331711Y-32351548D01*
X30334659Y-32354822D01*
X30552409Y-32537536D01*
X30793469Y-32688167D01*
X31053147Y-32803783D01*
X31326388Y-32882134D01*
X31330738Y-32882745D01*
X31330741Y-32882746D01*
X31435217Y-32897429D01*
X31607874Y-32921694D01*
X79445976Y-32921694D01*
X79448161Y-32921541D01*
X79448167Y-32921541D01*
X79654175Y-32907136D01*
X79654180Y-32907135D01*
X79658560Y-32906829D01*
X79936601Y-32847729D01*
X79940732Y-32846225D01*
X79940737Y-32846224D01*
X80087988Y-32792629D01*
X80203711Y-32750509D01*
X80325336Y-32685840D01*
X80450799Y-32619131D01*
X80450805Y-32619127D01*
X80454691Y-32617061D01*
X80458251Y-32614475D01*
X80458255Y-32614472D01*
X80681093Y-32452570D01*
X80681096Y-32452568D01*
X80684656Y-32449981D01*
X80780267Y-32357651D01*
X80885968Y-32255577D01*
X80885971Y-32255573D01*
X80889130Y-32252523D01*
X81064133Y-32028529D01*
X81206260Y-31782359D01*
X81207910Y-31778275D01*
X81207913Y-31778269D01*
X81311093Y-31522887D01*
X81311094Y-31522884D01*
X81312742Y-31518805D01*
X81381509Y-31242996D01*
X81411222Y-30960300D01*
X81411069Y-30955906D01*
X81401456Y-30680618D01*
X81401455Y-30680611D01*
X81401302Y-30676221D01*
X81351942Y-30396287D01*
X81350587Y-30392116D01*
X81350585Y-30392109D01*
X81278290Y-30169610D01*
X81264103Y-30125947D01*
X81229578Y-30055159D01*
X81206385Y-30007607D01*
X81139495Y-29870463D01*
X81137040Y-29866824D01*
X81137037Y-29866818D01*
X80983003Y-29638453D01*
X80982998Y-29638446D01*
X80980543Y-29634807D01*
X80910648Y-29557180D01*
X80793289Y-29426840D01*
X80793288Y-29426839D01*
X80790341Y-29423566D01*
X80572591Y-29240852D01*
X80331531Y-29090221D01*
X80147857Y-29008444D01*
X80075867Y-28976392D01*
X80075865Y-28976391D01*
X80071853Y-28974605D01*
X79798612Y-28896254D01*
X79794262Y-28895643D01*
X79794259Y-28895642D01*
X79689783Y-28880959D01*
X79517126Y-28856694D01*
X58921432Y-28856694D01*
X58853311Y-28836692D01*
X58832337Y-28819789D01*
X58574405Y-28561857D01*
X58540379Y-28499545D01*
X58537500Y-28472762D01*
X58537500Y-27969279D01*
X58537535Y-27966309D01*
X58538271Y-27935091D01*
X58542817Y-27904393D01*
X58580032Y-27770202D01*
X58600992Y-27574072D01*
X58600992Y-27053598D01*
X58599816Y-27039285D01*
X58586738Y-26880224D01*
X58586314Y-26875063D01*
X58527786Y-26642056D01*
X58431989Y-26421737D01*
X58321418Y-26250821D01*
X58304302Y-26224363D01*
X58304300Y-26224360D01*
X58301494Y-26220023D01*
X58298012Y-26216196D01*
X58209844Y-26119300D01*
X58178792Y-26055454D01*
X58187187Y-25984955D01*
X58232363Y-25930187D01*
X58303037Y-25908500D01*
X82333875Y-25908500D01*
X82401996Y-25928502D01*
X82448489Y-25982158D01*
X82458593Y-26052432D01*
X82429099Y-26117012D01*
X82416953Y-26129232D01*
X82199731Y-26319731D01*
X82197022Y-26322820D01*
X82004823Y-26541980D01*
X82004819Y-26541986D01*
X82002105Y-26545080D01*
X81835584Y-26794297D01*
X81833760Y-26797996D01*
X81833757Y-26798001D01*
X81788500Y-26889774D01*
X81703017Y-27063117D01*
X81606672Y-27346940D01*
X81605868Y-27350984D01*
X81605866Y-27350990D01*
X81560829Y-27577407D01*
X81548197Y-27640911D01*
X81547928Y-27645016D01*
X81547927Y-27645023D01*
X81539723Y-27770202D01*
X81528594Y-27940000D01*
X81528864Y-27944119D01*
X81543043Y-28160446D01*
X81548197Y-28239089D01*
X81548999Y-28243122D01*
X81549000Y-28243128D01*
X81600005Y-28499545D01*
X81606672Y-28533060D01*
X81703017Y-28816883D01*
X81835584Y-29085703D01*
X82002105Y-29334920D01*
X82004819Y-29338014D01*
X82004823Y-29338020D01*
X82166881Y-29522811D01*
X82199731Y-29560269D01*
X82202820Y-29562978D01*
X82421980Y-29755177D01*
X82421986Y-29755181D01*
X82425080Y-29757895D01*
X82674297Y-29924416D01*
X82677996Y-29926240D01*
X82678001Y-29926243D01*
X82811768Y-29992209D01*
X82943117Y-30056983D01*
X82947022Y-30058308D01*
X82947023Y-30058309D01*
X83223027Y-30152000D01*
X83223031Y-30152001D01*
X83226940Y-30153328D01*
X83230984Y-30154132D01*
X83230990Y-30154134D01*
X83516872Y-30211000D01*
X83516878Y-30211001D01*
X83520911Y-30211803D01*
X83525016Y-30212072D01*
X83525023Y-30212073D01*
X83815881Y-30231136D01*
X83820000Y-30231406D01*
X83824119Y-30231136D01*
X84114977Y-30212073D01*
X84114984Y-30212072D01*
X84119089Y-30211803D01*
X84123122Y-30211001D01*
X84123128Y-30211000D01*
X84409010Y-30154134D01*
X84409016Y-30154132D01*
X84413060Y-30153328D01*
X84416969Y-30152001D01*
X84416973Y-30152000D01*
X84692977Y-30058309D01*
X84692978Y-30058308D01*
X84696883Y-30056983D01*
X84828232Y-29992209D01*
X84961999Y-29926243D01*
X84962004Y-29926240D01*
X84965703Y-29924416D01*
X85214920Y-29757895D01*
X85218014Y-29755181D01*
X85218020Y-29755177D01*
X85437180Y-29562978D01*
X85440269Y-29560269D01*
X85557910Y-29426125D01*
X85630768Y-29343047D01*
X85690722Y-29305020D01*
X85761717Y-29305442D01*
X85821214Y-29344181D01*
X85850322Y-29408936D01*
X85851500Y-29426125D01*
X85851500Y-39280875D01*
X85831498Y-39348996D01*
X85777842Y-39395489D01*
X85707568Y-39405593D01*
X85642988Y-39376099D01*
X85630768Y-39363953D01*
X85442978Y-39149820D01*
X85440269Y-39146731D01*
X85298976Y-39022820D01*
X85218020Y-38951823D01*
X85218014Y-38951819D01*
X85214920Y-38949105D01*
X84965703Y-38782584D01*
X84962004Y-38780760D01*
X84961999Y-38780757D01*
X84824095Y-38712751D01*
X84696883Y-38650017D01*
X84692977Y-38648691D01*
X84416973Y-38555000D01*
X84416969Y-38554999D01*
X84413060Y-38553672D01*
X84409016Y-38552868D01*
X84409010Y-38552866D01*
X84123128Y-38496000D01*
X84123122Y-38495999D01*
X84119089Y-38495197D01*
X84114984Y-38494928D01*
X84114977Y-38494927D01*
X83824119Y-38475864D01*
X83820000Y-38475594D01*
X83815881Y-38475864D01*
X83525023Y-38494927D01*
X83525016Y-38494928D01*
X83520911Y-38495197D01*
X83516878Y-38495999D01*
X83516872Y-38496000D01*
X83230990Y-38552866D01*
X83230984Y-38552868D01*
X83226940Y-38553672D01*
X83223031Y-38554999D01*
X83223027Y-38555000D01*
X82947023Y-38648691D01*
X82943117Y-38650017D01*
X82815905Y-38712751D01*
X82678001Y-38780757D01*
X82677996Y-38780760D01*
X82674297Y-38782584D01*
X82425080Y-38949105D01*
X82421986Y-38951819D01*
X82421980Y-38951823D01*
X82341024Y-39022820D01*
X82199731Y-39146731D01*
X82197022Y-39149820D01*
X82004823Y-39368980D01*
X82004819Y-39368986D01*
X82002105Y-39372080D01*
X81835584Y-39621297D01*
X81833760Y-39624996D01*
X81833757Y-39625001D01*
X81772202Y-39749823D01*
X81703017Y-39890117D01*
X81701692Y-39894022D01*
X81701691Y-39894023D01*
X81612024Y-40158175D01*
X81606672Y-40173940D01*
X81605868Y-40177984D01*
X81605866Y-40177990D01*
X81553960Y-40438940D01*
X81548197Y-40467911D01*
X81547928Y-40472016D01*
X81547927Y-40472023D01*
X81542911Y-40548561D01*
X81528594Y-40767000D01*
X81528864Y-40771119D01*
X81545582Y-41026187D01*
X81548197Y-41066089D01*
X81548999Y-41070122D01*
X81549000Y-41070128D01*
X81605866Y-41356010D01*
X81606672Y-41360060D01*
X81607999Y-41363969D01*
X81608000Y-41363973D01*
X81701691Y-41639977D01*
X81703017Y-41643883D01*
X81835584Y-41912703D01*
X82002105Y-42161920D01*
X82004819Y-42165014D01*
X82004823Y-42165020D01*
X82179153Y-42363804D01*
X82199731Y-42387269D01*
X82202820Y-42389978D01*
X82202827Y-42389985D01*
X82272137Y-42450768D01*
X82310165Y-42510721D01*
X82309743Y-42581717D01*
X82271005Y-42641214D01*
X82206250Y-42670322D01*
X82189060Y-42671500D01*
X70373152Y-42671500D01*
X70305031Y-42651498D01*
X70258538Y-42597842D01*
X70248434Y-42527568D01*
X70282059Y-42458448D01*
X70282588Y-42457895D01*
X70349297Y-42388088D01*
X70453089Y-42235936D01*
X70481770Y-42193891D01*
X70481771Y-42193890D01*
X70484682Y-42189622D01*
X70493769Y-42170047D01*
X70583654Y-41976405D01*
X70583655Y-41976401D01*
X70585833Y-41971710D01*
X70650036Y-41740202D01*
X70659934Y-41647581D01*
X70670640Y-41547407D01*
X70670640Y-41547399D01*
X70670996Y-41544072D01*
X70670996Y-41023598D01*
X70656318Y-40845063D01*
X70604809Y-40640000D01*
X70599049Y-40617068D01*
X70599049Y-40617067D01*
X70597790Y-40612056D01*
X70533358Y-40463872D01*
X70504053Y-40396474D01*
X70504051Y-40396471D01*
X70501993Y-40391737D01*
X70411641Y-40252075D01*
X70374306Y-40194363D01*
X70374304Y-40194360D01*
X70371498Y-40190023D01*
X70209810Y-40012330D01*
X70084386Y-39913276D01*
X70025326Y-39866633D01*
X70025321Y-39866630D01*
X70021272Y-39863432D01*
X70016756Y-39860939D01*
X70016753Y-39860937D01*
X69815470Y-39749823D01*
X69815466Y-39749821D01*
X69810946Y-39747326D01*
X69806077Y-39745602D01*
X69806073Y-39745600D01*
X69589356Y-39668856D01*
X69589352Y-39668855D01*
X69584481Y-39667130D01*
X69579388Y-39666223D01*
X69579385Y-39666222D01*
X69353048Y-39625905D01*
X69353042Y-39625904D01*
X69347959Y-39624999D01*
X69260596Y-39623932D01*
X69112903Y-39622127D01*
X69112901Y-39622127D01*
X69107733Y-39622064D01*
X68870252Y-39658404D01*
X68766953Y-39692167D01*
X68646813Y-39731434D01*
X68646807Y-39731437D01*
X68641895Y-39733042D01*
X68637309Y-39735429D01*
X68637305Y-39735431D01*
X68467204Y-39823981D01*
X68428796Y-39843975D01*
X68424653Y-39847085D01*
X68424654Y-39847085D01*
X68286278Y-39950981D01*
X68236676Y-39988223D01*
X68070695Y-40161912D01*
X68045461Y-40198903D01*
X67990552Y-40243904D01*
X67920028Y-40252075D01*
X67856280Y-40220821D01*
X67835585Y-40196340D01*
X67834307Y-40194365D01*
X67831498Y-40190023D01*
X67669810Y-40012330D01*
X67544386Y-39913276D01*
X67485326Y-39866633D01*
X67485321Y-39866630D01*
X67481272Y-39863432D01*
X67476756Y-39860939D01*
X67476753Y-39860937D01*
X67275470Y-39749823D01*
X67275466Y-39749821D01*
X67270946Y-39747326D01*
X67266077Y-39745602D01*
X67266073Y-39745600D01*
X67049356Y-39668856D01*
X67049352Y-39668855D01*
X67044481Y-39667130D01*
X67039388Y-39666223D01*
X67039385Y-39666222D01*
X66813048Y-39625905D01*
X66813042Y-39625904D01*
X66807959Y-39624999D01*
X66720596Y-39623932D01*
X66572903Y-39622127D01*
X66572901Y-39622127D01*
X66567733Y-39622064D01*
X66330252Y-39658404D01*
X66226953Y-39692167D01*
X66106813Y-39731434D01*
X66106807Y-39731437D01*
X66101895Y-39733042D01*
X66097309Y-39735429D01*
X66097305Y-39735431D01*
X65927204Y-39823981D01*
X65888796Y-39843975D01*
X65884653Y-39847085D01*
X65884654Y-39847085D01*
X65746278Y-39950981D01*
X65696676Y-39988223D01*
X65530695Y-40161912D01*
X65505461Y-40198903D01*
X65450552Y-40243904D01*
X65380028Y-40252075D01*
X65316280Y-40220821D01*
X65295585Y-40196340D01*
X65294307Y-40194365D01*
X65291498Y-40190023D01*
X65129810Y-40012330D01*
X65004386Y-39913276D01*
X64945326Y-39866633D01*
X64945321Y-39866630D01*
X64941272Y-39863432D01*
X64936756Y-39860939D01*
X64936753Y-39860937D01*
X64735470Y-39749823D01*
X64735466Y-39749821D01*
X64730946Y-39747326D01*
X64726077Y-39745602D01*
X64726073Y-39745600D01*
X64509356Y-39668856D01*
X64509352Y-39668855D01*
X64504481Y-39667130D01*
X64499388Y-39666223D01*
X64499385Y-39666222D01*
X64273048Y-39625905D01*
X64273042Y-39625904D01*
X64267959Y-39624999D01*
X64180596Y-39623932D01*
X64032903Y-39622127D01*
X64032901Y-39622127D01*
X64027733Y-39622064D01*
X63790252Y-39658404D01*
X63686953Y-39692167D01*
X63566813Y-39731434D01*
X63566807Y-39731437D01*
X63561895Y-39733042D01*
X63557309Y-39735429D01*
X63557305Y-39735431D01*
X63387204Y-39823981D01*
X63348796Y-39843975D01*
X63344653Y-39847085D01*
X63344654Y-39847085D01*
X63206278Y-39950981D01*
X63156676Y-39988223D01*
X62990695Y-40161912D01*
X62965461Y-40198903D01*
X62910552Y-40243904D01*
X62840028Y-40252075D01*
X62776280Y-40220821D01*
X62755585Y-40196340D01*
X62754307Y-40194365D01*
X62751498Y-40190023D01*
X62589810Y-40012330D01*
X62464386Y-39913276D01*
X62405326Y-39866633D01*
X62405321Y-39866630D01*
X62401272Y-39863432D01*
X62396756Y-39860939D01*
X62396753Y-39860937D01*
X62195470Y-39749823D01*
X62195466Y-39749821D01*
X62190946Y-39747326D01*
X62186077Y-39745602D01*
X62186073Y-39745600D01*
X61969356Y-39668856D01*
X61969352Y-39668855D01*
X61964481Y-39667130D01*
X61959388Y-39666223D01*
X61959385Y-39666222D01*
X61733048Y-39625905D01*
X61733042Y-39625904D01*
X61727959Y-39624999D01*
X61640596Y-39623932D01*
X61492903Y-39622127D01*
X61492901Y-39622127D01*
X61487733Y-39622064D01*
X61250252Y-39658404D01*
X61146953Y-39692167D01*
X61026813Y-39731434D01*
X61026807Y-39731437D01*
X61021895Y-39733042D01*
X61017309Y-39735429D01*
X61017305Y-39735431D01*
X60847204Y-39823981D01*
X60808796Y-39843975D01*
X60804653Y-39847085D01*
X60804654Y-39847085D01*
X60666278Y-39950981D01*
X60616676Y-39988223D01*
X60450695Y-40161912D01*
X60425461Y-40198903D01*
X60370552Y-40243904D01*
X60300028Y-40252075D01*
X60236280Y-40220821D01*
X60215585Y-40196340D01*
X60214307Y-40194365D01*
X60211498Y-40190023D01*
X60049810Y-40012330D01*
X59924386Y-39913276D01*
X59865326Y-39866633D01*
X59865321Y-39866630D01*
X59861272Y-39863432D01*
X59856756Y-39860939D01*
X59856753Y-39860937D01*
X59655470Y-39749823D01*
X59655466Y-39749821D01*
X59650946Y-39747326D01*
X59646077Y-39745602D01*
X59646073Y-39745600D01*
X59429356Y-39668856D01*
X59429352Y-39668855D01*
X59424481Y-39667130D01*
X59419388Y-39666223D01*
X59419385Y-39666222D01*
X59193048Y-39625905D01*
X59193042Y-39625904D01*
X59187959Y-39624999D01*
X59100596Y-39623932D01*
X58952903Y-39622127D01*
X58952901Y-39622127D01*
X58947733Y-39622064D01*
X58710252Y-39658404D01*
X58606953Y-39692167D01*
X58486813Y-39731434D01*
X58486807Y-39731437D01*
X58481895Y-39733042D01*
X58477309Y-39735429D01*
X58477305Y-39735431D01*
X58307204Y-39823981D01*
X58268796Y-39843975D01*
X58264653Y-39847085D01*
X58264654Y-39847085D01*
X58126278Y-39950981D01*
X58076676Y-39988223D01*
X57910695Y-40161912D01*
X57885461Y-40198903D01*
X57830552Y-40243904D01*
X57760028Y-40252075D01*
X57696280Y-40220821D01*
X57675585Y-40196340D01*
X57674307Y-40194365D01*
X57671498Y-40190023D01*
X57509810Y-40012330D01*
X57384386Y-39913276D01*
X57325326Y-39866633D01*
X57325321Y-39866630D01*
X57321272Y-39863432D01*
X57316756Y-39860939D01*
X57316753Y-39860937D01*
X57115470Y-39749823D01*
X57115466Y-39749821D01*
X57110946Y-39747326D01*
X57106077Y-39745602D01*
X57106073Y-39745600D01*
X56889356Y-39668856D01*
X56889352Y-39668855D01*
X56884481Y-39667130D01*
X56879388Y-39666223D01*
X56879385Y-39666222D01*
X56653048Y-39625905D01*
X56653042Y-39625904D01*
X56647959Y-39624999D01*
X56560596Y-39623932D01*
X56412903Y-39622127D01*
X56412901Y-39622127D01*
X56407733Y-39622064D01*
X56170252Y-39658404D01*
X56066953Y-39692167D01*
X55946813Y-39731434D01*
X55946807Y-39731437D01*
X55941895Y-39733042D01*
X55937309Y-39735429D01*
X55937305Y-39735431D01*
X55767204Y-39823981D01*
X55728796Y-39843975D01*
X55724653Y-39847085D01*
X55724654Y-39847085D01*
X55586278Y-39950981D01*
X55536676Y-39988223D01*
X55370695Y-40161912D01*
X55345461Y-40198903D01*
X55290552Y-40243904D01*
X55220028Y-40252075D01*
X55156280Y-40220821D01*
X55135585Y-40196340D01*
X55134307Y-40194365D01*
X55131498Y-40190023D01*
X54969810Y-40012330D01*
X54844386Y-39913276D01*
X54785326Y-39866633D01*
X54785321Y-39866630D01*
X54781272Y-39863432D01*
X54776756Y-39860939D01*
X54776753Y-39860937D01*
X54575470Y-39749823D01*
X54575466Y-39749821D01*
X54570946Y-39747326D01*
X54566077Y-39745602D01*
X54566073Y-39745600D01*
X54349356Y-39668856D01*
X54349352Y-39668855D01*
X54344481Y-39667130D01*
X54339388Y-39666223D01*
X54339385Y-39666222D01*
X54113048Y-39625905D01*
X54113042Y-39625904D01*
X54107959Y-39624999D01*
X54020596Y-39623932D01*
X53872903Y-39622127D01*
X53872901Y-39622127D01*
X53867733Y-39622064D01*
X53630252Y-39658404D01*
X53526953Y-39692167D01*
X53406813Y-39731434D01*
X53406807Y-39731437D01*
X53401895Y-39733042D01*
X53397309Y-39735429D01*
X53397305Y-39735431D01*
X53227204Y-39823981D01*
X53188796Y-39843975D01*
X53184653Y-39847085D01*
X53184654Y-39847085D01*
X53046278Y-39950981D01*
X52996676Y-39988223D01*
X52830695Y-40161912D01*
X52805461Y-40198903D01*
X52750552Y-40243904D01*
X52680028Y-40252075D01*
X52616280Y-40220821D01*
X52595585Y-40196340D01*
X52594307Y-40194365D01*
X52591498Y-40190023D01*
X52429810Y-40012330D01*
X52304386Y-39913276D01*
X52245326Y-39866633D01*
X52245321Y-39866630D01*
X52241272Y-39863432D01*
X52236756Y-39860939D01*
X52236753Y-39860937D01*
X52035470Y-39749823D01*
X52035466Y-39749821D01*
X52030946Y-39747326D01*
X52026077Y-39745602D01*
X52026073Y-39745600D01*
X51809356Y-39668856D01*
X51809352Y-39668855D01*
X51804481Y-39667130D01*
X51799388Y-39666223D01*
X51799385Y-39666222D01*
X51573048Y-39625905D01*
X51573042Y-39625904D01*
X51567959Y-39624999D01*
X51480596Y-39623932D01*
X51332903Y-39622127D01*
X51332901Y-39622127D01*
X51327733Y-39622064D01*
X51090252Y-39658404D01*
X50986953Y-39692167D01*
X50866813Y-39731434D01*
X50866807Y-39731437D01*
X50861895Y-39733042D01*
X50857309Y-39735429D01*
X50857305Y-39735431D01*
X50687204Y-39823981D01*
X50648796Y-39843975D01*
X50644653Y-39847085D01*
X50644654Y-39847085D01*
X50506278Y-39950981D01*
X50456676Y-39988223D01*
X50290695Y-40161912D01*
X50265461Y-40198903D01*
X50210552Y-40243904D01*
X50140028Y-40252075D01*
X50076280Y-40220821D01*
X50055585Y-40196340D01*
X50054307Y-40194365D01*
X50051498Y-40190023D01*
X49889810Y-40012330D01*
X49764386Y-39913276D01*
X49705326Y-39866633D01*
X49705321Y-39866630D01*
X49701272Y-39863432D01*
X49696756Y-39860939D01*
X49696753Y-39860937D01*
X49495470Y-39749823D01*
X49495466Y-39749821D01*
X49490946Y-39747326D01*
X49486077Y-39745602D01*
X49486073Y-39745600D01*
X49269356Y-39668856D01*
X49269352Y-39668855D01*
X49264481Y-39667130D01*
X49259388Y-39666223D01*
X49259385Y-39666222D01*
X49033048Y-39625905D01*
X49033042Y-39625904D01*
X49027959Y-39624999D01*
X48940596Y-39623932D01*
X48792903Y-39622127D01*
X48792901Y-39622127D01*
X48787733Y-39622064D01*
X48550252Y-39658404D01*
X48446953Y-39692167D01*
X48326813Y-39731434D01*
X48326807Y-39731437D01*
X48321895Y-39733042D01*
X48317309Y-39735429D01*
X48317305Y-39735431D01*
X48147204Y-39823981D01*
X48108796Y-39843975D01*
X48104653Y-39847085D01*
X48104654Y-39847085D01*
X47966278Y-39950981D01*
X47916676Y-39988223D01*
X47750695Y-40161912D01*
X47725461Y-40198903D01*
X47670552Y-40243904D01*
X47600028Y-40252075D01*
X47536280Y-40220821D01*
X47515585Y-40196340D01*
X47514307Y-40194365D01*
X47511498Y-40190023D01*
X47349810Y-40012330D01*
X47224386Y-39913276D01*
X47165326Y-39866633D01*
X47165321Y-39866630D01*
X47161272Y-39863432D01*
X47156756Y-39860939D01*
X47156753Y-39860937D01*
X46955470Y-39749823D01*
X46955466Y-39749821D01*
X46950946Y-39747326D01*
X46946077Y-39745602D01*
X46946073Y-39745600D01*
X46729356Y-39668856D01*
X46729352Y-39668855D01*
X46724481Y-39667130D01*
X46719388Y-39666223D01*
X46719385Y-39666222D01*
X46493048Y-39625905D01*
X46493042Y-39625904D01*
X46487959Y-39624999D01*
X46400596Y-39623932D01*
X46252903Y-39622127D01*
X46252901Y-39622127D01*
X46247733Y-39622064D01*
X46010252Y-39658404D01*
X45906953Y-39692167D01*
X45786813Y-39731434D01*
X45786807Y-39731437D01*
X45781895Y-39733042D01*
X45777309Y-39735429D01*
X45777305Y-39735431D01*
X45607204Y-39823981D01*
X45568796Y-39843975D01*
X45564653Y-39847085D01*
X45564654Y-39847085D01*
X45426278Y-39950981D01*
X45376676Y-39988223D01*
X45210695Y-40161912D01*
X45185461Y-40198903D01*
X45130552Y-40243904D01*
X45060028Y-40252075D01*
X44996280Y-40220821D01*
X44975585Y-40196340D01*
X44974307Y-40194365D01*
X44971498Y-40190023D01*
X44809810Y-40012330D01*
X44684386Y-39913276D01*
X44625326Y-39866633D01*
X44625321Y-39866630D01*
X44621272Y-39863432D01*
X44616756Y-39860939D01*
X44616753Y-39860937D01*
X44415470Y-39749823D01*
X44415466Y-39749821D01*
X44410946Y-39747326D01*
X44406077Y-39745602D01*
X44406073Y-39745600D01*
X44189356Y-39668856D01*
X44189352Y-39668855D01*
X44184481Y-39667130D01*
X44179388Y-39666223D01*
X44179385Y-39666222D01*
X43953048Y-39625905D01*
X43953042Y-39625904D01*
X43947959Y-39624999D01*
X43860596Y-39623932D01*
X43712903Y-39622127D01*
X43712901Y-39622127D01*
X43707733Y-39622064D01*
X43470252Y-39658404D01*
X43366953Y-39692167D01*
X43246813Y-39731434D01*
X43246807Y-39731437D01*
X43241895Y-39733042D01*
X43237309Y-39735429D01*
X43237305Y-39735431D01*
X43067204Y-39823981D01*
X43028796Y-39843975D01*
X43024653Y-39847085D01*
X43024654Y-39847085D01*
X42886278Y-39950981D01*
X42836676Y-39988223D01*
X42769590Y-40058425D01*
X42759700Y-40068774D01*
X42698176Y-40104204D01*
X42627263Y-40100747D01*
X42570963Y-40061359D01*
X42450189Y-39913276D01*
X42446160Y-39908336D01*
X42291127Y-39781894D01*
X42113836Y-39689209D01*
X41921529Y-39634066D01*
X41888875Y-39631152D01*
X41805935Y-39623749D01*
X41805929Y-39623749D01*
X41803142Y-39623500D01*
X40736850Y-39623500D01*
X40734063Y-39623749D01*
X40734057Y-39623749D01*
X40651117Y-39631152D01*
X40618463Y-39634066D01*
X40426156Y-39689209D01*
X40248865Y-39781894D01*
X40093832Y-39908336D01*
X40089803Y-39913276D01*
X39983981Y-40043027D01*
X39967390Y-40063369D01*
X39874705Y-40240660D01*
X39819562Y-40432967D01*
X39808996Y-40551354D01*
X39808996Y-41998646D01*
X39819562Y-42117033D01*
X39874705Y-42309340D01*
X39952367Y-42457895D01*
X39967390Y-42486631D01*
X39964857Y-42487955D01*
X39982045Y-42543973D01*
X39962870Y-42612331D01*
X39909781Y-42659471D01*
X39856054Y-42671500D01*
X29426125Y-42671500D01*
X29358004Y-42651498D01*
X29311511Y-42597842D01*
X29301407Y-42527568D01*
X29330901Y-42462988D01*
X29343047Y-42450768D01*
X29557180Y-42262978D01*
X29560269Y-42260269D01*
X29566534Y-42253125D01*
X29755177Y-42038020D01*
X29755181Y-42038014D01*
X29757895Y-42034920D01*
X29924416Y-41785703D01*
X29944398Y-41745185D01*
X30055159Y-41520581D01*
X30056983Y-41516883D01*
X30077644Y-41456019D01*
X30152000Y-41236973D01*
X30152001Y-41236969D01*
X30153328Y-41233060D01*
X30154134Y-41229010D01*
X30211000Y-40943128D01*
X30211001Y-40943122D01*
X30211803Y-40939089D01*
X30216958Y-40860446D01*
X30231136Y-40644119D01*
X30231406Y-40640000D01*
X30225281Y-40546554D01*
X30212073Y-40345023D01*
X30212072Y-40345016D01*
X30211803Y-40340911D01*
X30194133Y-40252075D01*
X30154134Y-40050990D01*
X30154132Y-40050984D01*
X30153328Y-40046940D01*
X30141580Y-40012330D01*
X30058309Y-39767023D01*
X30058308Y-39767022D01*
X30056983Y-39763117D01*
X29988840Y-39624936D01*
X29926243Y-39498001D01*
X29926240Y-39497996D01*
X29924416Y-39494297D01*
X29757895Y-39245080D01*
X29755181Y-39241986D01*
X29755177Y-39241980D01*
X29562978Y-39022820D01*
X29560269Y-39019731D01*
X29477122Y-38946813D01*
X29338020Y-38824823D01*
X29338014Y-38824819D01*
X29334920Y-38822105D01*
X29085703Y-38655584D01*
X29082004Y-38653760D01*
X29081999Y-38653757D01*
X28877411Y-38552866D01*
X28816883Y-38523017D01*
X28677975Y-38475864D01*
X28536973Y-38428000D01*
X28536969Y-38427999D01*
X28533060Y-38426672D01*
X28529016Y-38425868D01*
X28529010Y-38425866D01*
X28243128Y-38369000D01*
X28243122Y-38368999D01*
X28239089Y-38368197D01*
X28234984Y-38367928D01*
X28234977Y-38367927D01*
X27944119Y-38348864D01*
X27940000Y-38348594D01*
X27935881Y-38348864D01*
X27645023Y-38367927D01*
X27645016Y-38367928D01*
X27640911Y-38368197D01*
X27636878Y-38368999D01*
X27636872Y-38369000D01*
X27350990Y-38425866D01*
X27350984Y-38425868D01*
X27346940Y-38426672D01*
X27343031Y-38427999D01*
X27343027Y-38428000D01*
X27202025Y-38475864D01*
X27063117Y-38523017D01*
X27002589Y-38552866D01*
X26798001Y-38653757D01*
X26797996Y-38653760D01*
X26794297Y-38655584D01*
X26545080Y-38822105D01*
X26541986Y-38824819D01*
X26541980Y-38824823D01*
X26402878Y-38946813D01*
X26319731Y-39019731D01*
X26317022Y-39022820D01*
X26129232Y-39236953D01*
X26069278Y-39274980D01*
X25998283Y-39274558D01*
X25938786Y-39235819D01*
X25909678Y-39171064D01*
X25908500Y-39153875D01*
X25908500Y-29426125D01*
X25928502Y-29358004D01*
X25982158Y-29311511D01*
X26052432Y-29301407D01*
X26117012Y-29330901D01*
X26129232Y-29343047D01*
X26202090Y-29426125D01*
X26319731Y-29560269D01*
X26322820Y-29562978D01*
X26541980Y-29755177D01*
X26541986Y-29755181D01*
X26545080Y-29757895D01*
X26794297Y-29924416D01*
X26797996Y-29926240D01*
X26798001Y-29926243D01*
X26931768Y-29992209D01*
X27063117Y-30056983D01*
X27067022Y-30058308D01*
X27067023Y-30058309D01*
X27343027Y-30152000D01*
X27343031Y-30152001D01*
X27346940Y-30153328D01*
X27350984Y-30154132D01*
X27350990Y-30154134D01*
X27636872Y-30211000D01*
X27636878Y-30211001D01*
X27640911Y-30211803D01*
X27645016Y-30212072D01*
X27645023Y-30212073D01*
X27935881Y-30231136D01*
X27940000Y-30231406D01*
X27944119Y-30231136D01*
X28234977Y-30212073D01*
X28234984Y-30212072D01*
X28239089Y-30211803D01*
X28243122Y-30211001D01*
X28243128Y-30211000D01*
X28529010Y-30154134D01*
X28529016Y-30154132D01*
X28533060Y-30153328D01*
X28536969Y-30152001D01*
X28536973Y-30152000D01*
X28812977Y-30058309D01*
X28812978Y-30058308D01*
X28816883Y-30056983D01*
X28948232Y-29992209D01*
X29081999Y-29926243D01*
X29082004Y-29926240D01*
X29085703Y-29924416D01*
X29334920Y-29757895D01*
X29338014Y-29755181D01*
X29338020Y-29755177D01*
X29557180Y-29562978D01*
X29560269Y-29560269D01*
X29593119Y-29522811D01*
X29755177Y-29338020D01*
X29755181Y-29338014D01*
X29757895Y-29334920D01*
X29924416Y-29085703D01*
X30056983Y-28816883D01*
X30153328Y-28533060D01*
X30159995Y-28499545D01*
X30211000Y-28243128D01*
X30211001Y-28243122D01*
X30211803Y-28239089D01*
X30216958Y-28160446D01*
X30231136Y-27944119D01*
X30231406Y-27940000D01*
X30220277Y-27770202D01*
X30212073Y-27645023D01*
X30212072Y-27645016D01*
X30211803Y-27640911D01*
X30199172Y-27577407D01*
X30154134Y-27350990D01*
X30154132Y-27350984D01*
X30153328Y-27346940D01*
X30056983Y-27063117D01*
X29971500Y-26889774D01*
X29926243Y-26798001D01*
X29926240Y-26797996D01*
X29924416Y-26794297D01*
X29757895Y-26545080D01*
X29755181Y-26541986D01*
X29755177Y-26541980D01*
X29562978Y-26322820D01*
X29560269Y-26319731D01*
X29343047Y-26129232D01*
X29305020Y-26069278D01*
X29305442Y-25998283D01*
X29344181Y-25938786D01*
X29408936Y-25909678D01*
X29426125Y-25908500D01*
X53436836Y-25908500D01*
X53504957Y-25928502D01*
G37*
%TD.AperFunction*%
%TD*%
M02*
