M48
; DRILL file {KiCad (6.0.4)} date Mon Sep 19 09:43:31 2022
; FORMAT={-:-/ absolute / inch / decimal}
; #@! TF.CreationDate,2022-09-19T09:43:31-03:00
; #@! TF.GenerationSoftware,Kicad,Pcbnew,(6.0.4)
; #@! TF.FileFunction,Plated,1,2,PTH
FMAT,2
INCH
; #@! TA.AperFunction,Plated,PTH,ViaDrill
T1C0.0350
; #@! TA.AperFunction,Plated,PTH,ComponentDrill
T2C0.0394
%
G90
G05
T1
X1.2Y-1.15
X1.375Y-1.15
X1.55Y-1.15
X1.725Y-1.15
X1.9Y-1.15
X2.075Y-1.15
X2.25Y-1.15
X2.425Y-1.15
X2.6Y-1.15
X2.775Y-1.15
X2.95Y-1.15
X3.125Y-1.15
X3.3Y-1.15
X3.475Y-1.15
X3.65Y-1.15
X3.8235Y-1.1485
T2
X1.8Y-1.625
X1.9Y-1.625
X2.0Y-1.625
X2.1Y-1.625
X2.2Y-1.625
X2.3Y-1.625
X2.3254Y-1.0
X2.4Y-1.625
X2.4254Y-1.0
X2.5Y-1.625
X2.5254Y-1.0
X2.6Y-1.625
X2.6254Y-1.0
X2.7Y-1.625
X2.8Y-1.625
X2.9Y-1.625
X3.0Y-1.625
X3.1Y-1.625
X3.2Y-1.625
X3.3Y-1.625
T0
M30
